G04 PROTEUS GERBER X2 FILE*
%TF.GenerationSoftware,Labcenter,Proteus,8.9-SP2-Build28501*%
%TF.CreationDate,2021-04-09T23:18:08+00:00*%
%TF.FileFunction,Copper,L1,Top*%
%TF.FilePolarity,Positive*%
%TF.Part,Single*%
%TF.SameCoordinates,{17eb0ee2-30aa-48b8-b423-7eda7b5b8fc9}*%
%FSLAX45Y45*%
%MOMM*%
G01*
%TA.AperFunction,NonConductor*%
%ADD10C,0.254000*%
%ADD11C,0.762000*%
%ADD12C,0.381000*%
%ADD13C,0.508000*%
%TA.AperFunction,ViaPad*%
%ADD14C,0.762000*%
%TA.AperFunction,ComponentPad*%
%ADD15R,1.270000X1.270000*%
%ADD16C,1.270000*%
%TA.AperFunction,WasherPad*%
%ADD17R,1.524000X1.524000*%
%ADD18C,1.524000*%
%TA.AperFunction,ComponentPad*%
%ADD19C,1.778000*%
%ADD70R,2.032000X2.032000*%
%ADD71C,2.032000*%
%TA.AperFunction,ConnectorPad*%
%ADD20R,1.500000X7.620000*%
%TA.AperFunction,Profile*%
%ADD21C,0.203200*%
%TD.AperFunction*%
D10*
X-10366000Y+6384000D02*
X-10604500Y+6384000D01*
X-10608500Y+6380000D01*
X-10850000Y+6380000D01*
X-10366000Y+6638000D02*
X-10604500Y+6638000D01*
X-10612500Y+6630000D01*
X-10850000Y+6630000D01*
X-10366000Y+6892000D02*
X-10604500Y+6892000D01*
X-10616500Y+6880000D01*
X-10850000Y+6880000D01*
X-11540000Y+2464000D02*
X-11747500Y+2671500D01*
X-11747500Y+3556000D01*
X-11684000Y+3619500D01*
X-10066500Y+3619500D01*
X-9952000Y+3734000D01*
X-11540000Y+2718000D02*
X-11684000Y+2862000D01*
X-11684000Y+3302000D01*
X-11620500Y+3365500D01*
X-10066500Y+3365500D01*
X-9952000Y+3480000D01*
X-9952000Y+2718000D02*
X-9779000Y+2718000D01*
X-9715500Y+2781500D01*
X-9715500Y+3302000D01*
X-9652000Y+3365500D01*
X-9144000Y+3365500D01*
X-9080500Y+3429000D01*
X-6286500Y+3429000D01*
X-6223000Y+3365500D01*
X-5819500Y+3365500D01*
X-5704000Y+3250000D01*
X-11540000Y+2972000D02*
X-11400500Y+3111500D01*
X-10066500Y+3111500D01*
X-9952000Y+3226000D01*
X-10850000Y+5380000D02*
X-10604500Y+5380000D01*
X-10592500Y+5368000D01*
X-10366000Y+5368000D01*
X-10850000Y+5630000D02*
X-10842000Y+5622000D01*
X-10366000Y+5622000D01*
X-10850000Y+5880000D02*
X-10604500Y+5880000D01*
X-10600500Y+5876000D01*
X-10366000Y+5876000D01*
X-3700000Y+2872000D02*
X-3697000Y+2875000D01*
X-3441000Y+2875000D01*
X-3700000Y+3126000D02*
X-3697000Y+3129000D01*
X-3441000Y+3129000D01*
X-3700000Y+2618000D02*
X-3558500Y+2476500D01*
X-2823500Y+2476500D01*
X-2679000Y+2621000D01*
X-6223000Y+4318000D02*
X-6220000Y+4318000D01*
X-3700000Y+3380000D02*
X-4637999Y+4318000D01*
X-6220000Y+4318000D01*
X-6220000Y+4420000D01*
X-6223000Y+4318000D02*
X-7134000Y+4318000D01*
X-7236000Y+4420000D01*
X-3700000Y+3380001D02*
X-3700000Y+3380000D01*
X-3587501Y+3492500D01*
X-2788499Y+3492500D01*
X-2679000Y+3383000D01*
X-2679000Y+3383001D01*
X-6474000Y+3658000D02*
X-6943500Y+4127500D01*
X-8763000Y+4127500D01*
X-8860000Y+4224500D01*
X-8860000Y+5168000D01*
X-8344000Y+2270000D02*
X-8090000Y+2270000D01*
X-8598000Y+2270000D02*
X-8344000Y+2270000D01*
X-12872000Y+3476000D02*
X-12874000Y+3474000D01*
X-13100000Y+3474000D01*
X-13112000Y+3224000D02*
X-13271500Y+3383500D01*
X-13271500Y+4826000D01*
X-13208000Y+4889500D01*
X-9652000Y+4889500D01*
X-9207500Y+5334000D01*
X-8606000Y+5334000D01*
X-8606000Y+5168000D01*
X-13112000Y+3224000D02*
X-13110000Y+3222000D01*
X-12872000Y+3222000D01*
X-6742000Y+5028000D02*
X-6880500Y+4889500D01*
X-7874000Y+4889500D01*
X-7971000Y+4986500D01*
X-7971000Y+5207000D01*
X-8034500Y+5270500D01*
X-8225000Y+5270500D01*
X-8225000Y+5016500D01*
X-8288500Y+4953000D01*
X-8636000Y+4953000D01*
X-8733000Y+5050000D01*
X-8733000Y+5270500D01*
X-9080500Y+5270500D01*
X-9715500Y+4635500D01*
X-12728500Y+4635500D01*
X-12872000Y+4492000D01*
X-8100000Y+6478000D02*
X-7937500Y+6478000D01*
X-7850901Y+6564599D01*
X-5425402Y+6564599D01*
X-5288000Y+6702000D01*
X-5288000Y+6702001D01*
X-9779000Y+3937000D02*
X-9779000Y+2921000D01*
X-9842500Y+2857500D01*
X-10160000Y+2857500D01*
X-10668000Y+2349500D01*
X-11966500Y+2349500D01*
X-12110000Y+2206000D01*
X-4160000Y+5166000D02*
X-4010500Y+5016500D01*
X-2413000Y+5016500D01*
X-2349500Y+5080000D01*
X-2349500Y+6325500D01*
X-2634000Y+6610000D01*
X-4922000Y+5166000D02*
X-4572000Y+5166000D01*
X-4318000Y+5420000D01*
X-4160000Y+5420000D01*
X-4922000Y+4912000D02*
X-4160000Y+4912000D01*
X-8098000Y+5168000D02*
X-8098000Y+4826000D01*
X-8034500Y+4762500D01*
X-5969000Y+4762500D01*
X-5715000Y+4508500D01*
X-4309500Y+4508500D01*
X-4160000Y+4658000D01*
X-6050000Y+6194000D02*
X-6858000Y+6194000D01*
X-7590000Y+5462000D01*
X-7590000Y+5168000D01*
X-3329000Y+6182000D02*
X-3433500Y+6286500D01*
X-4817500Y+6286500D01*
X-4922000Y+6182000D01*
X-3329000Y+5420000D02*
X-3810000Y+5420000D01*
X-3914500Y+5524500D01*
X-4254500Y+5524500D01*
X-4658000Y+5928000D01*
X-4922000Y+5928000D01*
X-2567000Y+5166000D02*
X-2730500Y+5166000D01*
X-3089000Y+5524500D01*
X-3492500Y+5524500D01*
X-3642001Y+5674001D01*
X-4160000Y+5674000D01*
X-4160000Y+5674001D01*
X-2567000Y+5928001D02*
X-2567000Y+5928000D01*
X-2671499Y+6032500D01*
X-4055501Y+6032500D01*
X-4160000Y+5928000D01*
X-4160000Y+5928001D01*
X-5794000Y+5170000D02*
X-6921500Y+5170000D01*
X-7075000Y+5016500D01*
X-7620000Y+5016500D01*
X-7717000Y+5113500D01*
X-7717000Y+5270500D01*
X-7780500Y+5334000D01*
X-8352000Y+5334000D01*
X-8352000Y+5168000D01*
X-14756000Y+4257000D02*
X-14219000Y+4257000D01*
X-13386000Y+5090000D01*
X-14704000Y+5480000D02*
X-14469000Y+5715000D01*
X-13395000Y+5715000D01*
X-13200000Y+5520000D01*
D11*
X-14629000Y+4130000D02*
X-14630000Y+4066500D01*
X-14630000Y+2810000D01*
D10*
X-9116000Y+7510000D02*
X-12270000Y+7510000D01*
X-14704000Y+6370000D02*
X-14534000Y+6540000D01*
X-13580000Y+6540000D01*
X-7844000Y+5930000D02*
X-7741500Y+6032500D01*
X-7438500Y+6032500D01*
X-7336000Y+5930000D01*
X-7514000Y+7140000D02*
X-7515600Y+7138400D01*
X-8252400Y+7138400D01*
X-8354000Y+7240000D01*
X-8608000Y+7240000D01*
X-6728000Y+3658000D02*
X-6880000Y+3810000D01*
X-7084000Y+3810000D01*
X-7236000Y+3658000D01*
X-7354000Y+3250000D02*
X-7344000Y+3240000D01*
X-7344000Y+2950000D01*
X-7490000Y+3658000D02*
X-7388000Y+3556000D01*
X-6322000Y+3556000D01*
X-6220000Y+3658000D01*
X-7260000Y+7140000D02*
X-7478500Y+6921500D01*
X-8418500Y+6921500D01*
X-8862000Y+6478000D01*
X-6050000Y+5686000D02*
X-6818000Y+5686000D01*
X-7336000Y+5168000D01*
X-14450000Y+5480000D02*
X-14033500Y+5480000D01*
X-13989500Y+5524000D01*
X-13580000Y+5524000D01*
D12*
X-10778000Y+2210000D02*
X-9952000Y+2210000D01*
X-11540000Y+2210000D02*
X-11593500Y+2146500D01*
X-11720000Y+2020000D01*
X-11950000Y+2020000D01*
X-4462000Y+2110000D02*
X-5072000Y+2110000D01*
X-5450000Y+2488000D01*
D10*
X-11540000Y+3734000D02*
X-11239500Y+3734000D01*
X-10985500Y+3988000D01*
X-10778000Y+3988000D01*
X-3700000Y+3888000D02*
X-3558500Y+3746500D01*
X-2823500Y+3746500D01*
X-2679000Y+3891000D01*
D12*
X-5540000Y+5170000D02*
X-5132500Y+4762500D01*
X-4922000Y+4762000D01*
X-4922000Y+4658000D02*
X-4922000Y+4762000D01*
D10*
X-2634000Y+7372000D02*
X-2413000Y+7151000D01*
X-2413000Y+6921500D01*
X-2476500Y+6858000D01*
X-4462000Y+6858000D01*
X-4620000Y+6700000D01*
X-4874000Y+6700000D02*
X-4721000Y+6547000D01*
X-4375000Y+6547000D01*
X-4312000Y+6610000D01*
X-3396000Y+6610000D01*
X-3142000Y+6610000D02*
X-3298000Y+6454000D01*
X-3936000Y+6454000D01*
X-3936000Y+7470000D02*
X-3884000Y+7522000D01*
X-3292000Y+7522000D01*
X-3142000Y+7372000D01*
X-4558000Y+7534000D02*
X-4494000Y+7470000D01*
X-3936000Y+7470000D01*
X-4922000Y+4762000D02*
X-4847000Y+4788000D01*
X-3491001Y+4788958D01*
X-3329000Y+4658000D01*
X-12270000Y+6748000D02*
X-12925000Y+7600000D01*
X-13955000Y+7601000D01*
X-14207000Y+7195000D01*
X-14682000Y+7195000D01*
X-14682000Y+7340000D01*
X-6982000Y+4420000D02*
X-6982000Y+4517000D01*
X-6858000Y+4635500D01*
X-6223000Y+4635500D01*
D11*
X-16235000Y+7575000D02*
X-16027000Y+7575000D01*
X-15415000Y+6963000D01*
X-14110000Y+6963000D01*
X-15320000Y+2286000D02*
X-15117000Y+2082000D01*
X-14630000Y+2082002D01*
X-14630000Y+2530000D01*
D10*
X-14704000Y+6370000D02*
X-15320000Y+6370000D01*
X-16235000Y+7295000D01*
D11*
X-19562000Y+7268000D02*
X-19641000Y+7347000D01*
X-21489000Y+7347000D01*
X-21600000Y+7458000D01*
X-21600000Y+7585000D01*
X-14830000Y+3330000D02*
X-15330000Y+3830000D01*
D10*
X-12872000Y+3476000D02*
X-12628926Y+3232926D01*
X-12628926Y+2000000D01*
X-12426426Y+1790000D01*
X-6910000Y+1790000D01*
X-6212000Y+2488000D01*
X-3700000Y+2110000D02*
X-4120000Y+1690000D01*
X-5555000Y+1690000D01*
X-5555000Y+260000D01*
X-3700000Y+2364000D02*
X-4303000Y+1761000D01*
X-5809000Y+1761000D01*
X-5809000Y+260000D01*
X-4645000Y+1917000D02*
X-4645000Y+1838000D01*
X-6317000Y+1838000D01*
X-6317000Y+260000D01*
X-4462000Y+3888000D02*
X-4993000Y+3460000D01*
X-6063257Y+1723000D02*
X-6063000Y+260000D01*
X-2679000Y+3637000D02*
X-2414000Y+3372000D01*
X-2414000Y+1454000D01*
X-5301000Y+1454000D01*
X-5301000Y+260000D01*
X-3441000Y+3891000D02*
X-3219000Y+4113000D01*
X-2643000Y+4113000D01*
X-2347000Y+3817000D01*
X-2347000Y+1378000D01*
X-5047000Y+1378000D01*
X-5047000Y+260000D01*
X-10366000Y+2887000D02*
X-10535000Y+2718000D01*
X-10778000Y+2718000D01*
D12*
X-11540000Y+2210000D02*
X-10778000Y+2210000D01*
D13*
X-11744000Y+1706000D02*
X-7499000Y+1706000D01*
X-6877000Y+1706000D01*
X-6583000Y+2000000D01*
X-4792000Y+2000000D01*
D10*
X-11390000Y+1586000D02*
X-10635000Y+1586000D01*
X-10635000Y+260000D01*
X-11291000Y+1462000D02*
X-10889000Y+1462000D01*
X-10889000Y+260000D01*
X-11187000Y+1332000D02*
X-11143000Y+1332000D01*
X-11143000Y+260000D01*
X-9619000Y+1397000D02*
X-9619000Y+260000D01*
X-9873000Y+1480000D02*
X-9873000Y+260000D01*
X-10127000Y+1567000D02*
X-10127000Y+260000D01*
X-10381000Y+1575000D02*
X-10381000Y+260000D01*
X-6825000Y+260000D02*
X-6825000Y+1580000D01*
X-7091000Y+1910000D02*
X-7091000Y+2258000D01*
X-7372000Y+2258000D01*
X-7588000Y+2474000D01*
X-8813000Y+2474000D01*
X-8813000Y+2357000D01*
X-9154000Y+2029000D01*
X-9565000Y+2029000D01*
X-6720000Y+2488000D02*
X-6720000Y+2682000D01*
X-9952000Y+2210000D02*
X-9312000Y+2850000D01*
X-8519000Y+2850000D01*
X-8360000Y+2950000D01*
X-6720000Y+2682000D02*
X-9021000Y+2682000D01*
X-9100000Y+2603000D01*
X-9367000Y+2603000D01*
X-10014000Y+1956000D01*
X-11557000Y+1956000D01*
X-11557000Y+1337000D02*
X-11905000Y+1337000D01*
X-11905000Y+260000D01*
X-8598000Y+2270000D02*
X-8700000Y+2270000D01*
X-9122000Y+1848000D01*
X-11998000Y+1848000D01*
X-12340409Y+2190409D01*
X-12340409Y+3706409D01*
X-12872000Y+4238000D01*
X-8100000Y+7240000D02*
X-7752000Y+7588000D01*
X-7202000Y+7588000D01*
X-6842900Y+7228900D01*
X-6840000Y+7140000D01*
X-3700000Y+2618000D02*
X-4070000Y+2988000D01*
X-6204000Y+2988000D01*
X-6466000Y+3250000D01*
X-6474000Y+3658000D02*
X-6346811Y+3658000D01*
X-4464000Y+1880000D02*
X-4111000Y+2233000D01*
X-4111000Y+2622000D01*
X-4234000Y+2745000D01*
X-4905000Y+2745000D01*
X-4907000Y+3748000D02*
X-5079000Y+3920000D01*
X-6208000Y+3920000D01*
X-6346811Y+3658000D01*
X-4318000Y+3492500D02*
X-4318000Y+3245000D01*
X-4567564Y+3245000D01*
X-4784000Y+3053000D01*
X-6006000Y+3051000D01*
X-6114000Y+3250000D01*
X-6212000Y+3250000D01*
X-13382000Y+7050000D02*
X-12983000Y+7050000D01*
X-12370000Y+6437000D01*
X-12370000Y+6286000D01*
X-2679000Y+2367000D02*
X-3588000Y+1543000D01*
X-4141000Y+1543000D01*
X-4390000Y+1280000D02*
X-4650000Y+1280000D01*
X-4792378Y+1160002D01*
X-4793000Y+260000D01*
X-2679000Y+2113000D02*
X-3340000Y+1580000D01*
X-3560000Y+1260000D02*
X-4230000Y+1260000D01*
X-4539000Y+1090000D01*
X-4539000Y+260000D01*
X-8370000Y+3250000D02*
X-7918000Y+2798000D01*
X-6030000Y+2800000D01*
X-5704000Y+2488000D01*
D14*
X-9779000Y+3937000D03*
X-11950000Y+2020000D03*
X-6223000Y+4635500D03*
X-14110000Y+6963000D03*
X-15320000Y+2286000D03*
X-19562000Y+7268000D03*
X-14830000Y+3330000D03*
X-15330000Y+3830000D03*
X-4645000Y+1917000D03*
X-4993000Y+3460000D03*
X-6063257Y+1723000D03*
X-10366000Y+2887000D03*
X-11744000Y+1706000D03*
X-4792000Y+2000000D03*
X-7499000Y+1706000D03*
X-11390000Y+1586000D03*
X-11291000Y+1462000D03*
X-11187000Y+1332000D03*
X-9619000Y+1397000D03*
X-9873000Y+1480000D03*
X-10127000Y+1567000D03*
X-10381000Y+1575000D03*
X-6825000Y+1580000D03*
X-7091000Y+1910000D03*
X-9565000Y+2029000D03*
X-11557000Y+1956000D03*
X-11557000Y+1337000D03*
X-4464000Y+1880000D03*
X-4111000Y+2622000D03*
X-4905000Y+2745000D03*
X-4907000Y+3748000D03*
X-4318000Y+3492500D03*
X-4141000Y+1543000D03*
X-4390000Y+1280000D03*
X-3340000Y+1580000D03*
X-3560000Y+1260000D03*
D15*
X-11540000Y+3988000D03*
D16*
X-11540000Y+3734000D03*
X-11540000Y+3480000D03*
X-11540000Y+3226000D03*
X-11540000Y+2972000D03*
X-11540000Y+2718000D03*
X-11540000Y+2464000D03*
X-11540000Y+2210000D03*
X-10778000Y+2210000D03*
X-10778000Y+2464000D03*
X-10778000Y+2718000D03*
X-10778000Y+2972000D03*
X-10778000Y+3226000D03*
X-10778000Y+3480000D03*
X-10778000Y+3734000D03*
X-10778000Y+3988000D03*
D15*
X-9952000Y+3988000D03*
D16*
X-9952000Y+3734000D03*
X-9952000Y+3480000D03*
X-9952000Y+3226000D03*
X-9952000Y+2972000D03*
X-9952000Y+2718000D03*
X-9952000Y+2464000D03*
X-9952000Y+2210000D03*
X-9190000Y+2210000D03*
X-9190000Y+2464000D03*
X-9190000Y+2718000D03*
X-9190000Y+2972000D03*
X-9190000Y+3226000D03*
X-9190000Y+3480000D03*
X-9190000Y+3734000D03*
X-9190000Y+3988000D03*
D17*
X-10366000Y+6892000D03*
D18*
X-10366000Y+6638000D03*
X-10366000Y+6384000D03*
X-10366000Y+6130000D03*
X-10366000Y+5876000D03*
X-10366000Y+5622000D03*
X-10366000Y+5368000D03*
X-9604000Y+5368000D03*
X-9604000Y+5622000D03*
X-9604000Y+5876000D03*
X-9604000Y+6130000D03*
X-9604000Y+6384000D03*
X-9604000Y+6638000D03*
X-9604000Y+6892000D03*
D19*
X-11866000Y+5380000D03*
X-10850000Y+5380000D03*
X-11866000Y+5630000D03*
X-10850000Y+5630000D03*
X-11866000Y+5880000D03*
X-10850000Y+5880000D03*
X-11866000Y+6130000D03*
X-10850000Y+6130000D03*
X-11866000Y+6380000D03*
X-10850000Y+6380000D03*
X-11866000Y+6630000D03*
X-10850000Y+6630000D03*
X-11866000Y+6880000D03*
X-10850000Y+6880000D03*
D15*
X-6050000Y+7210000D03*
D16*
X-6050000Y+6956000D03*
X-6050000Y+6702000D03*
X-6050000Y+6448000D03*
X-6050000Y+6194000D03*
X-6050000Y+5940000D03*
X-6050000Y+5686000D03*
X-5288000Y+5686000D03*
X-5288000Y+5940000D03*
X-5288000Y+6194000D03*
X-5288000Y+6448000D03*
X-5288000Y+6702000D03*
X-5288000Y+6956000D03*
X-5288000Y+7210000D03*
D15*
X-8860000Y+5168000D03*
D16*
X-8606000Y+5168000D03*
X-8352000Y+5168000D03*
X-8098000Y+5168000D03*
X-7844000Y+5168000D03*
X-7590000Y+5168000D03*
X-7336000Y+5168000D03*
X-7336000Y+5930000D03*
X-7590000Y+5930000D03*
X-7844000Y+5930000D03*
X-8098000Y+5930000D03*
X-8352000Y+5930000D03*
X-8606000Y+5930000D03*
X-8860000Y+5930000D03*
D15*
X-4462000Y+3888000D03*
D16*
X-4462000Y+3634000D03*
X-4462000Y+3380000D03*
X-4462000Y+3126000D03*
X-4462000Y+2872000D03*
X-4462000Y+2618000D03*
X-4462000Y+2364000D03*
X-4462000Y+2110000D03*
X-3700000Y+2110000D03*
X-3700000Y+2364000D03*
X-3700000Y+2618000D03*
X-3700000Y+2872000D03*
X-3700000Y+3126000D03*
X-3700000Y+3380000D03*
X-3700000Y+3634000D03*
X-3700000Y+3888000D03*
D15*
X-3441000Y+3891000D03*
D16*
X-3441000Y+3637000D03*
X-3441000Y+3383000D03*
X-3441000Y+3129000D03*
X-3441000Y+2875000D03*
X-3441000Y+2621000D03*
X-3441000Y+2367000D03*
X-3441000Y+2113000D03*
X-2679000Y+2113000D03*
X-2679000Y+2367000D03*
X-2679000Y+2621000D03*
X-2679000Y+2875000D03*
X-2679000Y+3129000D03*
X-2679000Y+3383000D03*
X-2679000Y+3637000D03*
X-2679000Y+3891000D03*
D15*
X-3329000Y+6182000D03*
D16*
X-3329000Y+5928000D03*
X-3329000Y+5674000D03*
X-3329000Y+5420000D03*
X-3329000Y+5166000D03*
X-3329000Y+4912000D03*
X-3329000Y+4658000D03*
X-2567000Y+4658000D03*
X-2567000Y+4912000D03*
X-2567000Y+5166000D03*
X-2567000Y+5420000D03*
X-2567000Y+5674000D03*
X-2567000Y+5928000D03*
X-2567000Y+6182000D03*
D15*
X-4922000Y+6182000D03*
D16*
X-4922000Y+5928000D03*
X-4922000Y+5674000D03*
X-4922000Y+5420000D03*
X-4922000Y+5166000D03*
X-4922000Y+4912000D03*
X-4922000Y+4658000D03*
X-4160000Y+4658000D03*
X-4160000Y+4912000D03*
X-4160000Y+5166000D03*
X-4160000Y+5420000D03*
X-4160000Y+5674000D03*
X-4160000Y+5928000D03*
X-4160000Y+6182000D03*
D15*
X-12872000Y+4492000D03*
D16*
X-12872000Y+4238000D03*
X-12872000Y+3984000D03*
X-12872000Y+3730000D03*
X-12872000Y+3476000D03*
X-12872000Y+3222000D03*
X-12872000Y+2968000D03*
X-12872000Y+2714000D03*
X-12872000Y+2460000D03*
X-12872000Y+2206000D03*
X-12110000Y+2206000D03*
X-12110000Y+2460000D03*
X-12110000Y+2714000D03*
X-12110000Y+2968000D03*
X-12110000Y+3222000D03*
X-12110000Y+3476000D03*
X-12110000Y+3730000D03*
X-12110000Y+3984000D03*
X-12110000Y+4238000D03*
X-12110000Y+4492000D03*
D19*
X-13112000Y+3224000D03*
X-13112000Y+2208000D03*
D15*
X-3396000Y+6610000D03*
D16*
X-3142000Y+6610000D03*
X-2888000Y+6610000D03*
X-2634000Y+6610000D03*
X-2634000Y+7372000D03*
X-2888000Y+7372000D03*
X-3142000Y+7372000D03*
X-3396000Y+7372000D03*
D19*
X-4874000Y+7131000D03*
X-4620000Y+7131000D03*
X-4874000Y+6700000D03*
X-4620000Y+6700000D03*
X-5574000Y+7534000D03*
X-4558000Y+7534000D03*
X-3936000Y+6454000D03*
X-3936000Y+7470000D03*
X-6742000Y+6044000D03*
X-6742000Y+5028000D03*
X-8360000Y+2950000D03*
X-7344000Y+2950000D03*
D70*
X-8598000Y+2016000D03*
X-8598000Y+2270000D03*
X-8344000Y+2016000D03*
X-8344000Y+2270000D03*
X-8090000Y+2016000D03*
X-8090000Y+2270000D03*
D71*
X-13494000Y+1770000D03*
X-13240000Y+1770000D03*
D19*
X-7514000Y+7140000D03*
X-7260000Y+7140000D03*
X-6840000Y+7140000D03*
X-6586000Y+7140000D03*
D71*
X-14704000Y+6370000D03*
X-14450000Y+6370000D03*
X-14704000Y+5480000D03*
X-14450000Y+5480000D03*
X-5794000Y+5170000D03*
X-5540000Y+5170000D03*
D19*
X-14110000Y+3840000D03*
X-14110000Y+4602000D03*
X-13670000Y+3838000D03*
X-13670000Y+4600000D03*
X-12270000Y+7510000D03*
X-12270000Y+6748000D03*
D16*
X-12370000Y+6286000D03*
X-12497000Y+6159000D03*
X-12370000Y+6032000D03*
X-14629000Y+4130000D03*
X-14756000Y+4257000D03*
X-14883000Y+4130000D03*
D19*
X-13200000Y+5520000D03*
X-13200000Y+6536000D03*
X-13386000Y+5090000D03*
X-12370000Y+5090000D03*
X-14110000Y+2534000D03*
X-14110000Y+3550000D03*
X-13580000Y+6540000D03*
X-13580000Y+5524000D03*
X-9116000Y+7510000D03*
X-8100000Y+7510000D03*
X-6500000Y+6770000D03*
X-7516000Y+6770000D03*
X-13100000Y+3474000D03*
X-13100000Y+4490000D03*
X-8370000Y+3250000D03*
X-7354000Y+3250000D03*
X-13670000Y+3546000D03*
X-13670000Y+2530000D03*
X-6500000Y+6410000D03*
X-7516000Y+6410000D03*
D15*
X-8862000Y+6478000D03*
D16*
X-8608000Y+6478000D03*
X-8354000Y+6478000D03*
X-8100000Y+6478000D03*
X-8100000Y+7240000D03*
X-8354000Y+7240000D03*
X-8608000Y+7240000D03*
X-8862000Y+7240000D03*
D15*
X-7490000Y+3658000D03*
D16*
X-7236000Y+3658000D03*
X-6982000Y+3658000D03*
X-6728000Y+3658000D03*
X-6474000Y+3658000D03*
X-6220000Y+3658000D03*
X-5966000Y+3658000D03*
X-5966000Y+4420000D03*
X-6220000Y+4420000D03*
X-6474000Y+4420000D03*
X-6728000Y+4420000D03*
X-6982000Y+4420000D03*
X-7236000Y+4420000D03*
X-7490000Y+4420000D03*
D15*
X-6974000Y+2488000D03*
D16*
X-6720000Y+2488000D03*
X-6466000Y+2488000D03*
X-6212000Y+2488000D03*
X-5958000Y+2488000D03*
X-5704000Y+2488000D03*
X-5450000Y+2488000D03*
X-5450000Y+3250000D03*
X-5704000Y+3250000D03*
X-5958000Y+3250000D03*
X-6212000Y+3250000D03*
X-6466000Y+3250000D03*
X-6720000Y+3250000D03*
X-6974000Y+3250000D03*
D70*
X-21346000Y+7585000D03*
X-21600000Y+7585000D03*
X-14630000Y+2530000D03*
X-14884000Y+2530000D03*
X-14630000Y+2810000D03*
X-14884000Y+2810000D03*
X-14682000Y+7340000D03*
X-14428000Y+7340000D03*
X-16489000Y+7575000D03*
X-16235000Y+7575000D03*
X-16489000Y+7295000D03*
X-16235000Y+7295000D03*
X-13636000Y+7340000D03*
X-13382000Y+7340000D03*
X-13636000Y+7050000D03*
X-13382000Y+7050000D03*
X-18801000Y+6584000D03*
X-19055000Y+6584000D03*
X-18291000Y+6584000D03*
X-18545000Y+6584000D03*
D20*
X-11905000Y+566000D03*
X-11651000Y+566000D03*
X-11397000Y+566000D03*
X-11143000Y+566000D03*
X-10889000Y+566000D03*
X-10635000Y+566000D03*
X-10381000Y+566000D03*
X-10127000Y+566000D03*
X-9873000Y+566000D03*
X-9619000Y+566000D03*
X-9365000Y+566000D03*
X-9111000Y+566000D03*
X-8857000Y+566000D03*
X-8603000Y+566000D03*
X-8349000Y+566000D03*
X-8095000Y+566000D03*
X-7841000Y+566000D03*
X-7587000Y+566000D03*
X-7333000Y+566000D03*
X-7079000Y+566000D03*
X-6825000Y+566000D03*
X-6571000Y+566000D03*
X-6317000Y+566000D03*
X-6063000Y+566000D03*
X-5809000Y+566000D03*
X-5555000Y+566000D03*
X-5301000Y+566000D03*
X-5047000Y+566000D03*
X-4793000Y+566000D03*
X-4539000Y+566000D03*
X-4285000Y+566000D03*
X-11905000Y+566000D03*
X-11651000Y+566000D03*
X-11397000Y+566000D03*
X-11143000Y+566000D03*
X-10889000Y+566000D03*
X-10635000Y+566000D03*
X-10381000Y+566000D03*
X-10127000Y+566000D03*
X-9873000Y+566000D03*
X-9619000Y+566000D03*
X-9365000Y+566000D03*
X-9111000Y+566000D03*
X-8857000Y+566000D03*
X-8603000Y+566000D03*
X-8349000Y+566000D03*
X-8095000Y+566000D03*
X-7841000Y+566000D03*
X-7587000Y+566000D03*
X-7333000Y+566000D03*
X-7079000Y+566000D03*
X-6825000Y+566000D03*
X-6571000Y+566000D03*
X-6317000Y+566000D03*
X-6063000Y+566000D03*
X-5809000Y+566000D03*
X-5555000Y+566000D03*
X-5301000Y+566000D03*
X-5047000Y+566000D03*
X-4793000Y+566000D03*
X-4539000Y+566000D03*
X-11905000Y+566000D03*
X-11651000Y+566000D03*
X-11397000Y+566000D03*
X-11397000Y+566000D03*
X-11143000Y+566000D03*
X-10889000Y+566000D03*
X-10635000Y+566000D03*
X-10381000Y+566000D03*
X-10889000Y+566000D03*
X-10635000Y+566000D03*
X-10381000Y+566000D03*
X-10381000Y+566000D03*
X-10127000Y+566000D03*
X-9873000Y+566000D03*
X-9619000Y+566000D03*
X-9365000Y+566000D03*
X-9111000Y+566000D03*
X-8857000Y+566000D03*
X-8603000Y+566000D03*
X-8349000Y+566000D03*
X-9873000Y+566000D03*
X-9619000Y+566000D03*
X-9365000Y+566000D03*
X-9365000Y+566000D03*
X-9111000Y+566000D03*
X-8857000Y+566000D03*
X-8603000Y+566000D03*
X-8349000Y+566000D03*
X-8857000Y+566000D03*
X-8603000Y+566000D03*
X-8349000Y+566000D03*
X-8349000Y+566000D03*
X-8095000Y+566000D03*
X-7841000Y+566000D03*
X-7587000Y+566000D03*
X-7333000Y+566000D03*
X-7079000Y+566000D03*
X-6825000Y+566000D03*
X-6571000Y+566000D03*
X-6317000Y+566000D03*
X-6063000Y+566000D03*
X-5809000Y+566000D03*
X-5555000Y+566000D03*
X-5301000Y+566000D03*
X-5047000Y+566000D03*
X-4793000Y+566000D03*
X-4539000Y+566000D03*
X-4285000Y+566000D03*
X-7841000Y+566000D03*
X-7587000Y+566000D03*
X-7333000Y+566000D03*
X-7333000Y+566000D03*
X-7079000Y+566000D03*
X-6825000Y+566000D03*
X-6571000Y+566000D03*
X-6317000Y+566000D03*
X-6825000Y+566000D03*
X-6571000Y+566000D03*
X-6317000Y+566000D03*
X-6317000Y+566000D03*
X-6063000Y+566000D03*
X-5809000Y+566000D03*
X-5555000Y+566000D03*
X-5301000Y+566000D03*
X-5047000Y+566000D03*
X-4793000Y+566000D03*
X-4539000Y+566000D03*
X-4285000Y+566000D03*
X-5809000Y+566000D03*
X-5555000Y+566000D03*
X-5301000Y+566000D03*
X-5301000Y+566000D03*
X-5047000Y+566000D03*
X-4793000Y+566000D03*
X-4539000Y+566000D03*
X-4285000Y+566000D03*
X-4793000Y+566000D03*
X-4539000Y+566000D03*
X-4285000Y+566000D03*
X-4285000Y+566000D03*
D19*
X-12817000Y+6536000D03*
X-12817000Y+5520000D03*
D21*
X-4020000Y+940000D02*
X-1537000Y+940000D01*
X-1537000Y+7990000D01*
X-25739000Y+7990000D01*
X-25739000Y+940000D01*
X-12170000Y+150000D02*
X-12170000Y+940000D01*
X-17420000Y+940000D02*
X-25739000Y+940000D01*
X-12170000Y+150000D02*
X-4020000Y+150000D01*
X-4020000Y+940000D01*
X-12720000Y+150000D02*
X-12720000Y+940000D01*
X-12170000Y+940000D01*
X-17420000Y+940000D02*
X-17420000Y+150000D01*
X-12720000Y+150000D01*
M02*
