G04 PROTEUS GERBER X2 FILE*
%TF.GenerationSoftware,Labcenter,Proteus,8.9-SP2-Build28501*%
%TF.CreationDate,2021-04-09T23:18:08+00:00*%
%TF.FileFunction,Legend,Bot*%
%TF.FilePolarity,Positive*%
%TF.Part,Single*%
%TF.SameCoordinates,{17eb0ee2-30aa-48b8-b423-7eda7b5b8fc9}*%
%FSLAX45Y45*%
%MOMM*%
G01*
%TA.AperFunction,Material*%
%ADD23C,0.203200*%
%TA.AperFunction,Profile*%
%ADD21C,0.203200*%
%TD.AperFunction*%
D23*
X-7221700Y+1151600D02*
X-7272500Y+1151600D01*
X-7247100Y+1151600D02*
X-7247100Y+1075400D01*
X-7221700Y+1075400D02*
X-7272500Y+1075400D01*
X-7310600Y+1126200D02*
X-7336000Y+1151600D01*
X-7361400Y+1151600D01*
X-7386800Y+1126200D01*
X-7386800Y+1100800D01*
X-7361400Y+1075400D01*
X-7336000Y+1075400D01*
X-7310600Y+1100800D01*
X-7310600Y+1126200D01*
X-7412200Y+1151600D02*
X-7412200Y+1075400D01*
X-7450300Y+1113500D01*
X-7488400Y+1075400D01*
X-7488400Y+1151600D01*
X-4575600Y+1065000D02*
X-4499400Y+1065000D01*
X-4499400Y+1128500D01*
X-4512100Y+1141200D01*
X-4524800Y+1141200D01*
X-4537500Y+1128500D01*
X-4537500Y+1065000D01*
X-4537500Y+1128500D02*
X-4550200Y+1141200D01*
X-4575600Y+1141200D01*
X-4575600Y+1242800D02*
X-4575600Y+1166600D01*
X-4499400Y+1166600D01*
X-4499400Y+1242800D01*
X-4537500Y+1166600D02*
X-4537500Y+1217400D01*
X-4562900Y+1268200D02*
X-4575600Y+1280900D01*
X-4575600Y+1331700D01*
X-4562900Y+1344400D01*
X-4550200Y+1344400D01*
X-4537500Y+1331700D01*
X-4537500Y+1280900D01*
X-4524800Y+1268200D01*
X-4512100Y+1268200D01*
X-4499400Y+1280900D01*
X-4499400Y+1331700D01*
X-4512100Y+1344400D01*
X-4575600Y+1446000D02*
X-4575600Y+1369800D01*
X-4499400Y+1369800D01*
X-4499400Y+1446000D01*
X-4537500Y+1369800D02*
X-4537500Y+1420600D01*
X-4499400Y+1471400D02*
X-4499400Y+1547600D01*
X-4499400Y+1509500D02*
X-4575600Y+1509500D01*
X-10345400Y+1027700D02*
X-10345400Y+1078500D01*
X-10345400Y+1053100D02*
X-10421600Y+1053100D01*
X-10421600Y+1027700D02*
X-10421600Y+1078500D01*
X-10421600Y+1116600D02*
X-10345400Y+1116600D01*
X-10345400Y+1180100D01*
X-10358100Y+1192800D01*
X-10370800Y+1192800D01*
X-10383500Y+1180100D01*
X-10383500Y+1116600D01*
X-10383500Y+1180100D02*
X-10396200Y+1192800D01*
X-10421600Y+1192800D01*
X-10370800Y+1218200D02*
X-10345400Y+1243600D01*
X-10345400Y+1269000D01*
X-10370800Y+1294400D01*
X-10396200Y+1294400D01*
X-10421600Y+1269000D01*
X-10421600Y+1243600D01*
X-10396200Y+1218200D01*
X-10370800Y+1218200D01*
X-10396200Y+1269000D02*
X-10421600Y+1294400D01*
X-10358100Y+1332500D02*
X-10345400Y+1345200D01*
X-10345400Y+1383300D01*
X-10358100Y+1396000D01*
X-10370800Y+1396000D01*
X-10383500Y+1383300D01*
X-10396200Y+1396000D01*
X-10408900Y+1396000D01*
X-10421600Y+1383300D01*
X-10421600Y+1345200D01*
X-10408900Y+1332500D01*
X-10383500Y+1357900D02*
X-10383500Y+1383300D01*
X-10083400Y+1031700D02*
X-10083400Y+1082500D01*
X-10083400Y+1057100D02*
X-10159600Y+1057100D01*
X-10159600Y+1031700D02*
X-10159600Y+1082500D01*
X-10159600Y+1120600D02*
X-10083400Y+1120600D01*
X-10083400Y+1184100D01*
X-10096100Y+1196800D01*
X-10108800Y+1196800D01*
X-10121500Y+1184100D01*
X-10121500Y+1120600D01*
X-10121500Y+1184100D02*
X-10134200Y+1196800D01*
X-10159600Y+1196800D01*
X-10108800Y+1222200D02*
X-10083400Y+1247600D01*
X-10083400Y+1273000D01*
X-10108800Y+1298400D01*
X-10134200Y+1298400D01*
X-10159600Y+1273000D01*
X-10159600Y+1247600D01*
X-10134200Y+1222200D01*
X-10108800Y+1222200D01*
X-10134200Y+1273000D02*
X-10159600Y+1298400D01*
X-10134200Y+1400000D02*
X-10134200Y+1323800D01*
X-10083400Y+1374600D01*
X-10159600Y+1374600D01*
X-9834400Y+1032700D02*
X-9834400Y+1083500D01*
X-9834400Y+1058100D02*
X-9910600Y+1058100D01*
X-9910600Y+1032700D02*
X-9910600Y+1083500D01*
X-9910600Y+1121600D02*
X-9834400Y+1121600D01*
X-9834400Y+1185100D01*
X-9847100Y+1197800D01*
X-9859800Y+1197800D01*
X-9872500Y+1185100D01*
X-9872500Y+1121600D01*
X-9872500Y+1185100D02*
X-9885200Y+1197800D01*
X-9910600Y+1197800D01*
X-9859800Y+1223200D02*
X-9834400Y+1248600D01*
X-9834400Y+1274000D01*
X-9859800Y+1299400D01*
X-9885200Y+1299400D01*
X-9910600Y+1274000D01*
X-9910600Y+1248600D01*
X-9885200Y+1223200D01*
X-9859800Y+1223200D01*
X-9885200Y+1274000D02*
X-9910600Y+1299400D01*
X-9834400Y+1401000D02*
X-9834400Y+1337500D01*
X-9859800Y+1337500D01*
X-9859800Y+1388300D01*
X-9872500Y+1401000D01*
X-9897900Y+1401000D01*
X-9910600Y+1388300D01*
X-9910600Y+1350200D01*
X-9897900Y+1337500D01*
X-23370250Y+1096400D02*
X-23354375Y+1116720D01*
X-23290875Y+1116720D01*
X-23275000Y+1096400D01*
X-23275000Y+1055760D01*
X-23290875Y+1035440D01*
X-23354375Y+1035440D01*
X-23370250Y+1055760D01*
X-23370250Y+1035440D02*
X-23370250Y+1157360D01*
X-23402000Y+1076080D02*
X-23497250Y+1076080D01*
X-23497250Y+1096400D01*
X-23481375Y+1116720D01*
X-23417875Y+1116720D01*
X-23402000Y+1096400D01*
X-23402000Y+1055760D01*
X-23417875Y+1035440D01*
X-23481375Y+1035440D01*
X-23608375Y+1116720D02*
X-23544875Y+1116720D01*
X-23529000Y+1096400D01*
X-23544875Y+1076080D01*
X-23608375Y+1076080D01*
X-23624250Y+1055760D01*
X-23608375Y+1035440D01*
X-23529000Y+1035440D01*
X-23703625Y+1116720D02*
X-23703625Y+1035440D01*
X-23703625Y+1157360D02*
X-23703625Y+1157360D01*
X-23878250Y+1096400D02*
X-23862375Y+1116720D01*
X-23798875Y+1116720D01*
X-23783000Y+1096400D01*
X-23783000Y+1076080D01*
X-23798875Y+1055760D01*
X-23862375Y+1055760D01*
X-23878250Y+1076080D01*
X-23878250Y+1116720D02*
X-23878250Y+1035440D01*
X-23862375Y+1015120D01*
X-23783000Y+1015120D01*
X-23910000Y+1035440D02*
X-23910000Y+1116720D01*
X-23910000Y+1096400D02*
X-23925875Y+1116720D01*
X-23989375Y+1116720D01*
X-24005250Y+1096400D01*
X-24005250Y+1035440D01*
X-24037000Y+1076080D02*
X-24132250Y+1076080D01*
X-24132250Y+1096400D01*
X-24116375Y+1116720D01*
X-24052875Y+1116720D01*
X-24037000Y+1096400D01*
X-24037000Y+1055760D01*
X-24052875Y+1035440D01*
X-24116375Y+1035440D01*
X-24259250Y+1096400D02*
X-24243375Y+1116720D01*
X-24179875Y+1116720D01*
X-24164000Y+1096400D01*
X-24164000Y+1055760D01*
X-24179875Y+1035440D01*
X-24243375Y+1035440D01*
X-24259250Y+1055760D01*
X-24259250Y+1035440D02*
X-24259250Y+1157360D01*
X-24465625Y+1116720D02*
X-24465625Y+1035440D01*
X-24465625Y+1157360D02*
X-24465625Y+1157360D01*
X-24545000Y+1035440D02*
X-24545000Y+1116720D01*
X-24545000Y+1096400D02*
X-24560875Y+1116720D01*
X-24624375Y+1116720D01*
X-24640250Y+1096400D01*
X-24640250Y+1035440D01*
X-24799000Y+1157360D02*
X-24799000Y+1035440D01*
X-24894250Y+1157360D02*
X-24846625Y+1096400D01*
X-24894250Y+1035440D01*
X-24799000Y+1096400D02*
X-24846625Y+1096400D01*
X-25021250Y+1035440D02*
X-25021250Y+1096400D01*
X-25005375Y+1116720D01*
X-24941875Y+1116720D01*
X-24926000Y+1096400D01*
X-24926000Y+1157360D02*
X-24926000Y+1035440D01*
X-25068875Y+1116720D02*
X-25132375Y+1116720D01*
X-25148250Y+1096400D01*
X-25148250Y+1035440D01*
X-25068875Y+1035440D01*
X-25053000Y+1055760D01*
X-25068875Y+1076080D01*
X-25148250Y+1076080D01*
X-25180000Y+1035440D02*
X-25180000Y+1116720D01*
X-25180000Y+1096400D02*
X-25195875Y+1116720D01*
X-25259375Y+1116720D01*
X-25275250Y+1096400D01*
X-25307000Y+1157360D02*
X-25307000Y+1035440D01*
X-25307000Y+1055760D02*
X-25402250Y+1116720D01*
X-25338750Y+1076080D02*
X-25402250Y+1035440D01*
X-25434000Y+1096400D02*
X-25449875Y+1116720D01*
X-25513375Y+1116720D01*
X-25529250Y+1096400D01*
X-25529250Y+1055760D01*
X-25513375Y+1035440D01*
X-25449875Y+1035440D01*
X-25434000Y+1055760D01*
X-25434000Y+1096400D01*
X-25561000Y+1116720D02*
X-25608625Y+1035440D01*
X-25656250Y+1116720D01*
D21*
X-4020000Y+940000D02*
X-1537000Y+940000D01*
X-1537000Y+7990000D01*
X-25739000Y+7990000D01*
X-25739000Y+940000D01*
X-12170000Y+150000D02*
X-12170000Y+940000D01*
X-17420000Y+940000D02*
X-25739000Y+940000D01*
X-12170000Y+150000D02*
X-4020000Y+150000D01*
X-4020000Y+940000D01*
X-12720000Y+150000D02*
X-12720000Y+940000D01*
X-12170000Y+940000D01*
X-17420000Y+940000D02*
X-17420000Y+150000D01*
X-12720000Y+150000D01*
M02*
