G04 PROTEUS GERBER X2 FILE*
%TF.GenerationSoftware,Labcenter,Proteus,8.9-SP2-Build28501*%
%TF.CreationDate,2021-04-09T23:18:08+00:00*%
%TF.FileFunction,Legend,Top*%
%TF.FilePolarity,Positive*%
%TF.Part,Single*%
%TF.SameCoordinates,{17eb0ee2-30aa-48b8-b423-7eda7b5b8fc9}*%
%FSLAX45Y45*%
%MOMM*%
G01*
%TA.AperFunction,Material*%
%ADD23C,0.203200*%
%ADD24C,0.152400*%
%TA.AperFunction,Profile*%
%ADD21C,0.203200*%
%TD.AperFunction*%
D23*
X-11413000Y+4115000D02*
X-11286000Y+4115000D01*
X-11159000Y+3988000D02*
X-11133124Y+3990436D01*
X-11109152Y+3997485D01*
X-11087562Y+4008762D01*
X-11068830Y+4023878D01*
X-11053431Y+4042446D01*
X-11041842Y+4064081D01*
X-11034540Y+4088394D01*
X-11032000Y+4115000D01*
X-11159000Y+3988000D02*
X-11185606Y+3990436D01*
X-11209919Y+3997485D01*
X-11231554Y+4008762D01*
X-11250122Y+4023878D01*
X-11265238Y+4042446D01*
X-11276515Y+4064081D01*
X-11283564Y+4088394D01*
X-11286000Y+4115000D01*
X-11032000Y+4115000D02*
X-10905000Y+4115000D01*
X-11413000Y+2083000D02*
X-10905000Y+2083000D01*
X-11413000Y+4115000D02*
X-11413000Y+2083000D01*
X-10905000Y+2083000D02*
X-10905000Y+4115000D01*
X-11286000Y+4247080D02*
X-11286000Y+4170880D01*
X-11270125Y+4155640D01*
X-11206625Y+4155640D01*
X-11190750Y+4170880D01*
X-11190750Y+4247080D01*
X-11127250Y+4216600D02*
X-11095500Y+4247080D01*
X-11095500Y+4155640D01*
X-9825000Y+4115000D02*
X-9698000Y+4115000D01*
X-9571000Y+3988000D02*
X-9545124Y+3990436D01*
X-9521152Y+3997485D01*
X-9499562Y+4008762D01*
X-9480830Y+4023878D01*
X-9465431Y+4042446D01*
X-9453842Y+4064081D01*
X-9446540Y+4088394D01*
X-9444000Y+4115000D01*
X-9571000Y+3988000D02*
X-9597606Y+3990436D01*
X-9621919Y+3997485D01*
X-9643554Y+4008762D01*
X-9662122Y+4023878D01*
X-9677238Y+4042446D01*
X-9688515Y+4064081D01*
X-9695564Y+4088394D01*
X-9698000Y+4115000D01*
X-9444000Y+4115000D02*
X-9317000Y+4115000D01*
X-9825000Y+2083000D02*
X-9317000Y+2083000D01*
X-9825000Y+4115000D02*
X-9825000Y+2083000D01*
X-9317000Y+2083000D02*
X-9317000Y+4115000D01*
X-9698000Y+4247080D02*
X-9698000Y+4170880D01*
X-9682125Y+4155640D01*
X-9618625Y+4155640D01*
X-9602750Y+4170880D01*
X-9602750Y+4247080D01*
X-9555125Y+4231840D02*
X-9539250Y+4247080D01*
X-9491625Y+4247080D01*
X-9475750Y+4231840D01*
X-9475750Y+4216600D01*
X-9491625Y+4201360D01*
X-9539250Y+4201360D01*
X-9555125Y+4186120D01*
X-9555125Y+4155640D01*
X-9475750Y+4155640D01*
D24*
X-10518400Y+5172420D02*
X-9451600Y+5172420D01*
X-9451600Y+7087580D01*
X-10518400Y+7087580D01*
X-10518400Y+5172420D01*
X-9985000Y+7057100D02*
X-9954520Y+7087580D01*
X-10015480Y+7087580D02*
X-9985000Y+7057100D01*
D23*
X-10239000Y+7125680D02*
X-10239000Y+7217120D01*
X-10175500Y+7217120D01*
X-10143750Y+7186640D01*
X-10143750Y+7156160D01*
X-10175500Y+7125680D01*
X-10239000Y+7125680D01*
X-10112000Y+7140920D02*
X-10096125Y+7125680D01*
X-10032625Y+7125680D01*
X-10016750Y+7140920D01*
X-10016750Y+7156160D01*
X-10032625Y+7171400D01*
X-10096125Y+7171400D01*
X-10112000Y+7186640D01*
X-10112000Y+7201880D01*
X-10096125Y+7217120D01*
X-10032625Y+7217120D01*
X-10016750Y+7201880D01*
X-9985000Y+7217120D02*
X-9985000Y+7125680D01*
X-9937375Y+7171400D01*
X-9889750Y+7125680D01*
X-9889750Y+7217120D01*
X-9826250Y+7186640D02*
X-9794500Y+7217120D01*
X-9794500Y+7125680D01*
X-11739000Y+5380000D02*
X-11612000Y+5380000D01*
X-11612000Y+5316500D02*
X-11104000Y+5316500D01*
X-11104000Y+5443500D01*
X-11612000Y+5443500D01*
X-11612000Y+5316500D01*
X-11104000Y+5380000D02*
X-10977000Y+5380000D01*
X-11485000Y+5484140D02*
X-11485000Y+5575580D01*
X-11405625Y+5575580D01*
X-11389750Y+5560340D01*
X-11389750Y+5545100D01*
X-11405625Y+5529860D01*
X-11485000Y+5529860D01*
X-11405625Y+5529860D02*
X-11389750Y+5514620D01*
X-11389750Y+5484140D01*
X-11326250Y+5545100D02*
X-11294500Y+5575580D01*
X-11294500Y+5484140D01*
X-11739000Y+5630000D02*
X-11612000Y+5630000D01*
X-11612000Y+5566500D02*
X-11104000Y+5566500D01*
X-11104000Y+5693500D01*
X-11612000Y+5693500D01*
X-11612000Y+5566500D01*
X-11104000Y+5630000D02*
X-10977000Y+5630000D01*
X-11485000Y+5734140D02*
X-11485000Y+5825580D01*
X-11405625Y+5825580D01*
X-11389750Y+5810340D01*
X-11389750Y+5795100D01*
X-11405625Y+5779860D01*
X-11485000Y+5779860D01*
X-11405625Y+5779860D02*
X-11389750Y+5764620D01*
X-11389750Y+5734140D01*
X-11342125Y+5810340D02*
X-11326250Y+5825580D01*
X-11278625Y+5825580D01*
X-11262750Y+5810340D01*
X-11262750Y+5795100D01*
X-11278625Y+5779860D01*
X-11326250Y+5779860D01*
X-11342125Y+5764620D01*
X-11342125Y+5734140D01*
X-11262750Y+5734140D01*
X-11739000Y+5880000D02*
X-11612000Y+5880000D01*
X-11612000Y+5816500D02*
X-11104000Y+5816500D01*
X-11104000Y+5943500D01*
X-11612000Y+5943500D01*
X-11612000Y+5816500D01*
X-11104000Y+5880000D02*
X-10977000Y+5880000D01*
X-11485000Y+5984140D02*
X-11485000Y+6075580D01*
X-11405625Y+6075580D01*
X-11389750Y+6060340D01*
X-11389750Y+6045100D01*
X-11405625Y+6029860D01*
X-11485000Y+6029860D01*
X-11405625Y+6029860D02*
X-11389750Y+6014620D01*
X-11389750Y+5984140D01*
X-11342125Y+6060340D02*
X-11326250Y+6075580D01*
X-11278625Y+6075580D01*
X-11262750Y+6060340D01*
X-11262750Y+6045100D01*
X-11278625Y+6029860D01*
X-11262750Y+6014620D01*
X-11262750Y+5999380D01*
X-11278625Y+5984140D01*
X-11326250Y+5984140D01*
X-11342125Y+5999380D01*
X-11310375Y+6029860D02*
X-11278625Y+6029860D01*
X-11739000Y+6130000D02*
X-11612000Y+6130000D01*
X-11612000Y+6066500D02*
X-11104000Y+6066500D01*
X-11104000Y+6193500D01*
X-11612000Y+6193500D01*
X-11612000Y+6066500D01*
X-11104000Y+6130000D02*
X-10977000Y+6130000D01*
X-11485000Y+6234140D02*
X-11485000Y+6325580D01*
X-11405625Y+6325580D01*
X-11389750Y+6310340D01*
X-11389750Y+6295100D01*
X-11405625Y+6279860D01*
X-11485000Y+6279860D01*
X-11405625Y+6279860D02*
X-11389750Y+6264620D01*
X-11389750Y+6234140D01*
X-11262750Y+6264620D02*
X-11358000Y+6264620D01*
X-11294500Y+6325580D01*
X-11294500Y+6234140D01*
X-11739000Y+6380000D02*
X-11612000Y+6380000D01*
X-11612000Y+6316500D02*
X-11104000Y+6316500D01*
X-11104000Y+6443500D01*
X-11612000Y+6443500D01*
X-11612000Y+6316500D01*
X-11104000Y+6380000D02*
X-10977000Y+6380000D01*
X-11485000Y+6484140D02*
X-11485000Y+6575580D01*
X-11405625Y+6575580D01*
X-11389750Y+6560340D01*
X-11389750Y+6545100D01*
X-11405625Y+6529860D01*
X-11485000Y+6529860D01*
X-11405625Y+6529860D02*
X-11389750Y+6514620D01*
X-11389750Y+6484140D01*
X-11262750Y+6575580D02*
X-11342125Y+6575580D01*
X-11342125Y+6545100D01*
X-11278625Y+6545100D01*
X-11262750Y+6529860D01*
X-11262750Y+6499380D01*
X-11278625Y+6484140D01*
X-11326250Y+6484140D01*
X-11342125Y+6499380D01*
X-11739000Y+6630000D02*
X-11612000Y+6630000D01*
X-11612000Y+6566500D02*
X-11104000Y+6566500D01*
X-11104000Y+6693500D01*
X-11612000Y+6693500D01*
X-11612000Y+6566500D01*
X-11104000Y+6630000D02*
X-10977000Y+6630000D01*
X-11485000Y+6734140D02*
X-11485000Y+6825580D01*
X-11405625Y+6825580D01*
X-11389750Y+6810340D01*
X-11389750Y+6795100D01*
X-11405625Y+6779860D01*
X-11485000Y+6779860D01*
X-11405625Y+6779860D02*
X-11389750Y+6764620D01*
X-11389750Y+6734140D01*
X-11262750Y+6810340D02*
X-11278625Y+6825580D01*
X-11326250Y+6825580D01*
X-11342125Y+6810340D01*
X-11342125Y+6749380D01*
X-11326250Y+6734140D01*
X-11278625Y+6734140D01*
X-11262750Y+6749380D01*
X-11262750Y+6764620D01*
X-11278625Y+6779860D01*
X-11342125Y+6779860D01*
X-11739000Y+6880000D02*
X-11612000Y+6880000D01*
X-11612000Y+6816500D02*
X-11104000Y+6816500D01*
X-11104000Y+6943500D01*
X-11612000Y+6943500D01*
X-11612000Y+6816500D01*
X-11104000Y+6880000D02*
X-10977000Y+6880000D01*
X-11485000Y+6984140D02*
X-11485000Y+7075580D01*
X-11405625Y+7075580D01*
X-11389750Y+7060340D01*
X-11389750Y+7045100D01*
X-11405625Y+7029860D01*
X-11485000Y+7029860D01*
X-11405625Y+7029860D02*
X-11389750Y+7014620D01*
X-11389750Y+6984140D01*
X-11342125Y+7075580D02*
X-11262750Y+7075580D01*
X-11262750Y+7060340D01*
X-11342125Y+6984140D01*
X-5542000Y+7337000D02*
X-5415000Y+7337000D01*
X-5923000Y+7337000D02*
X-5796000Y+7337000D01*
X-5669000Y+7210000D02*
X-5643124Y+7212436D01*
X-5619152Y+7219485D01*
X-5597562Y+7230762D01*
X-5578830Y+7245878D01*
X-5563431Y+7264446D01*
X-5551842Y+7286081D01*
X-5544540Y+7310394D01*
X-5542000Y+7337000D01*
X-5669000Y+7210000D02*
X-5695606Y+7212436D01*
X-5719919Y+7219485D01*
X-5741554Y+7230762D01*
X-5760122Y+7245878D01*
X-5775238Y+7264446D01*
X-5786515Y+7286081D01*
X-5793564Y+7310394D01*
X-5796000Y+7337000D01*
X-5923000Y+7337000D02*
X-5923000Y+5559000D01*
X-5415000Y+5559000D01*
X-5415000Y+7337000D01*
X-5796000Y+7469080D02*
X-5796000Y+7392880D01*
X-5780125Y+7377640D01*
X-5716625Y+7377640D01*
X-5700750Y+7392880D01*
X-5700750Y+7469080D01*
X-5573750Y+7469080D02*
X-5653125Y+7469080D01*
X-5653125Y+7438600D01*
X-5589625Y+7438600D01*
X-5573750Y+7423360D01*
X-5573750Y+7392880D01*
X-5589625Y+7377640D01*
X-5637250Y+7377640D01*
X-5653125Y+7392880D01*
X-8987000Y+5676000D02*
X-8987000Y+5803000D01*
X-8987000Y+5295000D02*
X-8987000Y+5422000D01*
X-8860000Y+5549000D02*
X-8862436Y+5574876D01*
X-8869485Y+5598848D01*
X-8880762Y+5620438D01*
X-8895878Y+5639170D01*
X-8914446Y+5654569D01*
X-8936081Y+5666158D01*
X-8960394Y+5673460D01*
X-8987000Y+5676000D01*
X-8860000Y+5549000D02*
X-8862436Y+5522394D01*
X-8869485Y+5498081D01*
X-8880762Y+5476446D01*
X-8895878Y+5457878D01*
X-8914446Y+5442762D01*
X-8936081Y+5431485D01*
X-8960394Y+5424436D01*
X-8987000Y+5422000D01*
X-8987000Y+5295000D02*
X-7209000Y+5295000D01*
X-7209000Y+5803000D01*
X-8987000Y+5803000D01*
X-9119080Y+5358500D02*
X-9042880Y+5358500D01*
X-9027640Y+5374375D01*
X-9027640Y+5437875D01*
X-9042880Y+5453750D01*
X-9119080Y+5453750D01*
X-9088600Y+5517250D02*
X-9119080Y+5549000D01*
X-9027640Y+5549000D01*
X-9042880Y+5612500D02*
X-9103840Y+5612500D01*
X-9119080Y+5628375D01*
X-9119080Y+5691875D01*
X-9103840Y+5707750D01*
X-9042880Y+5707750D01*
X-9027640Y+5691875D01*
X-9027640Y+5628375D01*
X-9042880Y+5612500D01*
X-9027640Y+5612500D02*
X-9119080Y+5707750D01*
X-4335000Y+4015000D02*
X-4208000Y+4015000D01*
X-4081000Y+3888000D02*
X-4055124Y+3890436D01*
X-4031152Y+3897485D01*
X-4009562Y+3908762D01*
X-3990830Y+3923878D01*
X-3975431Y+3942446D01*
X-3963842Y+3964081D01*
X-3956540Y+3988394D01*
X-3954000Y+4015000D01*
X-4081000Y+3888000D02*
X-4107606Y+3890436D01*
X-4131919Y+3897485D01*
X-4153554Y+3908762D01*
X-4172122Y+3923878D01*
X-4187238Y+3942446D01*
X-4198515Y+3964081D01*
X-4205564Y+3988394D01*
X-4208000Y+4015000D01*
X-3954000Y+4015000D02*
X-3827000Y+4015000D01*
X-4335000Y+1983000D02*
X-3827000Y+1983000D01*
X-4335000Y+4015000D02*
X-4335000Y+1983000D01*
X-3827000Y+1983000D02*
X-3827000Y+4015000D01*
X-4208000Y+4147080D02*
X-4208000Y+4070880D01*
X-4192125Y+4055640D01*
X-4128625Y+4055640D01*
X-4112750Y+4070880D01*
X-4112750Y+4147080D01*
X-4065125Y+4131840D02*
X-4049250Y+4147080D01*
X-4001625Y+4147080D01*
X-3985750Y+4131840D01*
X-3985750Y+4116600D01*
X-4001625Y+4101360D01*
X-3985750Y+4086120D01*
X-3985750Y+4070880D01*
X-4001625Y+4055640D01*
X-4049250Y+4055640D01*
X-4065125Y+4070880D01*
X-4033375Y+4101360D02*
X-4001625Y+4101360D01*
X-3314000Y+4018000D02*
X-3187000Y+4018000D01*
X-3060000Y+3891000D02*
X-3034124Y+3893436D01*
X-3010152Y+3900485D01*
X-2988562Y+3911762D01*
X-2969830Y+3926878D01*
X-2954431Y+3945446D01*
X-2942842Y+3967081D01*
X-2935540Y+3991394D01*
X-2933000Y+4018000D01*
X-3060000Y+3891000D02*
X-3086606Y+3893436D01*
X-3110919Y+3900485D01*
X-3132554Y+3911762D01*
X-3151122Y+3926878D01*
X-3166238Y+3945446D01*
X-3177515Y+3967081D01*
X-3184564Y+3991394D01*
X-3187000Y+4018000D01*
X-2933000Y+4018000D02*
X-2806000Y+4018000D01*
X-3314000Y+1986000D02*
X-2806000Y+1986000D01*
X-3314000Y+4018000D02*
X-3314000Y+1986000D01*
X-2806000Y+1986000D02*
X-2806000Y+4018000D01*
X-3187000Y+4150080D02*
X-3187000Y+4073880D01*
X-3171125Y+4058640D01*
X-3107625Y+4058640D01*
X-3091750Y+4073880D01*
X-3091750Y+4150080D01*
X-2964750Y+4089120D02*
X-3060000Y+4089120D01*
X-2996500Y+4150080D01*
X-2996500Y+4058640D01*
X-2821000Y+6309000D02*
X-2694000Y+6309000D01*
X-3202000Y+6309000D02*
X-3075000Y+6309000D01*
X-2948000Y+6182000D02*
X-2922124Y+6184436D01*
X-2898152Y+6191485D01*
X-2876562Y+6202762D01*
X-2857830Y+6217878D01*
X-2842431Y+6236446D01*
X-2830842Y+6258081D01*
X-2823540Y+6282394D01*
X-2821000Y+6309000D01*
X-2948000Y+6182000D02*
X-2974606Y+6184436D01*
X-2998919Y+6191485D01*
X-3020554Y+6202762D01*
X-3039122Y+6217878D01*
X-3054238Y+6236446D01*
X-3065515Y+6258081D01*
X-3072564Y+6282394D01*
X-3075000Y+6309000D01*
X-3202000Y+6309000D02*
X-3202000Y+4531000D01*
X-2694000Y+4531000D01*
X-2694000Y+6309000D01*
X-3075000Y+6441080D02*
X-3075000Y+6364880D01*
X-3059125Y+6349640D01*
X-2995625Y+6349640D01*
X-2979750Y+6364880D01*
X-2979750Y+6441080D01*
X-2916250Y+6395360D02*
X-2932125Y+6410600D01*
X-2932125Y+6425840D01*
X-2916250Y+6441080D01*
X-2868625Y+6441080D01*
X-2852750Y+6425840D01*
X-2852750Y+6410600D01*
X-2868625Y+6395360D01*
X-2916250Y+6395360D01*
X-2932125Y+6380120D01*
X-2932125Y+6364880D01*
X-2916250Y+6349640D01*
X-2868625Y+6349640D01*
X-2852750Y+6364880D01*
X-2852750Y+6380120D01*
X-2868625Y+6395360D01*
X-4414000Y+6309000D02*
X-4287000Y+6309000D01*
X-4795000Y+6309000D02*
X-4668000Y+6309000D01*
X-4541000Y+6182000D02*
X-4515124Y+6184436D01*
X-4491152Y+6191485D01*
X-4469562Y+6202762D01*
X-4450830Y+6217878D01*
X-4435431Y+6236446D01*
X-4423842Y+6258081D01*
X-4416540Y+6282394D01*
X-4414000Y+6309000D01*
X-4541000Y+6182000D02*
X-4567606Y+6184436D01*
X-4591919Y+6191485D01*
X-4613554Y+6202762D01*
X-4632122Y+6217878D01*
X-4647238Y+6236446D01*
X-4658515Y+6258081D01*
X-4665564Y+6282394D01*
X-4668000Y+6309000D01*
X-4795000Y+6309000D02*
X-4795000Y+4531000D01*
X-4287000Y+4531000D01*
X-4287000Y+6309000D01*
X-4668000Y+6441080D02*
X-4668000Y+6364880D01*
X-4652125Y+6349640D01*
X-4588625Y+6349640D01*
X-4572750Y+6364880D01*
X-4572750Y+6441080D01*
X-4445750Y+6425840D02*
X-4461625Y+6441080D01*
X-4509250Y+6441080D01*
X-4525125Y+6425840D01*
X-4525125Y+6364880D01*
X-4509250Y+6349640D01*
X-4461625Y+6349640D01*
X-4445750Y+6364880D01*
X-4445750Y+6380120D01*
X-4461625Y+6395360D01*
X-4525125Y+6395360D01*
X-12745000Y+4619000D02*
X-12618000Y+4619000D01*
X-12491000Y+4492000D02*
X-12465124Y+4494436D01*
X-12441152Y+4501485D01*
X-12419562Y+4512762D01*
X-12400830Y+4527878D01*
X-12385431Y+4546446D01*
X-12373842Y+4568081D01*
X-12366540Y+4592394D01*
X-12364000Y+4619000D01*
X-12491000Y+4492000D02*
X-12517606Y+4494436D01*
X-12541919Y+4501485D01*
X-12563554Y+4512762D01*
X-12582122Y+4527878D01*
X-12597238Y+4546446D01*
X-12608515Y+4568081D01*
X-12615564Y+4592394D01*
X-12618000Y+4619000D01*
X-12364000Y+4619000D02*
X-12237000Y+4619000D01*
X-12745000Y+2079000D02*
X-12237000Y+2079000D01*
X-12745000Y+4619000D02*
X-12745000Y+2079000D01*
X-12237000Y+4619000D02*
X-12237000Y+2079000D01*
X-12681500Y+4751080D02*
X-12681500Y+4674880D01*
X-12665625Y+4659640D01*
X-12602125Y+4659640D01*
X-12586250Y+4674880D01*
X-12586250Y+4751080D01*
X-12522750Y+4720600D02*
X-12491000Y+4751080D01*
X-12491000Y+4659640D01*
X-12411625Y+4735840D02*
X-12395750Y+4751080D01*
X-12348125Y+4751080D01*
X-12332250Y+4735840D01*
X-12332250Y+4720600D01*
X-12348125Y+4705360D01*
X-12332250Y+4690120D01*
X-12332250Y+4674880D01*
X-12348125Y+4659640D01*
X-12395750Y+4659640D01*
X-12411625Y+4674880D01*
X-12379875Y+4705360D02*
X-12348125Y+4705360D01*
X-13112000Y+3097000D02*
X-13112000Y+2970000D01*
X-13175500Y+2462000D02*
X-13048500Y+2462000D01*
X-13048500Y+2970000D01*
X-13175500Y+2970000D01*
X-13175500Y+2462000D01*
X-13112000Y+2462000D02*
X-13112000Y+2335000D01*
X-13236420Y+2559000D02*
X-13327860Y+2559000D01*
X-13327860Y+2638375D01*
X-13312620Y+2654250D01*
X-13297380Y+2654250D01*
X-13282140Y+2638375D01*
X-13282140Y+2559000D01*
X-13282140Y+2638375D02*
X-13266900Y+2654250D01*
X-13236420Y+2654250D01*
X-13282140Y+2717750D02*
X-13297380Y+2701875D01*
X-13312620Y+2701875D01*
X-13327860Y+2717750D01*
X-13327860Y+2765375D01*
X-13312620Y+2781250D01*
X-13297380Y+2781250D01*
X-13282140Y+2765375D01*
X-13282140Y+2717750D01*
X-13266900Y+2701875D01*
X-13251660Y+2701875D01*
X-13236420Y+2717750D01*
X-13236420Y+2765375D01*
X-13251660Y+2781250D01*
X-13266900Y+2781250D01*
X-13282140Y+2765375D01*
X-3523000Y+7118000D02*
X-3523000Y+7245000D01*
X-2507000Y+7245000D01*
X-2507000Y+6737000D01*
X-3523000Y+6737000D01*
X-3523000Y+6864000D01*
X-3396000Y+6991000D02*
X-3398436Y+7016876D01*
X-3405485Y+7040848D01*
X-3416762Y+7062438D01*
X-3431878Y+7081170D01*
X-3450446Y+7096569D01*
X-3472081Y+7108158D01*
X-3496394Y+7115460D01*
X-3523000Y+7118000D01*
X-3396000Y+6991000D02*
X-3398436Y+6964394D01*
X-3405485Y+6940081D01*
X-3416762Y+6918446D01*
X-3431878Y+6899878D01*
X-3450446Y+6884762D01*
X-3472081Y+6873485D01*
X-3496394Y+6866436D01*
X-3523000Y+6864000D01*
X-3655080Y+6800500D02*
X-3578880Y+6800500D01*
X-3563640Y+6816375D01*
X-3563640Y+6879875D01*
X-3578880Y+6895750D01*
X-3655080Y+6895750D01*
X-3624600Y+6959250D02*
X-3655080Y+6991000D01*
X-3563640Y+6991000D01*
X-3639840Y+7070375D02*
X-3655080Y+7086250D01*
X-3655080Y+7133875D01*
X-3639840Y+7149750D01*
X-3624600Y+7149750D01*
X-3609360Y+7133875D01*
X-3609360Y+7086250D01*
X-3594120Y+7070375D01*
X-3563640Y+7070375D01*
X-3563640Y+7149750D01*
X-5001000Y+7131000D02*
X-4995920Y+7156876D01*
X-4981315Y+7180848D01*
X-4958138Y+7202438D01*
X-4927340Y+7221170D01*
X-4889875Y+7236569D01*
X-4846695Y+7248158D01*
X-4798752Y+7255460D01*
X-4747000Y+7258000D01*
X-4493000Y+7131000D02*
X-4498080Y+7156876D01*
X-4512685Y+7180848D01*
X-4535862Y+7202438D01*
X-4566660Y+7221170D01*
X-4604125Y+7236569D01*
X-4647305Y+7248158D01*
X-4695248Y+7255460D01*
X-4747000Y+7258000D01*
X-5001000Y+7131000D02*
X-4995920Y+7105124D01*
X-4981315Y+7081152D01*
X-4958138Y+7059562D01*
X-4927340Y+7040830D01*
X-4889875Y+7025431D01*
X-4846695Y+7013842D01*
X-4798752Y+7006540D01*
X-4747000Y+7004000D01*
X-4493000Y+7131000D02*
X-4498080Y+7105124D01*
X-4512685Y+7081152D01*
X-4535862Y+7059562D01*
X-4566660Y+7040830D01*
X-4604125Y+7025431D01*
X-4647305Y+7013842D01*
X-4695248Y+7006540D01*
X-4747000Y+7004000D01*
X-4778750Y+7313880D02*
X-4794625Y+7298640D01*
X-4842250Y+7298640D01*
X-4874000Y+7329120D01*
X-4874000Y+7359600D01*
X-4842250Y+7390080D01*
X-4794625Y+7390080D01*
X-4778750Y+7374840D01*
X-4731125Y+7374840D02*
X-4715250Y+7390080D01*
X-4667625Y+7390080D01*
X-4651750Y+7374840D01*
X-4651750Y+7359600D01*
X-4667625Y+7344360D01*
X-4651750Y+7329120D01*
X-4651750Y+7313880D01*
X-4667625Y+7298640D01*
X-4715250Y+7298640D01*
X-4731125Y+7313880D01*
X-4699375Y+7344360D02*
X-4667625Y+7344360D01*
X-5001000Y+6700000D02*
X-4995920Y+6725876D01*
X-4981315Y+6749848D01*
X-4958138Y+6771438D01*
X-4927340Y+6790170D01*
X-4889875Y+6805569D01*
X-4846695Y+6817158D01*
X-4798752Y+6824460D01*
X-4747000Y+6827000D01*
X-4493000Y+6700000D02*
X-4498080Y+6725876D01*
X-4512685Y+6749848D01*
X-4535862Y+6771438D01*
X-4566660Y+6790170D01*
X-4604125Y+6805569D01*
X-4647305Y+6817158D01*
X-4695248Y+6824460D01*
X-4747000Y+6827000D01*
X-5001000Y+6700000D02*
X-4995920Y+6674124D01*
X-4981315Y+6650152D01*
X-4958138Y+6628562D01*
X-4927340Y+6609830D01*
X-4889875Y+6594431D01*
X-4846695Y+6582842D01*
X-4798752Y+6575540D01*
X-4747000Y+6573000D01*
X-4493000Y+6700000D02*
X-4498080Y+6674124D01*
X-4512685Y+6650152D01*
X-4535862Y+6628562D01*
X-4566660Y+6609830D01*
X-4604125Y+6594431D01*
X-4647305Y+6582842D01*
X-4695248Y+6575540D01*
X-4747000Y+6573000D01*
X-4778750Y+6882880D02*
X-4794625Y+6867640D01*
X-4842250Y+6867640D01*
X-4874000Y+6898120D01*
X-4874000Y+6928600D01*
X-4842250Y+6959080D01*
X-4794625Y+6959080D01*
X-4778750Y+6943840D01*
X-4651750Y+6898120D02*
X-4747000Y+6898120D01*
X-4683500Y+6959080D01*
X-4683500Y+6867640D01*
X-5447000Y+7534000D02*
X-5320000Y+7534000D01*
X-5320000Y+7470500D02*
X-4812000Y+7470500D01*
X-4812000Y+7597500D01*
X-5320000Y+7597500D01*
X-5320000Y+7470500D01*
X-4812000Y+7534000D02*
X-4685000Y+7534000D01*
X-5246500Y+7668140D02*
X-5246500Y+7759580D01*
X-5167125Y+7759580D01*
X-5151250Y+7744340D01*
X-5151250Y+7729100D01*
X-5167125Y+7713860D01*
X-5246500Y+7713860D01*
X-5167125Y+7713860D02*
X-5151250Y+7698620D01*
X-5151250Y+7668140D01*
X-5087750Y+7729100D02*
X-5056000Y+7759580D01*
X-5056000Y+7668140D01*
X-4992500Y+7683380D02*
X-4992500Y+7744340D01*
X-4976625Y+7759580D01*
X-4913125Y+7759580D01*
X-4897250Y+7744340D01*
X-4897250Y+7683380D01*
X-4913125Y+7668140D01*
X-4976625Y+7668140D01*
X-4992500Y+7683380D01*
X-4992500Y+7668140D02*
X-4897250Y+7759580D01*
X-3936000Y+6581000D02*
X-3936000Y+6708000D01*
X-3999500Y+6708000D02*
X-3872500Y+6708000D01*
X-3872500Y+7216000D01*
X-3999500Y+7216000D01*
X-3999500Y+6708000D01*
X-3936000Y+7216000D02*
X-3936000Y+7343000D01*
X-4060140Y+6771500D02*
X-4151580Y+6771500D01*
X-4151580Y+6850875D01*
X-4136340Y+6866750D01*
X-4121100Y+6866750D01*
X-4105860Y+6850875D01*
X-4105860Y+6771500D01*
X-4105860Y+6850875D02*
X-4090620Y+6866750D01*
X-4060140Y+6866750D01*
X-4121100Y+6930250D02*
X-4151580Y+6962000D01*
X-4060140Y+6962000D01*
X-4121100Y+7057250D02*
X-4151580Y+7089000D01*
X-4060140Y+7089000D01*
X-6742000Y+5917000D02*
X-6742000Y+5790000D01*
X-6805500Y+5282000D02*
X-6678500Y+5282000D01*
X-6678500Y+5790000D01*
X-6805500Y+5790000D01*
X-6805500Y+5282000D01*
X-6742000Y+5282000D02*
X-6742000Y+5155000D01*
X-6856420Y+5399000D02*
X-6947860Y+5399000D01*
X-6947860Y+5478375D01*
X-6932620Y+5494250D01*
X-6917380Y+5494250D01*
X-6902140Y+5478375D01*
X-6902140Y+5399000D01*
X-6902140Y+5478375D02*
X-6886900Y+5494250D01*
X-6856420Y+5494250D01*
X-6917380Y+5621250D02*
X-6902140Y+5605375D01*
X-6902140Y+5557750D01*
X-6917380Y+5541875D01*
X-6932620Y+5541875D01*
X-6947860Y+5557750D01*
X-6947860Y+5605375D01*
X-6932620Y+5621250D01*
X-6871660Y+5621250D01*
X-6856420Y+5605375D01*
X-6856420Y+5557750D01*
X-8233000Y+2950000D02*
X-8106000Y+2950000D01*
X-8106000Y+2886500D02*
X-7598000Y+2886500D01*
X-7598000Y+3013500D01*
X-8106000Y+3013500D01*
X-8106000Y+2886500D01*
X-7598000Y+2950000D02*
X-7471000Y+2950000D01*
X-8042500Y+3054140D02*
X-8042500Y+3145580D01*
X-7963125Y+3145580D01*
X-7947250Y+3130340D01*
X-7947250Y+3115100D01*
X-7963125Y+3099860D01*
X-8042500Y+3099860D01*
X-7963125Y+3099860D02*
X-7947250Y+3084620D01*
X-7947250Y+3054140D01*
X-7899625Y+3130340D02*
X-7883750Y+3145580D01*
X-7836125Y+3145580D01*
X-7820250Y+3130340D01*
X-7820250Y+3115100D01*
X-7836125Y+3099860D01*
X-7883750Y+3099860D01*
X-7899625Y+3084620D01*
X-7899625Y+3054140D01*
X-7820250Y+3054140D01*
X-7788500Y+3069380D02*
X-7788500Y+3130340D01*
X-7772625Y+3145580D01*
X-7709125Y+3145580D01*
X-7693250Y+3130340D01*
X-7693250Y+3069380D01*
X-7709125Y+3054140D01*
X-7772625Y+3054140D01*
X-7788500Y+3069380D01*
X-7788500Y+3054140D02*
X-7693250Y+3145580D01*
X-6326000Y+1066800D02*
X-6326000Y+1219200D01*
X-6287900Y+1219200D01*
X-6268850Y+1168400D01*
X-6268850Y+1117600D01*
X-6287900Y+1066800D01*
X-6326000Y+1066800D01*
X-6249800Y+1092200D02*
X-6249800Y+1193800D01*
X-6240275Y+1219200D01*
X-6202175Y+1219200D01*
X-6192650Y+1193800D01*
X-6192650Y+1092200D01*
X-6202175Y+1066800D01*
X-6240275Y+1066800D01*
X-6249800Y+1092200D01*
X-6249800Y+1066800D02*
X-6192650Y+1219200D01*
X-6097400Y+1066800D02*
X-6097400Y+1219200D01*
X-6059300Y+1219200D01*
X-6040250Y+1168400D01*
X-6040250Y+1117600D01*
X-6059300Y+1066800D01*
X-6097400Y+1066800D01*
X-6002150Y+1168400D02*
X-5983100Y+1219200D01*
X-5983100Y+1066800D01*
X-5868800Y+1066800D02*
X-5868800Y+1219200D01*
X-5830700Y+1219200D01*
X-5811650Y+1168400D01*
X-5811650Y+1117600D01*
X-5830700Y+1066800D01*
X-5868800Y+1066800D01*
X-5783075Y+1193800D02*
X-5773550Y+1219200D01*
X-5744975Y+1219200D01*
X-5735450Y+1193800D01*
X-5735450Y+1168400D01*
X-5744975Y+1143000D01*
X-5773550Y+1143000D01*
X-5783075Y+1117600D01*
X-5783075Y+1066800D01*
X-5735450Y+1066800D01*
X-5640200Y+1066800D02*
X-5640200Y+1219200D01*
X-5602100Y+1219200D01*
X-5583050Y+1168400D01*
X-5583050Y+1117600D01*
X-5602100Y+1066800D01*
X-5640200Y+1066800D01*
X-5554475Y+1193800D02*
X-5544950Y+1219200D01*
X-5516375Y+1219200D01*
X-5506850Y+1193800D01*
X-5506850Y+1168400D01*
X-5516375Y+1143000D01*
X-5506850Y+1117600D01*
X-5506850Y+1092200D01*
X-5516375Y+1066800D01*
X-5544950Y+1066800D01*
X-5554475Y+1092200D01*
X-5535425Y+1143000D02*
X-5516375Y+1143000D01*
X-5317000Y+1065800D02*
X-5317000Y+1218200D01*
X-5278900Y+1218200D01*
X-5259850Y+1167400D01*
X-5259850Y+1116600D01*
X-5278900Y+1065800D01*
X-5317000Y+1065800D01*
X-5183650Y+1116600D02*
X-5240800Y+1116600D01*
X-5202700Y+1218200D01*
X-5202700Y+1065800D01*
X-5088400Y+1065800D02*
X-5088400Y+1218200D01*
X-5050300Y+1218200D01*
X-5031250Y+1167400D01*
X-5031250Y+1116600D01*
X-5050300Y+1065800D01*
X-5088400Y+1065800D01*
X-4955050Y+1218200D02*
X-5002675Y+1218200D01*
X-5002675Y+1167400D01*
X-4964575Y+1167400D01*
X-4955050Y+1142000D01*
X-4955050Y+1091200D01*
X-4964575Y+1065800D01*
X-4993150Y+1065800D01*
X-5002675Y+1091200D01*
X-4859800Y+1065800D02*
X-4859800Y+1218200D01*
X-4821700Y+1218200D01*
X-4802650Y+1167400D01*
X-4802650Y+1116600D01*
X-4821700Y+1065800D01*
X-4859800Y+1065800D01*
X-4726450Y+1192800D02*
X-4735975Y+1218200D01*
X-4764550Y+1218200D01*
X-4774075Y+1192800D01*
X-4774075Y+1091200D01*
X-4764550Y+1065800D01*
X-4735975Y+1065800D01*
X-4726450Y+1091200D01*
X-4726450Y+1116600D01*
X-4735975Y+1142000D01*
X-4774075Y+1142000D01*
X-4631200Y+1065800D02*
X-4631200Y+1218200D01*
X-4593100Y+1218200D01*
X-4574050Y+1167400D01*
X-4574050Y+1116600D01*
X-4593100Y+1065800D01*
X-4631200Y+1065800D01*
X-4545475Y+1218200D02*
X-4497850Y+1218200D01*
X-4497850Y+1192800D01*
X-4545475Y+1065800D01*
X-8725000Y+1889000D02*
X-8471000Y+1889000D01*
X-8471000Y+2397000D01*
X-8725000Y+2397000D01*
X-8725000Y+1889000D01*
X-8542120Y+2460500D02*
X-8526880Y+2460500D01*
X-8511640Y+2476375D01*
X-8511640Y+2539875D01*
X-8526880Y+2555750D01*
X-8603080Y+2555750D01*
X-8511640Y+2587500D02*
X-8603080Y+2587500D01*
X-8603080Y+2666875D01*
X-8587840Y+2682750D01*
X-8572600Y+2682750D01*
X-8557360Y+2666875D01*
X-8557360Y+2587500D01*
X-8572600Y+2746250D02*
X-8603080Y+2778000D01*
X-8511640Y+2778000D01*
X-8471000Y+1889000D02*
X-8217000Y+1889000D01*
X-8217000Y+2397000D01*
X-8471000Y+2397000D01*
X-8471000Y+1889000D01*
X-8288120Y+2460500D02*
X-8272880Y+2460500D01*
X-8257640Y+2476375D01*
X-8257640Y+2539875D01*
X-8272880Y+2555750D01*
X-8349080Y+2555750D01*
X-8257640Y+2587500D02*
X-8349080Y+2587500D01*
X-8349080Y+2666875D01*
X-8333840Y+2682750D01*
X-8318600Y+2682750D01*
X-8303360Y+2666875D01*
X-8303360Y+2587500D01*
X-8333840Y+2730375D02*
X-8349080Y+2746250D01*
X-8349080Y+2793875D01*
X-8333840Y+2809750D01*
X-8318600Y+2809750D01*
X-8303360Y+2793875D01*
X-8303360Y+2746250D01*
X-8288120Y+2730375D01*
X-8257640Y+2730375D01*
X-8257640Y+2809750D01*
X-8217000Y+1889000D02*
X-7963000Y+1889000D01*
X-7963000Y+2397000D01*
X-8217000Y+2397000D01*
X-8217000Y+1889000D01*
X-8034120Y+2460500D02*
X-8018880Y+2460500D01*
X-8003640Y+2476375D01*
X-8003640Y+2539875D01*
X-8018880Y+2555750D01*
X-8095080Y+2555750D01*
X-8003640Y+2587500D02*
X-8095080Y+2587500D01*
X-8095080Y+2666875D01*
X-8079840Y+2682750D01*
X-8064600Y+2682750D01*
X-8049360Y+2666875D01*
X-8049360Y+2587500D01*
X-8079840Y+2730375D02*
X-8095080Y+2746250D01*
X-8095080Y+2793875D01*
X-8079840Y+2809750D01*
X-8064600Y+2809750D01*
X-8049360Y+2793875D01*
X-8034120Y+2809750D01*
X-8018880Y+2809750D01*
X-8003640Y+2793875D01*
X-8003640Y+2746250D01*
X-8018880Y+2730375D01*
X-8049360Y+2762125D02*
X-8049360Y+2793875D01*
X-8888000Y+1561800D02*
X-8888000Y+1549100D01*
X-8875300Y+1536400D01*
X-8824500Y+1536400D01*
X-8811800Y+1549100D01*
X-8811800Y+1612600D01*
X-8786400Y+1536400D02*
X-8786400Y+1612600D01*
X-8722900Y+1612600D01*
X-8710200Y+1599900D01*
X-8710200Y+1587200D01*
X-8722900Y+1574500D01*
X-8786400Y+1574500D01*
X-8659400Y+1587200D02*
X-8634000Y+1612600D01*
X-8634000Y+1536400D01*
X-8468900Y+1574500D02*
X-8405400Y+1574500D01*
X-8265700Y+1612600D02*
X-8214900Y+1612600D01*
X-8240300Y+1612600D02*
X-8240300Y+1536400D01*
X-8265700Y+1536400D02*
X-8214900Y+1536400D01*
X-8176800Y+1536400D02*
X-8176800Y+1612600D01*
X-8113300Y+1612600D01*
X-8100600Y+1599900D01*
X-8100600Y+1587200D01*
X-8113300Y+1574500D01*
X-8176800Y+1574500D01*
X-8113300Y+1574500D02*
X-8100600Y+1561800D01*
X-8100600Y+1536400D01*
X-8075200Y+1587200D02*
X-8049800Y+1612600D01*
X-8024400Y+1612600D01*
X-7999000Y+1587200D01*
X-7999000Y+1561800D01*
X-8024400Y+1536400D01*
X-8049800Y+1536400D01*
X-8075200Y+1561800D01*
X-8075200Y+1587200D01*
X-8024400Y+1561800D02*
X-7999000Y+1536400D01*
X-7960900Y+1599900D02*
X-7948200Y+1612600D01*
X-7910100Y+1612600D01*
X-7897400Y+1599900D01*
X-7897400Y+1587200D01*
X-7910100Y+1574500D01*
X-7897400Y+1561800D01*
X-7897400Y+1549100D01*
X-7910100Y+1536400D01*
X-7948200Y+1536400D01*
X-7960900Y+1549100D01*
X-7935500Y+1574500D02*
X-7910100Y+1574500D01*
X-8886000Y+1437800D02*
X-8886000Y+1425100D01*
X-8873300Y+1412400D01*
X-8822500Y+1412400D01*
X-8809800Y+1425100D01*
X-8809800Y+1488600D01*
X-8784400Y+1412400D02*
X-8784400Y+1488600D01*
X-8720900Y+1488600D01*
X-8708200Y+1475900D01*
X-8708200Y+1463200D01*
X-8720900Y+1450500D01*
X-8784400Y+1450500D01*
X-8670100Y+1475900D02*
X-8657400Y+1488600D01*
X-8619300Y+1488600D01*
X-8606600Y+1475900D01*
X-8606600Y+1463200D01*
X-8619300Y+1450500D01*
X-8657400Y+1450500D01*
X-8670100Y+1437800D01*
X-8670100Y+1412400D01*
X-8606600Y+1412400D01*
X-8466900Y+1450500D02*
X-8403400Y+1450500D01*
X-8263700Y+1488600D02*
X-8212900Y+1488600D01*
X-8238300Y+1488600D02*
X-8238300Y+1412400D01*
X-8263700Y+1412400D02*
X-8212900Y+1412400D01*
X-8174800Y+1412400D02*
X-8174800Y+1488600D01*
X-8111300Y+1488600D01*
X-8098600Y+1475900D01*
X-8098600Y+1463200D01*
X-8111300Y+1450500D01*
X-8174800Y+1450500D01*
X-8111300Y+1450500D02*
X-8098600Y+1437800D01*
X-8098600Y+1412400D01*
X-8073200Y+1463200D02*
X-8047800Y+1488600D01*
X-8022400Y+1488600D01*
X-7997000Y+1463200D01*
X-7997000Y+1437800D01*
X-8022400Y+1412400D01*
X-8047800Y+1412400D01*
X-8073200Y+1437800D01*
X-8073200Y+1463200D01*
X-8022400Y+1437800D02*
X-7997000Y+1412400D01*
X-7895400Y+1437800D02*
X-7971600Y+1437800D01*
X-7920800Y+1488600D01*
X-7920800Y+1412400D01*
X-8888000Y+1313800D02*
X-8888000Y+1301100D01*
X-8875300Y+1288400D01*
X-8824500Y+1288400D01*
X-8811800Y+1301100D01*
X-8811800Y+1364600D01*
X-8786400Y+1288400D02*
X-8786400Y+1364600D01*
X-8722900Y+1364600D01*
X-8710200Y+1351900D01*
X-8710200Y+1339200D01*
X-8722900Y+1326500D01*
X-8786400Y+1326500D01*
X-8672100Y+1351900D02*
X-8659400Y+1364600D01*
X-8621300Y+1364600D01*
X-8608600Y+1351900D01*
X-8608600Y+1339200D01*
X-8621300Y+1326500D01*
X-8608600Y+1313800D01*
X-8608600Y+1301100D01*
X-8621300Y+1288400D01*
X-8659400Y+1288400D01*
X-8672100Y+1301100D01*
X-8646700Y+1326500D02*
X-8621300Y+1326500D01*
X-8468900Y+1326500D02*
X-8405400Y+1326500D01*
X-8265700Y+1364600D02*
X-8214900Y+1364600D01*
X-8240300Y+1364600D02*
X-8240300Y+1288400D01*
X-8265700Y+1288400D02*
X-8214900Y+1288400D01*
X-8176800Y+1288400D02*
X-8176800Y+1364600D01*
X-8113300Y+1364600D01*
X-8100600Y+1351900D01*
X-8100600Y+1339200D01*
X-8113300Y+1326500D01*
X-8176800Y+1326500D01*
X-8113300Y+1326500D02*
X-8100600Y+1313800D01*
X-8100600Y+1288400D01*
X-8075200Y+1339200D02*
X-8049800Y+1364600D01*
X-8024400Y+1364600D01*
X-7999000Y+1339200D01*
X-7999000Y+1313800D01*
X-8024400Y+1288400D01*
X-8049800Y+1288400D01*
X-8075200Y+1313800D01*
X-8075200Y+1339200D01*
X-8024400Y+1313800D02*
X-7999000Y+1288400D01*
X-7897400Y+1364600D02*
X-7960900Y+1364600D01*
X-7960900Y+1339200D01*
X-7910100Y+1339200D01*
X-7897400Y+1326500D01*
X-7897400Y+1301100D01*
X-7910100Y+1288400D01*
X-7948200Y+1288400D01*
X-7960900Y+1301100D01*
X-6973000Y+1074400D02*
X-6973000Y+1125200D01*
X-6947600Y+1150600D01*
X-6922200Y+1150600D01*
X-6896800Y+1125200D01*
X-6896800Y+1074400D01*
X-6973000Y+1099800D02*
X-6896800Y+1099800D01*
X-6795200Y+1074400D02*
X-6871400Y+1074400D01*
X-6871400Y+1150600D01*
X-6795200Y+1150600D01*
X-6871400Y+1112500D02*
X-6820600Y+1112500D01*
X-6769800Y+1074400D02*
X-6769800Y+1150600D01*
X-6693600Y+1074400D01*
X-6693600Y+1150600D01*
X-11164000Y+1079800D02*
X-11164000Y+1181400D01*
X-11144950Y+1232200D01*
X-11125900Y+1232200D01*
X-11106850Y+1181400D01*
X-11106850Y+1079800D01*
X-11164000Y+1130600D02*
X-11106850Y+1130600D01*
X-11078275Y+1206800D02*
X-11068750Y+1232200D01*
X-11040175Y+1232200D01*
X-11030650Y+1206800D01*
X-11030650Y+1181400D01*
X-11040175Y+1156000D01*
X-11030650Y+1130600D01*
X-11030650Y+1105200D01*
X-11040175Y+1079800D01*
X-11068750Y+1079800D01*
X-11078275Y+1105200D01*
X-11059225Y+1156000D02*
X-11040175Y+1156000D01*
X-10935400Y+1079800D02*
X-10935400Y+1181400D01*
X-10916350Y+1232200D01*
X-10897300Y+1232200D01*
X-10878250Y+1181400D01*
X-10878250Y+1079800D01*
X-10935400Y+1130600D02*
X-10878250Y+1130600D01*
X-10802050Y+1130600D02*
X-10859200Y+1130600D01*
X-10821100Y+1232200D01*
X-10821100Y+1079800D01*
X-10706800Y+1079800D02*
X-10706800Y+1181400D01*
X-10687750Y+1232200D01*
X-10668700Y+1232200D01*
X-10649650Y+1181400D01*
X-10649650Y+1079800D01*
X-10706800Y+1130600D02*
X-10649650Y+1130600D01*
X-10573450Y+1232200D02*
X-10621075Y+1232200D01*
X-10621075Y+1181400D01*
X-10582975Y+1181400D01*
X-10573450Y+1156000D01*
X-10573450Y+1105200D01*
X-10582975Y+1079800D01*
X-10611550Y+1079800D01*
X-10621075Y+1105200D01*
X-10478200Y+1079800D02*
X-10478200Y+1181400D01*
X-10459150Y+1232200D01*
X-10440100Y+1232200D01*
X-10421050Y+1181400D01*
X-10421050Y+1079800D01*
X-10478200Y+1130600D02*
X-10421050Y+1130600D01*
X-10344850Y+1206800D02*
X-10354375Y+1232200D01*
X-10382950Y+1232200D01*
X-10392475Y+1206800D01*
X-10392475Y+1105200D01*
X-10382950Y+1079800D01*
X-10354375Y+1079800D01*
X-10344850Y+1105200D01*
X-10344850Y+1130600D01*
X-10354375Y+1156000D01*
X-10392475Y+1156000D01*
X-10167000Y+1079800D02*
X-10167000Y+1181400D01*
X-10147950Y+1232200D01*
X-10128900Y+1232200D01*
X-10109850Y+1181400D01*
X-10109850Y+1079800D01*
X-10167000Y+1130600D02*
X-10109850Y+1130600D01*
X-10081275Y+1232200D02*
X-10033650Y+1232200D01*
X-10033650Y+1206800D01*
X-10081275Y+1079800D01*
X-9938400Y+1079800D02*
X-9938400Y+1181400D01*
X-9919350Y+1232200D01*
X-9900300Y+1232200D01*
X-9881250Y+1181400D01*
X-9881250Y+1079800D01*
X-9938400Y+1130600D02*
X-9881250Y+1130600D01*
X-9843150Y+1156000D02*
X-9852675Y+1181400D01*
X-9852675Y+1206800D01*
X-9843150Y+1232200D01*
X-9814575Y+1232200D01*
X-9805050Y+1206800D01*
X-9805050Y+1181400D01*
X-9814575Y+1156000D01*
X-9843150Y+1156000D01*
X-9852675Y+1130600D01*
X-9852675Y+1105200D01*
X-9843150Y+1079800D01*
X-9814575Y+1079800D01*
X-9805050Y+1105200D01*
X-9805050Y+1130600D01*
X-9814575Y+1156000D01*
X-9709800Y+1079800D02*
X-9709800Y+1181400D01*
X-9690750Y+1232200D01*
X-9671700Y+1232200D01*
X-9652650Y+1181400D01*
X-9652650Y+1079800D01*
X-9709800Y+1130600D02*
X-9652650Y+1130600D01*
X-9576450Y+1181400D02*
X-9585975Y+1156000D01*
X-9614550Y+1156000D01*
X-9624075Y+1181400D01*
X-9624075Y+1206800D01*
X-9614550Y+1232200D01*
X-9585975Y+1232200D01*
X-9576450Y+1206800D01*
X-9576450Y+1105200D01*
X-9585975Y+1079800D01*
X-9614550Y+1079800D01*
X-11965000Y+1060800D02*
X-11965000Y+1162400D01*
X-11945950Y+1213200D01*
X-11926900Y+1213200D01*
X-11907850Y+1162400D01*
X-11907850Y+1060800D01*
X-11965000Y+1111600D02*
X-11907850Y+1111600D01*
X-11888800Y+1086200D02*
X-11888800Y+1187800D01*
X-11879275Y+1213200D01*
X-11841175Y+1213200D01*
X-11831650Y+1187800D01*
X-11831650Y+1086200D01*
X-11841175Y+1060800D01*
X-11879275Y+1060800D01*
X-11888800Y+1086200D01*
X-11888800Y+1060800D02*
X-11831650Y+1213200D01*
X-13113000Y+1770000D02*
X-13113827Y+1790483D01*
X-13120545Y+1831450D01*
X-13134563Y+1872417D01*
X-13157341Y+1913384D01*
X-13192141Y+1954229D01*
X-13233108Y+1985845D01*
X-13274075Y+2006392D01*
X-13315042Y+2018629D01*
X-13356009Y+2023762D01*
X-13367000Y+2024000D01*
X-13621000Y+1770000D02*
X-13620173Y+1790483D01*
X-13613455Y+1831450D01*
X-13599437Y+1872417D01*
X-13576659Y+1913384D01*
X-13541859Y+1954229D01*
X-13500892Y+1985845D01*
X-13459925Y+2006392D01*
X-13418958Y+2018629D01*
X-13377991Y+2023762D01*
X-13367000Y+2024000D01*
X-13621000Y+1770000D02*
X-13620173Y+1749517D01*
X-13613455Y+1708550D01*
X-13599437Y+1667583D01*
X-13576659Y+1626616D01*
X-13541859Y+1585771D01*
X-13500892Y+1554155D01*
X-13459925Y+1533608D01*
X-13418958Y+1521371D01*
X-13377991Y+1516238D01*
X-13367000Y+1516000D01*
X-13113000Y+1770000D02*
X-13113827Y+1749517D01*
X-13120545Y+1708550D01*
X-13134563Y+1667583D01*
X-13157341Y+1626616D01*
X-13192141Y+1585771D01*
X-13233108Y+1554155D01*
X-13274075Y+1533608D01*
X-13315042Y+1521371D01*
X-13356009Y+1516238D01*
X-13367000Y+1516000D01*
X-13557500Y+1897000D02*
X-13430500Y+1897000D01*
X-13494000Y+1960500D02*
X-13494000Y+1833500D01*
X-13398750Y+2079880D02*
X-13414625Y+2064640D01*
X-13462250Y+2064640D01*
X-13494000Y+2095120D01*
X-13494000Y+2125600D01*
X-13462250Y+2156080D01*
X-13414625Y+2156080D01*
X-13398750Y+2140840D01*
X-13351125Y+2140840D02*
X-13335250Y+2156080D01*
X-13287625Y+2156080D01*
X-13271750Y+2140840D01*
X-13271750Y+2125600D01*
X-13287625Y+2110360D01*
X-13335250Y+2110360D01*
X-13351125Y+2095120D01*
X-13351125Y+2064640D01*
X-13271750Y+2064640D01*
X-7641000Y+7140000D02*
X-7635920Y+7165876D01*
X-7621315Y+7189848D01*
X-7598138Y+7211438D01*
X-7567340Y+7230170D01*
X-7529875Y+7245569D01*
X-7486695Y+7257158D01*
X-7438752Y+7264460D01*
X-7387000Y+7267000D01*
X-7133000Y+7140000D02*
X-7138080Y+7165876D01*
X-7152685Y+7189848D01*
X-7175862Y+7211438D01*
X-7206660Y+7230170D01*
X-7244125Y+7245569D01*
X-7287305Y+7257158D01*
X-7335248Y+7264460D01*
X-7387000Y+7267000D01*
X-7641000Y+7140000D02*
X-7635920Y+7114124D01*
X-7621315Y+7090152D01*
X-7598138Y+7068562D01*
X-7567340Y+7049830D01*
X-7529875Y+7034431D01*
X-7486695Y+7022842D01*
X-7438752Y+7015540D01*
X-7387000Y+7013000D01*
X-7133000Y+7140000D02*
X-7138080Y+7114124D01*
X-7152685Y+7090152D01*
X-7175862Y+7068562D01*
X-7206660Y+7049830D01*
X-7244125Y+7034431D01*
X-7287305Y+7022842D01*
X-7335248Y+7015540D01*
X-7387000Y+7013000D01*
X-7418750Y+7322880D02*
X-7434625Y+7307640D01*
X-7482250Y+7307640D01*
X-7514000Y+7338120D01*
X-7514000Y+7368600D01*
X-7482250Y+7399080D01*
X-7434625Y+7399080D01*
X-7418750Y+7383840D01*
X-7291750Y+7399080D02*
X-7371125Y+7399080D01*
X-7371125Y+7368600D01*
X-7307625Y+7368600D01*
X-7291750Y+7353360D01*
X-7291750Y+7322880D01*
X-7307625Y+7307640D01*
X-7355250Y+7307640D01*
X-7371125Y+7322880D01*
X-6967000Y+7140000D02*
X-6961920Y+7165876D01*
X-6947315Y+7189848D01*
X-6924138Y+7211438D01*
X-6893340Y+7230170D01*
X-6855875Y+7245569D01*
X-6812695Y+7257158D01*
X-6764752Y+7264460D01*
X-6713000Y+7267000D01*
X-6459000Y+7140000D02*
X-6464080Y+7165876D01*
X-6478685Y+7189848D01*
X-6501862Y+7211438D01*
X-6532660Y+7230170D01*
X-6570125Y+7245569D01*
X-6613305Y+7257158D01*
X-6661248Y+7264460D01*
X-6713000Y+7267000D01*
X-6967000Y+7140000D02*
X-6961920Y+7114124D01*
X-6947315Y+7090152D01*
X-6924138Y+7068562D01*
X-6893340Y+7049830D01*
X-6855875Y+7034431D01*
X-6812695Y+7022842D01*
X-6764752Y+7015540D01*
X-6713000Y+7013000D01*
X-6459000Y+7140000D02*
X-6464080Y+7114124D01*
X-6478685Y+7090152D01*
X-6501862Y+7068562D01*
X-6532660Y+7049830D01*
X-6570125Y+7034431D01*
X-6613305Y+7022842D01*
X-6661248Y+7015540D01*
X-6713000Y+7013000D01*
X-6744750Y+7322880D02*
X-6760625Y+7307640D01*
X-6808250Y+7307640D01*
X-6840000Y+7338120D01*
X-6840000Y+7368600D01*
X-6808250Y+7399080D01*
X-6760625Y+7399080D01*
X-6744750Y+7383840D01*
X-6617750Y+7383840D02*
X-6633625Y+7399080D01*
X-6681250Y+7399080D01*
X-6697125Y+7383840D01*
X-6697125Y+7322880D01*
X-6681250Y+7307640D01*
X-6633625Y+7307640D01*
X-6617750Y+7322880D01*
X-6617750Y+7338120D01*
X-6633625Y+7353360D01*
X-6697125Y+7353360D01*
X-14323000Y+6370000D02*
X-14323827Y+6390483D01*
X-14330545Y+6431450D01*
X-14344563Y+6472417D01*
X-14367341Y+6513384D01*
X-14402141Y+6554229D01*
X-14443108Y+6585845D01*
X-14484075Y+6606392D01*
X-14525042Y+6618629D01*
X-14566009Y+6623762D01*
X-14577000Y+6624000D01*
X-14831000Y+6370000D02*
X-14830173Y+6390483D01*
X-14823455Y+6431450D01*
X-14809437Y+6472417D01*
X-14786659Y+6513384D01*
X-14751859Y+6554229D01*
X-14710892Y+6585845D01*
X-14669925Y+6606392D01*
X-14628958Y+6618629D01*
X-14587991Y+6623762D01*
X-14577000Y+6624000D01*
X-14831000Y+6370000D02*
X-14830173Y+6349517D01*
X-14823455Y+6308550D01*
X-14809437Y+6267583D01*
X-14786659Y+6226616D01*
X-14751859Y+6185771D01*
X-14710892Y+6154155D01*
X-14669925Y+6133608D01*
X-14628958Y+6121371D01*
X-14587991Y+6116238D01*
X-14577000Y+6116000D01*
X-14323000Y+6370000D02*
X-14323827Y+6349517D01*
X-14330545Y+6308550D01*
X-14344563Y+6267583D01*
X-14367341Y+6226616D01*
X-14402141Y+6185771D01*
X-14443108Y+6154155D01*
X-14484075Y+6133608D01*
X-14525042Y+6121371D01*
X-14566009Y+6116238D01*
X-14577000Y+6116000D01*
X-14767500Y+6497000D02*
X-14640500Y+6497000D01*
X-14704000Y+6560500D02*
X-14704000Y+6433500D01*
X-14608750Y+6679880D02*
X-14624625Y+6664640D01*
X-14672250Y+6664640D01*
X-14704000Y+6695120D01*
X-14704000Y+6725600D01*
X-14672250Y+6756080D01*
X-14624625Y+6756080D01*
X-14608750Y+6740840D01*
X-14561125Y+6756080D02*
X-14481750Y+6756080D01*
X-14481750Y+6740840D01*
X-14561125Y+6664640D01*
X-14323000Y+5480000D02*
X-14323827Y+5500483D01*
X-14330545Y+5541450D01*
X-14344563Y+5582417D01*
X-14367341Y+5623384D01*
X-14402141Y+5664229D01*
X-14443108Y+5695845D01*
X-14484075Y+5716392D01*
X-14525042Y+5728629D01*
X-14566009Y+5733762D01*
X-14577000Y+5734000D01*
X-14831000Y+5480000D02*
X-14830173Y+5500483D01*
X-14823455Y+5541450D01*
X-14809437Y+5582417D01*
X-14786659Y+5623384D01*
X-14751859Y+5664229D01*
X-14710892Y+5695845D01*
X-14669925Y+5716392D01*
X-14628958Y+5728629D01*
X-14587991Y+5733762D01*
X-14577000Y+5734000D01*
X-14831000Y+5480000D02*
X-14830173Y+5459517D01*
X-14823455Y+5418550D01*
X-14809437Y+5377583D01*
X-14786659Y+5336616D01*
X-14751859Y+5295771D01*
X-14710892Y+5264155D01*
X-14669925Y+5243608D01*
X-14628958Y+5231371D01*
X-14587991Y+5226238D01*
X-14577000Y+5226000D01*
X-14323000Y+5480000D02*
X-14323827Y+5459517D01*
X-14330545Y+5418550D01*
X-14344563Y+5377583D01*
X-14367341Y+5336616D01*
X-14402141Y+5295771D01*
X-14443108Y+5264155D01*
X-14484075Y+5243608D01*
X-14525042Y+5231371D01*
X-14566009Y+5226238D01*
X-14577000Y+5226000D01*
X-14767500Y+5607000D02*
X-14640500Y+5607000D01*
X-14704000Y+5670500D02*
X-14704000Y+5543500D01*
X-14608750Y+5789880D02*
X-14624625Y+5774640D01*
X-14672250Y+5774640D01*
X-14704000Y+5805120D01*
X-14704000Y+5835600D01*
X-14672250Y+5866080D01*
X-14624625Y+5866080D01*
X-14608750Y+5850840D01*
X-14545250Y+5835600D02*
X-14513500Y+5866080D01*
X-14513500Y+5774640D01*
X-5413000Y+5170000D02*
X-5413827Y+5190483D01*
X-5420545Y+5231450D01*
X-5434563Y+5272417D01*
X-5457341Y+5313384D01*
X-5492141Y+5354229D01*
X-5533108Y+5385845D01*
X-5574075Y+5406392D01*
X-5615042Y+5418629D01*
X-5656009Y+5423762D01*
X-5667000Y+5424000D01*
X-5921000Y+5170000D02*
X-5920173Y+5190483D01*
X-5913455Y+5231450D01*
X-5899437Y+5272417D01*
X-5876659Y+5313384D01*
X-5841859Y+5354229D01*
X-5800892Y+5385845D01*
X-5759925Y+5406392D01*
X-5718958Y+5418629D01*
X-5677991Y+5423762D01*
X-5667000Y+5424000D01*
X-5921000Y+5170000D02*
X-5920173Y+5149517D01*
X-5913455Y+5108550D01*
X-5899437Y+5067583D01*
X-5876659Y+5026616D01*
X-5841859Y+4985771D01*
X-5800892Y+4954155D01*
X-5759925Y+4933608D01*
X-5718958Y+4921371D01*
X-5677991Y+4916238D01*
X-5667000Y+4916000D01*
X-5413000Y+5170000D02*
X-5413827Y+5149517D01*
X-5420545Y+5108550D01*
X-5434563Y+5067583D01*
X-5457341Y+5026616D01*
X-5492141Y+4985771D01*
X-5533108Y+4954155D01*
X-5574075Y+4933608D01*
X-5615042Y+4921371D01*
X-5656009Y+4916238D01*
X-5667000Y+4916000D01*
X-5857500Y+5297000D02*
X-5730500Y+5297000D01*
X-5794000Y+5360500D02*
X-5794000Y+5233500D01*
X-5698750Y+5479880D02*
X-5714625Y+5464640D01*
X-5762250Y+5464640D01*
X-5794000Y+5495120D01*
X-5794000Y+5525600D01*
X-5762250Y+5556080D01*
X-5714625Y+5556080D01*
X-5698750Y+5540840D01*
X-5635250Y+5510360D02*
X-5651125Y+5525600D01*
X-5651125Y+5540840D01*
X-5635250Y+5556080D01*
X-5587625Y+5556080D01*
X-5571750Y+5540840D01*
X-5571750Y+5525600D01*
X-5587625Y+5510360D01*
X-5635250Y+5510360D01*
X-5651125Y+5495120D01*
X-5651125Y+5479880D01*
X-5635250Y+5464640D01*
X-5587625Y+5464640D01*
X-5571750Y+5479880D01*
X-5571750Y+5495120D01*
X-5587625Y+5510360D01*
X-14173500Y+4170200D02*
X-14046500Y+4170200D01*
X-14173500Y+4170200D02*
X-14110000Y+4297200D01*
X-14046500Y+4170200D02*
X-14110000Y+4297200D01*
X-14173500Y+4297200D02*
X-14046500Y+4297200D01*
X-14110000Y+3967000D02*
X-14110000Y+4170200D01*
X-14110000Y+4297200D02*
X-14110000Y+4475000D01*
X-14214140Y+4094000D02*
X-14305580Y+4094000D01*
X-14305580Y+4157500D01*
X-14275100Y+4189250D01*
X-14244620Y+4189250D01*
X-14214140Y+4157500D01*
X-14214140Y+4094000D01*
X-14275100Y+4252750D02*
X-14305580Y+4284500D01*
X-14214140Y+4284500D01*
X-13733500Y+4168200D02*
X-13606500Y+4168200D01*
X-13733500Y+4168200D02*
X-13670000Y+4295200D01*
X-13606500Y+4168200D02*
X-13670000Y+4295200D01*
X-13733500Y+4295200D02*
X-13606500Y+4295200D01*
X-13670000Y+3965000D02*
X-13670000Y+4168200D01*
X-13670000Y+4295200D02*
X-13670000Y+4473000D01*
X-13774140Y+4092000D02*
X-13865580Y+4092000D01*
X-13865580Y+4155500D01*
X-13835100Y+4187250D01*
X-13804620Y+4187250D01*
X-13774140Y+4155500D01*
X-13774140Y+4092000D01*
X-13850340Y+4234875D02*
X-13865580Y+4250750D01*
X-13865580Y+4298375D01*
X-13850340Y+4314250D01*
X-13835100Y+4314250D01*
X-13819860Y+4298375D01*
X-13819860Y+4250750D01*
X-13804620Y+4234875D01*
X-13774140Y+4234875D01*
X-13774140Y+4314250D01*
X-12206500Y+7179800D02*
X-12333500Y+7179800D01*
X-12206500Y+7179800D02*
X-12270000Y+7052800D01*
X-12333500Y+7179800D02*
X-12270000Y+7052800D01*
X-12206500Y+7052800D02*
X-12333500Y+7052800D01*
X-12270000Y+7383000D02*
X-12270000Y+7179800D01*
X-12270000Y+7052800D02*
X-12270000Y+6875000D01*
X-12074420Y+7002000D02*
X-12165860Y+7002000D01*
X-12165860Y+7065500D01*
X-12135380Y+7097250D01*
X-12104900Y+7097250D01*
X-12074420Y+7065500D01*
X-12074420Y+7002000D01*
X-12150620Y+7144875D02*
X-12165860Y+7160750D01*
X-12165860Y+7208375D01*
X-12150620Y+7224250D01*
X-12135380Y+7224250D01*
X-12120140Y+7208375D01*
X-12104900Y+7224250D01*
X-12089660Y+7224250D01*
X-12074420Y+7208375D01*
X-12074420Y+7160750D01*
X-12089660Y+7144875D01*
X-12120140Y+7176625D02*
X-12120140Y+7208375D01*
X-12116000Y+6159000D02*
X-12116827Y+6179483D01*
X-12123545Y+6220450D01*
X-12137563Y+6261417D01*
X-12160341Y+6302384D01*
X-12195141Y+6343229D01*
X-12236108Y+6374845D01*
X-12277075Y+6395392D01*
X-12318042Y+6407629D01*
X-12359009Y+6412762D01*
X-12370000Y+6413000D01*
X-12624000Y+6159000D02*
X-12623173Y+6179483D01*
X-12616455Y+6220450D01*
X-12602437Y+6261417D01*
X-12579659Y+6302384D01*
X-12544859Y+6343229D01*
X-12503892Y+6374845D01*
X-12462925Y+6395392D01*
X-12421958Y+6407629D01*
X-12380991Y+6412762D01*
X-12370000Y+6413000D01*
X-12624000Y+6159000D02*
X-12623173Y+6138517D01*
X-12616455Y+6097550D01*
X-12602437Y+6056583D01*
X-12579659Y+6015616D01*
X-12544859Y+5974771D01*
X-12503892Y+5943155D01*
X-12462925Y+5922608D01*
X-12421958Y+5910371D01*
X-12380991Y+5905238D01*
X-12370000Y+5905000D01*
X-12116000Y+6159000D02*
X-12116827Y+6138517D01*
X-12123545Y+6097550D01*
X-12137563Y+6056583D01*
X-12160341Y+6015616D01*
X-12195141Y+5974771D01*
X-12236108Y+5943155D01*
X-12277075Y+5922608D01*
X-12318042Y+5910371D01*
X-12359009Y+5905238D01*
X-12370000Y+5905000D01*
X-12599500Y+6251900D02*
X-12658400Y+6274700D01*
X-12628400Y+6348000D01*
X-12625300Y+6349100D02*
X-12561200Y+6321200D01*
X-12211000Y+5627000D02*
X-12241480Y+5658750D01*
X-12241480Y+5690500D01*
X-12211000Y+5722250D01*
X-12180520Y+5722250D01*
X-12150040Y+5690500D01*
X-12150040Y+5658750D01*
X-12180520Y+5627000D01*
X-12211000Y+5627000D01*
X-12180520Y+5690500D02*
X-12150040Y+5722250D01*
X-12226240Y+5769875D02*
X-12241480Y+5785750D01*
X-12241480Y+5833375D01*
X-12226240Y+5849250D01*
X-12211000Y+5849250D01*
X-12195760Y+5833375D01*
X-12180520Y+5849250D01*
X-12165280Y+5849250D01*
X-12150040Y+5833375D01*
X-12150040Y+5785750D01*
X-12165280Y+5769875D01*
X-12195760Y+5801625D02*
X-12195760Y+5833375D01*
X-14502000Y+4130000D02*
X-14502827Y+4150483D01*
X-14509545Y+4191450D01*
X-14523563Y+4232417D01*
X-14546341Y+4273384D01*
X-14581141Y+4314229D01*
X-14622108Y+4345845D01*
X-14663075Y+4366392D01*
X-14704042Y+4378629D01*
X-14745009Y+4383762D01*
X-14756000Y+4384000D01*
X-15010000Y+4130000D02*
X-15009173Y+4150483D01*
X-15002455Y+4191450D01*
X-14988437Y+4232417D01*
X-14965659Y+4273384D01*
X-14930859Y+4314229D01*
X-14889892Y+4345845D01*
X-14848925Y+4366392D01*
X-14807958Y+4378629D01*
X-14766991Y+4383762D01*
X-14756000Y+4384000D01*
X-15010000Y+4130000D02*
X-15009173Y+4109517D01*
X-15002455Y+4068550D01*
X-14988437Y+4027583D01*
X-14965659Y+3986616D01*
X-14930859Y+3945771D01*
X-14889892Y+3914155D01*
X-14848925Y+3893608D01*
X-14807958Y+3881371D01*
X-14766991Y+3876238D01*
X-14756000Y+3876000D01*
X-14502000Y+4130000D02*
X-14502827Y+4109517D01*
X-14509545Y+4068550D01*
X-14523563Y+4027583D01*
X-14546341Y+3986616D01*
X-14581141Y+3945771D01*
X-14622108Y+3914155D01*
X-14663075Y+3893608D01*
X-14704042Y+3881371D01*
X-14745009Y+3876238D01*
X-14756000Y+3876000D01*
X-14663100Y+4359500D02*
X-14640300Y+4418400D01*
X-14567000Y+4388400D01*
X-14565900Y+4385300D02*
X-14593800Y+4321200D01*
X-14883000Y+3786100D02*
X-14851250Y+3816580D01*
X-14819500Y+3816580D01*
X-14787750Y+3786100D01*
X-14787750Y+3755620D01*
X-14819500Y+3725140D01*
X-14851250Y+3725140D01*
X-14883000Y+3755620D01*
X-14883000Y+3786100D01*
X-14819500Y+3755620D02*
X-14787750Y+3725140D01*
X-14660750Y+3755620D02*
X-14756000Y+3755620D01*
X-14692500Y+3816580D01*
X-14692500Y+3725140D01*
X-13200000Y+5647000D02*
X-13200000Y+5774000D01*
X-13263500Y+5774000D02*
X-13136500Y+5774000D01*
X-13136500Y+6282000D01*
X-13263500Y+6282000D01*
X-13263500Y+5774000D01*
X-13200000Y+6282000D02*
X-13200000Y+6409000D01*
X-13304140Y+5827500D02*
X-13395580Y+5827500D01*
X-13395580Y+5906875D01*
X-13380340Y+5922750D01*
X-13365100Y+5922750D01*
X-13349860Y+5906875D01*
X-13349860Y+5827500D01*
X-13349860Y+5906875D02*
X-13334620Y+5922750D01*
X-13304140Y+5922750D01*
X-13365100Y+5986250D02*
X-13395580Y+6018000D01*
X-13304140Y+6018000D01*
X-13380340Y+6097375D02*
X-13395580Y+6113250D01*
X-13395580Y+6160875D01*
X-13380340Y+6176750D01*
X-13365100Y+6176750D01*
X-13349860Y+6160875D01*
X-13349860Y+6113250D01*
X-13334620Y+6097375D01*
X-13304140Y+6097375D01*
X-13304140Y+6176750D01*
X-13259000Y+5090000D02*
X-13132000Y+5090000D01*
X-13132000Y+5026500D02*
X-12624000Y+5026500D01*
X-12624000Y+5153500D01*
X-13132000Y+5153500D01*
X-13132000Y+5026500D01*
X-12624000Y+5090000D02*
X-12497000Y+5090000D01*
X-13068500Y+5194140D02*
X-13068500Y+5285580D01*
X-12989125Y+5285580D01*
X-12973250Y+5270340D01*
X-12973250Y+5255100D01*
X-12989125Y+5239860D01*
X-13068500Y+5239860D01*
X-12989125Y+5239860D02*
X-12973250Y+5224620D01*
X-12973250Y+5194140D01*
X-12909750Y+5255100D02*
X-12878000Y+5285580D01*
X-12878000Y+5194140D01*
X-12798625Y+5270340D02*
X-12782750Y+5285580D01*
X-12735125Y+5285580D01*
X-12719250Y+5270340D01*
X-12719250Y+5255100D01*
X-12735125Y+5239860D01*
X-12719250Y+5224620D01*
X-12719250Y+5209380D01*
X-12735125Y+5194140D01*
X-12782750Y+5194140D01*
X-12798625Y+5209380D01*
X-12766875Y+5239860D02*
X-12735125Y+5239860D01*
X-14110000Y+2661000D02*
X-14110000Y+2788000D01*
X-14173500Y+2788000D02*
X-14046500Y+2788000D01*
X-14046500Y+3296000D01*
X-14173500Y+3296000D01*
X-14173500Y+2788000D01*
X-14110000Y+3296000D02*
X-14110000Y+3423000D01*
X-14214140Y+2851500D02*
X-14305580Y+2851500D01*
X-14305580Y+2930875D01*
X-14290340Y+2946750D01*
X-14275100Y+2946750D01*
X-14259860Y+2930875D01*
X-14259860Y+2851500D01*
X-14259860Y+2930875D02*
X-14244620Y+2946750D01*
X-14214140Y+2946750D01*
X-14275100Y+3010250D02*
X-14305580Y+3042000D01*
X-14214140Y+3042000D01*
X-14244620Y+3200750D02*
X-14244620Y+3105500D01*
X-14305580Y+3169000D01*
X-14214140Y+3169000D01*
X-13580000Y+6413000D02*
X-13580000Y+6286000D01*
X-13643500Y+5778000D02*
X-13516500Y+5778000D01*
X-13516500Y+6286000D01*
X-13643500Y+6286000D01*
X-13643500Y+5778000D01*
X-13580000Y+5778000D02*
X-13580000Y+5651000D01*
X-13694420Y+5821500D02*
X-13785860Y+5821500D01*
X-13785860Y+5900875D01*
X-13770620Y+5916750D01*
X-13755380Y+5916750D01*
X-13740140Y+5900875D01*
X-13740140Y+5821500D01*
X-13740140Y+5900875D02*
X-13724900Y+5916750D01*
X-13694420Y+5916750D01*
X-13755380Y+5980250D02*
X-13785860Y+6012000D01*
X-13694420Y+6012000D01*
X-13785860Y+6170750D02*
X-13785860Y+6091375D01*
X-13755380Y+6091375D01*
X-13755380Y+6154875D01*
X-13740140Y+6170750D01*
X-13709660Y+6170750D01*
X-13694420Y+6154875D01*
X-13694420Y+6107250D01*
X-13709660Y+6091375D01*
X-8989000Y+7510000D02*
X-8862000Y+7510000D01*
X-8862000Y+7446500D02*
X-8354000Y+7446500D01*
X-8354000Y+7573500D01*
X-8862000Y+7573500D01*
X-8862000Y+7446500D01*
X-8354000Y+7510000D02*
X-8227000Y+7510000D01*
X-8798500Y+7614140D02*
X-8798500Y+7705580D01*
X-8719125Y+7705580D01*
X-8703250Y+7690340D01*
X-8703250Y+7675100D01*
X-8719125Y+7659860D01*
X-8798500Y+7659860D01*
X-8719125Y+7659860D02*
X-8703250Y+7644620D01*
X-8703250Y+7614140D01*
X-8639750Y+7675100D02*
X-8608000Y+7705580D01*
X-8608000Y+7614140D01*
X-8449250Y+7690340D02*
X-8465125Y+7705580D01*
X-8512750Y+7705580D01*
X-8528625Y+7690340D01*
X-8528625Y+7629380D01*
X-8512750Y+7614140D01*
X-8465125Y+7614140D01*
X-8449250Y+7629380D01*
X-8449250Y+7644620D01*
X-8465125Y+7659860D01*
X-8528625Y+7659860D01*
X-6627000Y+6770000D02*
X-6754000Y+6770000D01*
X-7262000Y+6706500D02*
X-6754000Y+6706500D01*
X-6754000Y+6833500D01*
X-7262000Y+6833500D01*
X-7262000Y+6706500D01*
X-7262000Y+6770000D02*
X-7389000Y+6770000D01*
X-7198500Y+6884420D02*
X-7198500Y+6975860D01*
X-7119125Y+6975860D01*
X-7103250Y+6960620D01*
X-7103250Y+6945380D01*
X-7119125Y+6930140D01*
X-7198500Y+6930140D01*
X-7119125Y+6930140D02*
X-7103250Y+6914900D01*
X-7103250Y+6884420D01*
X-7039750Y+6945380D02*
X-7008000Y+6975860D01*
X-7008000Y+6884420D01*
X-6928625Y+6975860D02*
X-6849250Y+6975860D01*
X-6849250Y+6960620D01*
X-6928625Y+6884420D01*
X-13100000Y+3601000D02*
X-13100000Y+3728000D01*
X-13163500Y+3728000D02*
X-13036500Y+3728000D01*
X-13036500Y+4236000D01*
X-13163500Y+4236000D01*
X-13163500Y+3728000D01*
X-13100000Y+4236000D02*
X-13100000Y+4363000D01*
X-13214140Y+3771500D02*
X-13305580Y+3771500D01*
X-13305580Y+3850875D01*
X-13290340Y+3866750D01*
X-13275100Y+3866750D01*
X-13259860Y+3850875D01*
X-13259860Y+3771500D01*
X-13259860Y+3850875D02*
X-13244620Y+3866750D01*
X-13214140Y+3866750D01*
X-13275100Y+3930250D02*
X-13305580Y+3962000D01*
X-13214140Y+3962000D01*
X-13259860Y+4057250D02*
X-13275100Y+4041375D01*
X-13290340Y+4041375D01*
X-13305580Y+4057250D01*
X-13305580Y+4104875D01*
X-13290340Y+4120750D01*
X-13275100Y+4120750D01*
X-13259860Y+4104875D01*
X-13259860Y+4057250D01*
X-13244620Y+4041375D01*
X-13229380Y+4041375D01*
X-13214140Y+4057250D01*
X-13214140Y+4104875D01*
X-13229380Y+4120750D01*
X-13244620Y+4120750D01*
X-13259860Y+4104875D01*
X-8243000Y+3250000D02*
X-8116000Y+3250000D01*
X-8116000Y+3186500D02*
X-7608000Y+3186500D01*
X-7608000Y+3313500D01*
X-8116000Y+3313500D01*
X-8116000Y+3186500D01*
X-7608000Y+3250000D02*
X-7481000Y+3250000D01*
X-8052500Y+3354140D02*
X-8052500Y+3445580D01*
X-7973125Y+3445580D01*
X-7957250Y+3430340D01*
X-7957250Y+3415100D01*
X-7973125Y+3399860D01*
X-8052500Y+3399860D01*
X-7973125Y+3399860D02*
X-7957250Y+3384620D01*
X-7957250Y+3354140D01*
X-7893750Y+3415100D02*
X-7862000Y+3445580D01*
X-7862000Y+3354140D01*
X-7703250Y+3415100D02*
X-7719125Y+3399860D01*
X-7766750Y+3399860D01*
X-7782625Y+3415100D01*
X-7782625Y+3430340D01*
X-7766750Y+3445580D01*
X-7719125Y+3445580D01*
X-7703250Y+3430340D01*
X-7703250Y+3369380D01*
X-7719125Y+3354140D01*
X-7766750Y+3354140D01*
X-13670000Y+3419000D02*
X-13670000Y+3292000D01*
X-13733500Y+2784000D02*
X-13606500Y+2784000D01*
X-13606500Y+3292000D01*
X-13733500Y+3292000D01*
X-13733500Y+2784000D01*
X-13670000Y+2784000D02*
X-13670000Y+2657000D01*
X-13794420Y+2867500D02*
X-13885860Y+2867500D01*
X-13885860Y+2946875D01*
X-13870620Y+2962750D01*
X-13855380Y+2962750D01*
X-13840140Y+2946875D01*
X-13840140Y+2867500D01*
X-13840140Y+2946875D02*
X-13824900Y+2962750D01*
X-13794420Y+2962750D01*
X-13870620Y+3010375D02*
X-13885860Y+3026250D01*
X-13885860Y+3073875D01*
X-13870620Y+3089750D01*
X-13855380Y+3089750D01*
X-13840140Y+3073875D01*
X-13840140Y+3026250D01*
X-13824900Y+3010375D01*
X-13794420Y+3010375D01*
X-13794420Y+3089750D01*
X-13855380Y+3153250D02*
X-13885860Y+3185000D01*
X-13794420Y+3185000D01*
X-6627000Y+6410000D02*
X-6754000Y+6410000D01*
X-7262000Y+6346500D02*
X-6754000Y+6346500D01*
X-6754000Y+6473500D01*
X-7262000Y+6473500D01*
X-7262000Y+6346500D01*
X-7262000Y+6410000D02*
X-7389000Y+6410000D01*
X-7188500Y+6544420D02*
X-7188500Y+6635860D01*
X-7109125Y+6635860D01*
X-7093250Y+6620620D01*
X-7093250Y+6605380D01*
X-7109125Y+6590140D01*
X-7188500Y+6590140D01*
X-7109125Y+6590140D02*
X-7093250Y+6574900D01*
X-7093250Y+6544420D01*
X-7045625Y+6620620D02*
X-7029750Y+6635860D01*
X-6982125Y+6635860D01*
X-6966250Y+6620620D01*
X-6966250Y+6605380D01*
X-6982125Y+6590140D01*
X-7029750Y+6590140D01*
X-7045625Y+6574900D01*
X-7045625Y+6544420D01*
X-6966250Y+6544420D01*
X-6918625Y+6620620D02*
X-6902750Y+6635860D01*
X-6855125Y+6635860D01*
X-6839250Y+6620620D01*
X-6839250Y+6605380D01*
X-6855125Y+6590140D01*
X-6902750Y+6590140D01*
X-6918625Y+6574900D01*
X-6918625Y+6544420D01*
X-6839250Y+6544420D01*
X-8989000Y+6986000D02*
X-8989000Y+7113000D01*
X-7973000Y+7113000D01*
X-7973000Y+6605000D01*
X-8989000Y+6605000D01*
X-8989000Y+6732000D01*
X-8862000Y+6859000D02*
X-8864436Y+6884876D01*
X-8871485Y+6908848D01*
X-8882762Y+6930438D01*
X-8897878Y+6949170D01*
X-8916446Y+6964569D01*
X-8938081Y+6976158D01*
X-8962394Y+6983460D01*
X-8989000Y+6986000D01*
X-8862000Y+6859000D02*
X-8864436Y+6832394D01*
X-8871485Y+6808081D01*
X-8882762Y+6786446D01*
X-8897878Y+6767878D01*
X-8916446Y+6752762D01*
X-8938081Y+6741485D01*
X-8962394Y+6734436D01*
X-8989000Y+6732000D01*
X-9121080Y+6732000D02*
X-9044880Y+6732000D01*
X-9029640Y+6747875D01*
X-9029640Y+6811375D01*
X-9044880Y+6827250D01*
X-9121080Y+6827250D01*
X-9121080Y+6874875D02*
X-9121080Y+6954250D01*
X-9105840Y+6954250D01*
X-9029640Y+6874875D01*
X-7617000Y+4166000D02*
X-7617000Y+4293000D01*
X-7617000Y+3785000D02*
X-7617000Y+3912000D01*
X-7490000Y+4039000D02*
X-7492436Y+4064876D01*
X-7499485Y+4088848D01*
X-7510762Y+4110438D01*
X-7525878Y+4129170D01*
X-7544446Y+4144569D01*
X-7566081Y+4156158D01*
X-7590394Y+4163460D01*
X-7617000Y+4166000D01*
X-7490000Y+4039000D02*
X-7492436Y+4012394D01*
X-7499485Y+3988081D01*
X-7510762Y+3966446D01*
X-7525878Y+3947878D01*
X-7544446Y+3932762D01*
X-7566081Y+3921485D01*
X-7590394Y+3914436D01*
X-7617000Y+3912000D01*
X-7617000Y+3785000D02*
X-5839000Y+3785000D01*
X-5839000Y+4293000D01*
X-7617000Y+4293000D01*
X-7789080Y+3905000D02*
X-7712880Y+3905000D01*
X-7697640Y+3920875D01*
X-7697640Y+3984375D01*
X-7712880Y+4000250D01*
X-7789080Y+4000250D01*
X-7758600Y+4127250D02*
X-7743360Y+4111375D01*
X-7743360Y+4063750D01*
X-7758600Y+4047875D01*
X-7773840Y+4047875D01*
X-7789080Y+4063750D01*
X-7789080Y+4111375D01*
X-7773840Y+4127250D01*
X-7712880Y+4127250D01*
X-7697640Y+4111375D01*
X-7697640Y+4063750D01*
X-7101000Y+2996000D02*
X-7101000Y+3123000D01*
X-7101000Y+2615000D02*
X-7101000Y+2742000D01*
X-6974000Y+2869000D02*
X-6976436Y+2894876D01*
X-6983485Y+2918848D01*
X-6994762Y+2940438D01*
X-7009878Y+2959170D01*
X-7028446Y+2974569D01*
X-7050081Y+2986158D01*
X-7074394Y+2993460D01*
X-7101000Y+2996000D01*
X-6974000Y+2869000D02*
X-6976436Y+2842394D01*
X-6983485Y+2818081D01*
X-6994762Y+2796446D01*
X-7009878Y+2777878D01*
X-7028446Y+2762762D01*
X-7050081Y+2751485D01*
X-7074394Y+2744436D01*
X-7101000Y+2742000D01*
X-7101000Y+2615000D02*
X-5323000Y+2615000D01*
X-5323000Y+3123000D01*
X-7101000Y+3123000D01*
X-7233080Y+2678500D02*
X-7156880Y+2678500D01*
X-7141640Y+2694375D01*
X-7141640Y+2757875D01*
X-7156880Y+2773750D01*
X-7233080Y+2773750D01*
X-7202600Y+2837250D02*
X-7233080Y+2869000D01*
X-7141640Y+2869000D01*
X-7202600Y+2964250D02*
X-7233080Y+2996000D01*
X-7141640Y+2996000D01*
X-21727000Y+7458000D02*
X-21219000Y+7458000D01*
X-21219000Y+7712000D01*
X-21727000Y+7712000D01*
X-21727000Y+7458000D01*
X-23093800Y+7556040D02*
X-23106500Y+7568740D01*
X-23144600Y+7568740D01*
X-23157300Y+7556040D01*
X-23157300Y+7505240D01*
X-23144600Y+7492540D01*
X-23106500Y+7492540D01*
X-23093800Y+7505240D01*
X-23093800Y+7517940D01*
X-23106500Y+7530640D01*
X-23157300Y+7530640D01*
X-23068400Y+7568740D02*
X-23068400Y+7530640D01*
X-23030300Y+7492540D01*
X-22992200Y+7530640D01*
X-22992200Y+7568740D01*
X-22865200Y+7492540D02*
X-22865200Y+7568740D01*
X-22801700Y+7568740D01*
X-22789000Y+7556040D01*
X-22789000Y+7543340D01*
X-22801700Y+7530640D01*
X-22789000Y+7517940D01*
X-22789000Y+7505240D01*
X-22801700Y+7492540D01*
X-22865200Y+7492540D01*
X-22865200Y+7530640D02*
X-22801700Y+7530640D01*
X-22763600Y+7492540D02*
X-22763600Y+7543340D01*
X-22738200Y+7568740D01*
X-22712800Y+7568740D01*
X-22687400Y+7543340D01*
X-22687400Y+7492540D01*
X-22763600Y+7517940D02*
X-22687400Y+7517940D01*
X-22662000Y+7568740D02*
X-22585800Y+7568740D01*
X-22623900Y+7568740D02*
X-22623900Y+7492540D01*
X-22560400Y+7568740D02*
X-22484200Y+7568740D01*
X-22522300Y+7568740D02*
X-22522300Y+7492540D01*
X-22382600Y+7492540D02*
X-22458800Y+7492540D01*
X-22458800Y+7568740D01*
X-22382600Y+7568740D01*
X-22458800Y+7530640D02*
X-22408000Y+7530640D01*
X-22357200Y+7492540D02*
X-22357200Y+7568740D01*
X-22293700Y+7568740D01*
X-22281000Y+7556040D01*
X-22281000Y+7543340D01*
X-22293700Y+7530640D01*
X-22357200Y+7530640D01*
X-22293700Y+7530640D02*
X-22281000Y+7517940D01*
X-22281000Y+7492540D01*
X-22179400Y+7568740D02*
X-22255600Y+7492540D01*
X-22255600Y+7568740D02*
X-22217500Y+7530640D01*
X-15011000Y+2403000D02*
X-14503000Y+2403000D01*
X-14503000Y+2657000D01*
X-15011000Y+2657000D01*
X-15011000Y+2403000D01*
X-14889750Y+1966160D02*
X-14905625Y+1950920D01*
X-14953250Y+1950920D01*
X-14985000Y+1981400D01*
X-14985000Y+2011880D01*
X-14953250Y+2042360D01*
X-14905625Y+2042360D01*
X-14889750Y+2027120D01*
X-14858000Y+1950920D02*
X-14858000Y+2042360D01*
X-14778625Y+2042360D01*
X-14762750Y+2027120D01*
X-14762750Y+2011880D01*
X-14778625Y+1996640D01*
X-14858000Y+1996640D01*
X-14635750Y+1966160D02*
X-14651625Y+1950920D01*
X-14699250Y+1950920D01*
X-14731000Y+1981400D01*
X-14731000Y+2011880D01*
X-14699250Y+2042360D01*
X-14651625Y+2042360D01*
X-14635750Y+2027120D01*
X-14572250Y+2011880D02*
X-14540500Y+2042360D01*
X-14540500Y+1950920D01*
X-14445250Y+2011880D02*
X-14413500Y+2042360D01*
X-14413500Y+1950920D01*
X-14318250Y+2011880D02*
X-14286500Y+2042360D01*
X-14286500Y+1950920D01*
X-14207125Y+2042360D02*
X-14127750Y+2042360D01*
X-14127750Y+2027120D01*
X-14207125Y+1950920D01*
X-14096000Y+1950920D02*
X-14096000Y+2042360D01*
X-14000750Y+1950920D01*
X-14000750Y+2042360D01*
X-15011000Y+2683000D02*
X-14503000Y+2683000D01*
X-14503000Y+2937000D01*
X-15011000Y+2937000D01*
X-15011000Y+2683000D01*
X-14947500Y+2200920D02*
X-14947500Y+2292360D01*
X-14868125Y+2292360D01*
X-14852250Y+2277120D01*
X-14852250Y+2261880D01*
X-14868125Y+2246640D01*
X-14947500Y+2246640D01*
X-14868125Y+2246640D02*
X-14852250Y+2231400D01*
X-14852250Y+2200920D01*
X-14820500Y+2292360D02*
X-14820500Y+2200920D01*
X-14725250Y+2200920D01*
X-14661750Y+2261880D02*
X-14630000Y+2292360D01*
X-14630000Y+2200920D01*
X-15104600Y+2819200D02*
X-15079200Y+2844600D01*
X-15079200Y+2768400D01*
X-15117300Y+2551900D02*
X-15104600Y+2564600D01*
X-15066500Y+2564600D01*
X-15053800Y+2551900D01*
X-15053800Y+2539200D01*
X-15066500Y+2526500D01*
X-15104600Y+2526500D01*
X-15117300Y+2513800D01*
X-15117300Y+2488400D01*
X-15053800Y+2488400D01*
X-14447300Y+2571900D02*
X-14434600Y+2584600D01*
X-14396500Y+2584600D01*
X-14383800Y+2571900D01*
X-14383800Y+2559200D01*
X-14396500Y+2546500D01*
X-14383800Y+2533800D01*
X-14383800Y+2521100D01*
X-14396500Y+2508400D01*
X-14434600Y+2508400D01*
X-14447300Y+2521100D01*
X-14421900Y+2546500D02*
X-14396500Y+2546500D01*
X-14373800Y+2803800D02*
X-14450000Y+2803800D01*
X-14399200Y+2854600D01*
X-14399200Y+2778400D01*
X-14809000Y+7213000D02*
X-14301000Y+7213000D01*
X-14301000Y+7467000D01*
X-14809000Y+7467000D01*
X-14809000Y+7213000D01*
X-14952000Y+7656040D02*
X-14942475Y+7645880D01*
X-14904375Y+7645880D01*
X-14894850Y+7656040D01*
X-14894850Y+7666200D01*
X-14904375Y+7676360D01*
X-14942475Y+7676360D01*
X-14952000Y+7686520D01*
X-14952000Y+7696680D01*
X-14942475Y+7706840D01*
X-14904375Y+7706840D01*
X-14894850Y+7696680D01*
X-14875800Y+7686520D02*
X-14856750Y+7706840D01*
X-14837700Y+7706840D01*
X-14818650Y+7686520D01*
X-14818650Y+7666200D01*
X-14837700Y+7645880D01*
X-14856750Y+7645880D01*
X-14875800Y+7666200D01*
X-14875800Y+7686520D01*
X-14799600Y+7645880D02*
X-14799600Y+7706840D01*
X-14742450Y+7706840D01*
X-14799600Y+7676360D02*
X-14761500Y+7676360D01*
X-14723400Y+7706840D02*
X-14666250Y+7706840D01*
X-14694825Y+7706840D02*
X-14694825Y+7645880D01*
X-14571000Y+7645880D02*
X-14571000Y+7706840D01*
X-14523375Y+7706840D01*
X-14513850Y+7696680D01*
X-14513850Y+7686520D01*
X-14523375Y+7676360D01*
X-14571000Y+7676360D01*
X-14494800Y+7686520D02*
X-14475750Y+7706840D01*
X-14456700Y+7706840D01*
X-14437650Y+7686520D01*
X-14437650Y+7666200D01*
X-14456700Y+7645880D01*
X-14475750Y+7645880D01*
X-14494800Y+7666200D01*
X-14494800Y+7686520D01*
X-14418600Y+7706840D02*
X-14418600Y+7645880D01*
X-14390025Y+7676360D01*
X-14361450Y+7645880D01*
X-14361450Y+7706840D01*
X-14285250Y+7645880D02*
X-14342400Y+7645880D01*
X-14342400Y+7706840D01*
X-14285250Y+7706840D01*
X-14342400Y+7676360D02*
X-14304300Y+7676360D01*
X-14266200Y+7645880D02*
X-14266200Y+7706840D01*
X-14218575Y+7706840D01*
X-14209050Y+7696680D01*
X-14209050Y+7686520D01*
X-14218575Y+7676360D01*
X-14266200Y+7676360D01*
X-14218575Y+7676360D02*
X-14209050Y+7666200D01*
X-14209050Y+7645880D01*
X-16616000Y+7448000D02*
X-16108000Y+7448000D01*
X-16108000Y+7702000D01*
X-16616000Y+7702000D01*
X-16616000Y+7448000D01*
X-17458500Y+7572640D02*
X-17458500Y+7664080D01*
X-17379125Y+7664080D01*
X-17363250Y+7648840D01*
X-17363250Y+7633600D01*
X-17379125Y+7618360D01*
X-17458500Y+7618360D01*
X-17331500Y+7633600D02*
X-17299750Y+7664080D01*
X-17268000Y+7664080D01*
X-17236250Y+7633600D01*
X-17236250Y+7603120D01*
X-17268000Y+7572640D01*
X-17299750Y+7572640D01*
X-17331500Y+7603120D01*
X-17331500Y+7633600D01*
X-17204500Y+7664080D02*
X-17204500Y+7572640D01*
X-17156875Y+7618360D01*
X-17109250Y+7572640D01*
X-17109250Y+7664080D01*
X-16982250Y+7572640D02*
X-17077500Y+7572640D01*
X-17077500Y+7664080D01*
X-16982250Y+7664080D01*
X-17077500Y+7618360D02*
X-17014000Y+7618360D01*
X-16950500Y+7572640D02*
X-16950500Y+7664080D01*
X-16871125Y+7664080D01*
X-16855250Y+7648840D01*
X-16855250Y+7633600D01*
X-16871125Y+7618360D01*
X-16950500Y+7618360D01*
X-16871125Y+7618360D02*
X-16855250Y+7603120D01*
X-16855250Y+7572640D01*
X-16616000Y+7168000D02*
X-16108000Y+7168000D01*
X-16108000Y+7422000D01*
X-16616000Y+7422000D01*
X-16616000Y+7168000D01*
X-16535500Y+6770640D02*
X-16535500Y+6862080D01*
X-16456125Y+6862080D01*
X-16440250Y+6846840D01*
X-16440250Y+6831600D01*
X-16456125Y+6816360D01*
X-16535500Y+6816360D01*
X-16456125Y+6816360D02*
X-16440250Y+6801120D01*
X-16440250Y+6770640D01*
X-16408500Y+6862080D02*
X-16408500Y+6770640D01*
X-16313250Y+6770640D01*
X-16265625Y+6846840D02*
X-16249750Y+6862080D01*
X-16202125Y+6862080D01*
X-16186250Y+6846840D01*
X-16186250Y+6831600D01*
X-16202125Y+6816360D01*
X-16249750Y+6816360D01*
X-16265625Y+6801120D01*
X-16265625Y+6770640D01*
X-16186250Y+6770640D01*
X-13763000Y+7213000D02*
X-13255000Y+7213000D01*
X-13255000Y+7467000D01*
X-13763000Y+7467000D01*
X-13763000Y+7213000D01*
X-14007400Y+7811880D02*
X-14007400Y+7872840D01*
X-13950250Y+7872840D01*
X-14007400Y+7842360D02*
X-13969300Y+7842360D01*
X-13931200Y+7852520D02*
X-13912150Y+7872840D01*
X-13893100Y+7872840D01*
X-13874050Y+7852520D01*
X-13874050Y+7832200D01*
X-13893100Y+7811880D01*
X-13912150Y+7811880D01*
X-13931200Y+7832200D01*
X-13931200Y+7852520D01*
X-13855000Y+7811880D02*
X-13855000Y+7872840D01*
X-13807375Y+7872840D01*
X-13797850Y+7862680D01*
X-13797850Y+7852520D01*
X-13807375Y+7842360D01*
X-13855000Y+7842360D01*
X-13807375Y+7842360D02*
X-13797850Y+7832200D01*
X-13797850Y+7811880D01*
X-13721650Y+7822040D02*
X-13731175Y+7811880D01*
X-13759750Y+7811880D01*
X-13778800Y+7832200D01*
X-13778800Y+7852520D01*
X-13759750Y+7872840D01*
X-13731175Y+7872840D01*
X-13721650Y+7862680D01*
X-13645450Y+7811880D02*
X-13702600Y+7811880D01*
X-13702600Y+7872840D01*
X-13645450Y+7872840D01*
X-13702600Y+7842360D02*
X-13664500Y+7842360D01*
X-13550200Y+7822040D02*
X-13540675Y+7811880D01*
X-13502575Y+7811880D01*
X-13493050Y+7822040D01*
X-13493050Y+7832200D01*
X-13502575Y+7842360D01*
X-13540675Y+7842360D01*
X-13550200Y+7852520D01*
X-13550200Y+7862680D01*
X-13540675Y+7872840D01*
X-13502575Y+7872840D01*
X-13493050Y+7862680D01*
X-13474000Y+7811880D02*
X-13474000Y+7872840D01*
X-13416850Y+7872840D02*
X-13416850Y+7811880D01*
X-13474000Y+7842360D02*
X-13416850Y+7842360D01*
X-13397800Y+7872840D02*
X-13397800Y+7822040D01*
X-13388275Y+7811880D01*
X-13350175Y+7811880D01*
X-13340650Y+7822040D01*
X-13340650Y+7872840D01*
X-13321600Y+7872840D02*
X-13264450Y+7872840D01*
X-13293025Y+7872840D02*
X-13293025Y+7811880D01*
X-13245400Y+7811880D02*
X-13245400Y+7872840D01*
X-13207300Y+7872840D01*
X-13188250Y+7852520D01*
X-13188250Y+7832200D01*
X-13207300Y+7811880D01*
X-13245400Y+7811880D01*
X-13169200Y+7852520D02*
X-13150150Y+7872840D01*
X-13131100Y+7872840D01*
X-13112050Y+7852520D01*
X-13112050Y+7832200D01*
X-13131100Y+7811880D01*
X-13150150Y+7811880D01*
X-13169200Y+7832200D01*
X-13169200Y+7852520D01*
X-13093000Y+7872840D02*
X-13093000Y+7811880D01*
X-13064425Y+7842360D01*
X-13035850Y+7811880D01*
X-13035850Y+7872840D01*
X-13016800Y+7811880D02*
X-13016800Y+7872840D01*
X-12959650Y+7811880D01*
X-12959650Y+7872840D01*
X-13763000Y+6923000D02*
X-13255000Y+6923000D01*
X-13255000Y+7177000D01*
X-13763000Y+7177000D01*
X-13763000Y+6923000D01*
X-13945212Y+7661937D02*
X-13945212Y+7722897D01*
X-13897587Y+7722897D01*
X-13888062Y+7712737D01*
X-13888062Y+7702577D01*
X-13897587Y+7692417D01*
X-13888062Y+7682257D01*
X-13888062Y+7672097D01*
X-13897587Y+7661937D01*
X-13945212Y+7661937D01*
X-13945212Y+7692417D02*
X-13897587Y+7692417D01*
X-13869012Y+7722897D02*
X-13869012Y+7672097D01*
X-13859487Y+7661937D01*
X-13821387Y+7661937D01*
X-13811862Y+7672097D01*
X-13811862Y+7722897D01*
X-13792812Y+7722897D02*
X-13735662Y+7722897D01*
X-13764237Y+7722897D02*
X-13764237Y+7661937D01*
X-13716612Y+7722897D02*
X-13659462Y+7722897D01*
X-13688037Y+7722897D02*
X-13688037Y+7661937D01*
X-13640412Y+7702577D02*
X-13621362Y+7722897D01*
X-13602312Y+7722897D01*
X-13583262Y+7702577D01*
X-13583262Y+7682257D01*
X-13602312Y+7661937D01*
X-13621362Y+7661937D01*
X-13640412Y+7682257D01*
X-13640412Y+7702577D01*
X-13564212Y+7661937D02*
X-13564212Y+7722897D01*
X-13507062Y+7661937D01*
X-13507062Y+7722897D01*
X-13488012Y+7672097D02*
X-13478487Y+7661937D01*
X-13440387Y+7661937D01*
X-13430862Y+7672097D01*
X-13430862Y+7682257D01*
X-13440387Y+7692417D01*
X-13478487Y+7692417D01*
X-13488012Y+7702577D01*
X-13488012Y+7712737D01*
X-13478487Y+7722897D01*
X-13440387Y+7722897D01*
X-13430862Y+7712737D01*
X-13335612Y+7661937D02*
X-13335612Y+7722897D01*
X-13287987Y+7722897D01*
X-13278462Y+7712737D01*
X-13278462Y+7702577D01*
X-13287987Y+7692417D01*
X-13335612Y+7692417D01*
X-13259412Y+7661937D02*
X-13259412Y+7702577D01*
X-13240362Y+7722897D01*
X-13221312Y+7722897D01*
X-13202262Y+7702577D01*
X-13202262Y+7661937D01*
X-13259412Y+7682257D02*
X-13202262Y+7682257D01*
X-13173687Y+7722897D02*
X-13135587Y+7722897D01*
X-13154637Y+7722897D02*
X-13154637Y+7661937D01*
X-13173687Y+7661937D02*
X-13135587Y+7661937D01*
X-13107012Y+7661937D02*
X-13107012Y+7722897D01*
X-13059387Y+7722897D01*
X-13049862Y+7712737D01*
X-13049862Y+7702577D01*
X-13059387Y+7692417D01*
X-13107012Y+7692417D01*
X-13059387Y+7692417D02*
X-13049862Y+7682257D01*
X-13049862Y+7661937D01*
X-17443000Y+7404760D02*
X-17443000Y+7475880D01*
X-17443000Y+7458100D02*
X-17427125Y+7475880D01*
X-17363625Y+7475880D01*
X-17347750Y+7458100D01*
X-17316000Y+7440320D02*
X-17220750Y+7440320D01*
X-17220750Y+7458100D01*
X-17236625Y+7475880D01*
X-17300125Y+7475880D01*
X-17316000Y+7458100D01*
X-17316000Y+7422540D01*
X-17300125Y+7404760D01*
X-17236625Y+7404760D01*
X-17141375Y+7511440D02*
X-17141375Y+7404760D01*
X-17046125Y+7475880D02*
X-16982625Y+7475880D01*
X-16966750Y+7458100D01*
X-16966750Y+7404760D01*
X-17046125Y+7404760D01*
X-17062000Y+7422540D01*
X-17046125Y+7440320D01*
X-16966750Y+7440320D01*
X-16935000Y+7475880D02*
X-16935000Y+7440320D01*
X-16919125Y+7422540D01*
X-16855625Y+7422540D01*
X-16839750Y+7440320D01*
X-16839750Y+7475880D02*
X-16839750Y+7404760D01*
X-16855625Y+7386980D01*
X-16935000Y+7386980D01*
X-14776000Y+7566500D02*
X-14766475Y+7579200D01*
X-14728375Y+7579200D01*
X-14718850Y+7566500D01*
X-14718850Y+7541100D01*
X-14728375Y+7528400D01*
X-14766475Y+7528400D01*
X-14776000Y+7541100D01*
X-14776000Y+7528400D02*
X-14776000Y+7604600D01*
X-14699800Y+7579200D02*
X-14699800Y+7541100D01*
X-14690275Y+7528400D01*
X-14652175Y+7528400D01*
X-14642650Y+7541100D01*
X-14642650Y+7528400D02*
X-14642650Y+7579200D01*
X-14614075Y+7604600D02*
X-14614075Y+7541100D01*
X-14604550Y+7528400D01*
X-14575975Y+7528400D01*
X-14566450Y+7541100D01*
X-14623600Y+7579200D02*
X-14575975Y+7579200D01*
X-14537875Y+7604600D02*
X-14537875Y+7541100D01*
X-14528350Y+7528400D01*
X-14499775Y+7528400D01*
X-14490250Y+7541100D01*
X-14547400Y+7579200D02*
X-14499775Y+7579200D01*
X-14471200Y+7566500D02*
X-14461675Y+7579200D01*
X-14423575Y+7579200D01*
X-14414050Y+7566500D01*
X-14414050Y+7541100D01*
X-14423575Y+7528400D01*
X-14461675Y+7528400D01*
X-14471200Y+7541100D01*
X-14471200Y+7566500D01*
X-14395000Y+7528400D02*
X-14395000Y+7579200D01*
X-14395000Y+7566500D02*
X-14385475Y+7579200D01*
X-14347375Y+7579200D01*
X-14337850Y+7566500D01*
X-14337850Y+7528400D01*
X-21378000Y+7828800D02*
X-21301800Y+7828800D01*
X-21339900Y+7859280D02*
X-21339900Y+7798320D01*
X-16253000Y+7768800D02*
X-16176800Y+7768800D01*
X-16214900Y+7799280D02*
X-16214900Y+7738320D01*
X-16547600Y+7764040D02*
X-16534900Y+7764040D01*
X-16534900Y+7743720D01*
X-16560300Y+7743720D01*
X-16573000Y+7764040D01*
X-16573000Y+7784360D01*
X-16560300Y+7804680D01*
X-16541250Y+7804680D01*
X-16534900Y+7794520D01*
X-16522200Y+7743720D02*
X-16522200Y+7804680D01*
X-16484100Y+7743720D01*
X-16484100Y+7804680D01*
X-16471400Y+7743720D02*
X-16471400Y+7804680D01*
X-16446000Y+7804680D01*
X-16433300Y+7784360D01*
X-16433300Y+7764040D01*
X-16446000Y+7743720D01*
X-16471400Y+7743720D01*
X-16436800Y+7078800D02*
X-16449500Y+7094040D01*
X-16500300Y+7094040D01*
X-16513000Y+7078800D01*
X-16513000Y+7048320D01*
X-16500300Y+7033080D01*
X-16449500Y+7033080D01*
X-16436800Y+7048320D01*
X-16398700Y+7124520D02*
X-16398700Y+7048320D01*
X-16386000Y+7033080D01*
X-16347900Y+7033080D01*
X-16335200Y+7048320D01*
X-16411400Y+7094040D02*
X-16347900Y+7094040D01*
X-16309800Y+7033080D02*
X-16309800Y+7094040D01*
X-16309800Y+7078800D02*
X-16297100Y+7094040D01*
X-16246300Y+7094040D01*
X-16233600Y+7078800D01*
X-16170100Y+7124520D02*
X-16170100Y+7033080D01*
X-21627000Y+7827560D02*
X-21588900Y+7827560D01*
X-17521000Y+7183760D02*
X-17521000Y+7254880D01*
X-17521000Y+7237100D02*
X-17505125Y+7254880D01*
X-17473375Y+7219320D01*
X-17441625Y+7254880D01*
X-17425750Y+7237100D01*
X-17425750Y+7183760D01*
X-17394000Y+7237100D02*
X-17378125Y+7254880D01*
X-17314625Y+7254880D01*
X-17298750Y+7237100D01*
X-17298750Y+7201540D01*
X-17314625Y+7183760D01*
X-17378125Y+7183760D01*
X-17394000Y+7201540D01*
X-17394000Y+7237100D01*
X-17171750Y+7237100D02*
X-17187625Y+7254880D01*
X-17251125Y+7254880D01*
X-17267000Y+7237100D01*
X-17267000Y+7201540D01*
X-17251125Y+7183760D01*
X-17187625Y+7183760D01*
X-17171750Y+7201540D01*
X-17171750Y+7183760D02*
X-17171750Y+7290440D01*
X-17140000Y+7254880D02*
X-17140000Y+7201540D01*
X-17124125Y+7183760D01*
X-17060625Y+7183760D01*
X-17044750Y+7201540D01*
X-17044750Y+7183760D02*
X-17044750Y+7254880D01*
X-16965375Y+7290440D02*
X-16965375Y+7183760D01*
X-16886000Y+7219320D02*
X-16790750Y+7219320D01*
X-16790750Y+7237100D01*
X-16806625Y+7254880D01*
X-16870125Y+7254880D01*
X-16886000Y+7237100D01*
X-16886000Y+7201540D01*
X-16870125Y+7183760D01*
X-16806625Y+7183760D01*
X-19182000Y+6457000D02*
X-18674000Y+6457000D01*
X-18674000Y+6711000D01*
X-19182000Y+6711000D01*
X-19182000Y+6457000D01*
X-19332500Y+6824640D02*
X-19237250Y+6824640D01*
X-19284875Y+6855120D02*
X-19284875Y+6794160D01*
X-19110250Y+6870360D02*
X-19189625Y+6870360D01*
X-19189625Y+6839880D01*
X-19126125Y+6839880D01*
X-19110250Y+6824640D01*
X-19110250Y+6794160D01*
X-19126125Y+6778920D01*
X-19173750Y+6778920D01*
X-19189625Y+6794160D01*
X-19078500Y+6870360D02*
X-19078500Y+6824640D01*
X-19030875Y+6778920D01*
X-18983250Y+6824640D01*
X-18983250Y+6870360D01*
X-18672000Y+6457000D02*
X-18164000Y+6457000D01*
X-18164000Y+6711000D01*
X-18672000Y+6711000D01*
X-18672000Y+6457000D01*
X-18427000Y+6824640D02*
X-18331750Y+6824640D01*
X-18379375Y+6855120D02*
X-18379375Y+6794160D01*
X-18268250Y+6839880D02*
X-18236500Y+6870360D01*
X-18236500Y+6778920D01*
X-18157125Y+6855120D02*
X-18141250Y+6870360D01*
X-18093625Y+6870360D01*
X-18077750Y+6855120D01*
X-18077750Y+6839880D01*
X-18093625Y+6824640D01*
X-18141250Y+6824640D01*
X-18157125Y+6809400D01*
X-18157125Y+6778920D01*
X-18077750Y+6778920D01*
X-18046000Y+6870360D02*
X-18046000Y+6824640D01*
X-17998375Y+6778920D01*
X-17950750Y+6824640D01*
X-17950750Y+6870360D01*
X-15460000Y+7789000D02*
X-15460000Y+1260000D01*
X-19470000Y+1260000D02*
X-19470000Y+7750000D01*
X-19660000Y+1250000D02*
X-19660000Y+7750000D01*
X-18072500Y+6537260D02*
X-18072500Y+6643940D01*
X-18034400Y+6590600D01*
X-17996300Y+6643940D01*
X-17996300Y+6537260D01*
X-17970900Y+6590600D02*
X-17958200Y+6608380D01*
X-17907400Y+6608380D01*
X-17894700Y+6590600D01*
X-17894700Y+6555040D01*
X-17907400Y+6537260D01*
X-17958200Y+6537260D01*
X-17970900Y+6555040D01*
X-17970900Y+6590600D01*
X-17831200Y+6643940D02*
X-17831200Y+6537260D01*
X-17767700Y+6572820D02*
X-17691500Y+6572820D01*
X-17691500Y+6590600D01*
X-17704200Y+6608380D01*
X-17755000Y+6608380D01*
X-17767700Y+6590600D01*
X-17767700Y+6555040D01*
X-17755000Y+6537260D01*
X-17704200Y+6537260D01*
X-17666100Y+6608380D02*
X-17589900Y+6537260D01*
X-17666100Y+6537260D02*
X-17589900Y+6608380D01*
X-25690000Y+1250000D02*
X-25690000Y+7790000D01*
X-18998668Y+1590000D02*
X-18999171Y+1602284D01*
X-19003255Y+1626854D01*
X-19011789Y+1651424D01*
X-19025692Y+1675994D01*
X-19046962Y+1700399D01*
X-19071532Y+1718835D01*
X-19096102Y+1730718D01*
X-19120672Y+1737639D01*
X-19145242Y+1740285D01*
X-19149000Y+1740332D01*
X-19299332Y+1590000D02*
X-19298829Y+1602284D01*
X-19294745Y+1626854D01*
X-19286211Y+1651424D01*
X-19272308Y+1675994D01*
X-19251038Y+1700399D01*
X-19226468Y+1718835D01*
X-19201898Y+1730718D01*
X-19177328Y+1737639D01*
X-19152758Y+1740285D01*
X-19149000Y+1740332D01*
X-19299332Y+1590000D02*
X-19298829Y+1577716D01*
X-19294745Y+1553146D01*
X-19286211Y+1528576D01*
X-19272308Y+1504006D01*
X-19251038Y+1479601D01*
X-19226468Y+1461165D01*
X-19201898Y+1449282D01*
X-19177328Y+1442361D01*
X-19152758Y+1439715D01*
X-19149000Y+1439668D01*
X-18998668Y+1590000D02*
X-18999171Y+1577716D01*
X-19003255Y+1553146D01*
X-19011789Y+1528576D01*
X-19025692Y+1504006D01*
X-19046962Y+1479601D01*
X-19071532Y+1461165D01*
X-19096102Y+1449282D01*
X-19120672Y+1442361D01*
X-19145242Y+1439715D01*
X-19149000Y+1439668D01*
X-15650668Y+1591000D02*
X-15651171Y+1603284D01*
X-15655255Y+1627854D01*
X-15663789Y+1652424D01*
X-15677692Y+1676994D01*
X-15698962Y+1701399D01*
X-15723532Y+1719835D01*
X-15748102Y+1731718D01*
X-15772672Y+1738639D01*
X-15797242Y+1741285D01*
X-15801000Y+1741332D01*
X-15951332Y+1591000D02*
X-15950829Y+1603284D01*
X-15946745Y+1627854D01*
X-15938211Y+1652424D01*
X-15924308Y+1676994D01*
X-15903038Y+1701399D01*
X-15878468Y+1719835D01*
X-15853898Y+1731718D01*
X-15829328Y+1738639D01*
X-15804758Y+1741285D01*
X-15801000Y+1741332D01*
X-15951332Y+1591000D02*
X-15950829Y+1578716D01*
X-15946745Y+1554146D01*
X-15938211Y+1529576D01*
X-15924308Y+1505006D01*
X-15903038Y+1480601D01*
X-15878468Y+1462165D01*
X-15853898Y+1450282D01*
X-15829328Y+1443361D01*
X-15804758Y+1440715D01*
X-15801000Y+1440668D01*
X-15650668Y+1591000D02*
X-15651171Y+1578716D01*
X-15655255Y+1554146D01*
X-15663789Y+1529576D01*
X-15677692Y+1505006D01*
X-15698962Y+1480601D01*
X-15723532Y+1462165D01*
X-15748102Y+1450282D01*
X-15772672Y+1443361D01*
X-15797242Y+1440715D01*
X-15801000Y+1440668D01*
X-15458000Y+6270000D02*
X-19450000Y+6270000D01*
X-15636668Y+5938000D02*
X-15637171Y+5950284D01*
X-15641255Y+5974854D01*
X-15649789Y+5999424D01*
X-15663692Y+6023994D01*
X-15684962Y+6048399D01*
X-15709532Y+6066835D01*
X-15734102Y+6078718D01*
X-15758672Y+6085639D01*
X-15783242Y+6088285D01*
X-15787000Y+6088332D01*
X-15937332Y+5938000D02*
X-15936829Y+5950284D01*
X-15932745Y+5974854D01*
X-15924211Y+5999424D01*
X-15910308Y+6023994D01*
X-15889038Y+6048399D01*
X-15864468Y+6066835D01*
X-15839898Y+6078718D01*
X-15815328Y+6085639D01*
X-15790758Y+6088285D01*
X-15787000Y+6088332D01*
X-15937332Y+5938000D02*
X-15936829Y+5925716D01*
X-15932745Y+5901146D01*
X-15924211Y+5876576D01*
X-15910308Y+5852006D01*
X-15889038Y+5827601D01*
X-15864468Y+5809165D01*
X-15839898Y+5797282D01*
X-15815328Y+5790361D01*
X-15790758Y+5787715D01*
X-15787000Y+5787668D01*
X-15636668Y+5938000D02*
X-15637171Y+5925716D01*
X-15641255Y+5901146D01*
X-15649789Y+5876576D01*
X-15663692Y+5852006D01*
X-15684962Y+5827601D01*
X-15709532Y+5809165D01*
X-15734102Y+5797282D01*
X-15758672Y+5790361D01*
X-15783242Y+5787715D01*
X-15787000Y+5787668D01*
X-18977668Y+5937000D02*
X-18978171Y+5949284D01*
X-18982255Y+5973854D01*
X-18990789Y+5998424D01*
X-19004692Y+6022994D01*
X-19025962Y+6047399D01*
X-19050532Y+6065835D01*
X-19075102Y+6077718D01*
X-19099672Y+6084639D01*
X-19124242Y+6087285D01*
X-19128000Y+6087332D01*
X-19278332Y+5937000D02*
X-19277829Y+5949284D01*
X-19273745Y+5973854D01*
X-19265211Y+5998424D01*
X-19251308Y+6022994D01*
X-19230038Y+6047399D01*
X-19205468Y+6065835D01*
X-19180898Y+6077718D01*
X-19156328Y+6084639D01*
X-19131758Y+6087285D01*
X-19128000Y+6087332D01*
X-19278332Y+5937000D02*
X-19277829Y+5924716D01*
X-19273745Y+5900146D01*
X-19265211Y+5875576D01*
X-19251308Y+5851006D01*
X-19230038Y+5826601D01*
X-19205468Y+5808165D01*
X-19180898Y+5796282D01*
X-19156328Y+5789361D01*
X-19131758Y+5786715D01*
X-19128000Y+5786668D01*
X-18977668Y+5937000D02*
X-18978171Y+5924716D01*
X-18982255Y+5900146D01*
X-18990789Y+5875576D01*
X-19004692Y+5851006D01*
X-19025962Y+5826601D01*
X-19050532Y+5808165D01*
X-19075102Y+5796282D01*
X-19099672Y+5789361D01*
X-19124242Y+5786715D01*
X-19128000Y+5786668D01*
X-22599668Y+1411000D02*
X-22599874Y+1415987D01*
X-22601553Y+1425963D01*
X-22605064Y+1435939D01*
X-22610797Y+1445915D01*
X-22619569Y+1455780D01*
X-22629545Y+1463081D01*
X-22639521Y+1467750D01*
X-22649497Y+1470411D01*
X-22659473Y+1471330D01*
X-22660000Y+1471332D01*
X-22720332Y+1411000D02*
X-22720126Y+1415987D01*
X-22718447Y+1425963D01*
X-22714936Y+1435939D01*
X-22709203Y+1445915D01*
X-22700431Y+1455780D01*
X-22690455Y+1463081D01*
X-22680479Y+1467750D01*
X-22670503Y+1470411D01*
X-22660527Y+1471330D01*
X-22660000Y+1471332D01*
X-22720332Y+1411000D02*
X-22720126Y+1406013D01*
X-22718447Y+1396037D01*
X-22714936Y+1386061D01*
X-22709203Y+1376085D01*
X-22700431Y+1366220D01*
X-22690455Y+1358919D01*
X-22680479Y+1354250D01*
X-22670503Y+1351589D01*
X-22660527Y+1350670D01*
X-22660000Y+1350668D01*
X-22599668Y+1411000D02*
X-22599874Y+1406013D01*
X-22601553Y+1396037D01*
X-22605064Y+1386061D01*
X-22610797Y+1376085D01*
X-22619569Y+1366220D01*
X-22629545Y+1358919D01*
X-22639521Y+1354250D01*
X-22649497Y+1351589D01*
X-22659473Y+1350670D01*
X-22660000Y+1350668D01*
X-22600668Y+7101000D02*
X-22600874Y+7105987D01*
X-22602553Y+7115963D01*
X-22606064Y+7125939D01*
X-22611797Y+7135915D01*
X-22620569Y+7145780D01*
X-22630545Y+7153081D01*
X-22640521Y+7157750D01*
X-22650497Y+7160411D01*
X-22660473Y+7161330D01*
X-22661000Y+7161332D01*
X-22721332Y+7101000D02*
X-22721126Y+7105987D01*
X-22719447Y+7115963D01*
X-22715936Y+7125939D01*
X-22710203Y+7135915D01*
X-22701431Y+7145780D01*
X-22691455Y+7153081D01*
X-22681479Y+7157750D01*
X-22671503Y+7160411D01*
X-22661527Y+7161330D01*
X-22661000Y+7161332D01*
X-22721332Y+7101000D02*
X-22721126Y+7096013D01*
X-22719447Y+7086037D01*
X-22715936Y+7076061D01*
X-22710203Y+7066085D01*
X-22701431Y+7056220D01*
X-22691455Y+7048919D01*
X-22681479Y+7044250D01*
X-22671503Y+7041589D01*
X-22661527Y+7040670D01*
X-22661000Y+7040668D01*
X-22600668Y+7101000D02*
X-22600874Y+7096013D01*
X-22602553Y+7086037D01*
X-22606064Y+7076061D01*
X-22611797Y+7066085D01*
X-22620569Y+7056220D01*
X-22630545Y+7048919D01*
X-22640521Y+7044250D01*
X-22650497Y+7041589D01*
X-22660473Y+7040670D01*
X-22661000Y+7040668D01*
X-15460000Y+1260000D02*
X-19460000Y+1260000D01*
X-19660000Y+1250000D02*
X-25680000Y+1250000D01*
D21*
X-4020000Y+940000D02*
X-1537000Y+940000D01*
X-1537000Y+7990000D01*
X-25739000Y+7990000D01*
X-25739000Y+940000D01*
X-12170000Y+150000D02*
X-12170000Y+940000D01*
X-17420000Y+940000D02*
X-25739000Y+940000D01*
X-12170000Y+150000D02*
X-4020000Y+150000D01*
X-4020000Y+940000D01*
D23*
X-18982900Y+4901520D02*
X-18982900Y+4810080D01*
X-18919400Y+4855800D02*
X-18906700Y+4871040D01*
X-18855900Y+4871040D01*
X-18843200Y+4855800D01*
X-18843200Y+4825320D01*
X-18855900Y+4810080D01*
X-18906700Y+4810080D01*
X-18919400Y+4825320D01*
X-18919400Y+4855800D01*
X-18741600Y+4855800D02*
X-18754300Y+4871040D01*
X-18805100Y+4871040D01*
X-18817800Y+4855800D01*
X-18817800Y+4840560D01*
X-18805100Y+4825320D01*
X-18754300Y+4825320D01*
X-18741600Y+4840560D01*
X-18741600Y+4871040D02*
X-18741600Y+4810080D01*
X-18754300Y+4794840D01*
X-18817800Y+4794840D01*
X-18678100Y+4871040D02*
X-18678100Y+4810080D01*
X-18678100Y+4901520D02*
X-18678100Y+4901520D01*
X-18538400Y+4855800D02*
X-18551100Y+4871040D01*
X-18601900Y+4871040D01*
X-18614600Y+4855800D01*
X-18614600Y+4825320D01*
X-18601900Y+4810080D01*
X-18551100Y+4810080D01*
X-18538400Y+4825320D01*
X-18500300Y+4871040D02*
X-18449500Y+4871040D01*
X-18436800Y+4855800D01*
X-18436800Y+4810080D01*
X-18500300Y+4810080D01*
X-18513000Y+4825320D01*
X-18500300Y+4840560D01*
X-18436800Y+4840560D01*
X-18373300Y+4901520D02*
X-18373300Y+4810080D01*
X-18271700Y+4901520D02*
X-18271700Y+4810080D01*
X-18208200Y+4871040D02*
X-18208200Y+4840560D01*
X-18195500Y+4825320D01*
X-18144700Y+4825320D01*
X-18132000Y+4840560D01*
X-18132000Y+4871040D02*
X-18132000Y+4810080D01*
X-18144700Y+4794840D01*
X-18208200Y+4794840D01*
X-17928800Y+4855800D02*
X-17941500Y+4871040D01*
X-17992300Y+4871040D01*
X-18005000Y+4855800D01*
X-18005000Y+4825320D01*
X-17992300Y+4810080D01*
X-17941500Y+4810080D01*
X-17928800Y+4825320D01*
X-17903400Y+4855800D02*
X-17890700Y+4871040D01*
X-17839900Y+4871040D01*
X-17827200Y+4855800D01*
X-17827200Y+4825320D01*
X-17839900Y+4810080D01*
X-17890700Y+4810080D01*
X-17903400Y+4825320D01*
X-17903400Y+4855800D01*
X-17801800Y+4810080D02*
X-17801800Y+4871040D01*
X-17801800Y+4855800D02*
X-17789100Y+4871040D01*
X-17738300Y+4871040D01*
X-17725600Y+4855800D01*
X-17725600Y+4810080D01*
X-17687500Y+4901520D02*
X-17687500Y+4825320D01*
X-17674800Y+4810080D01*
X-17636700Y+4810080D01*
X-17624000Y+4825320D01*
X-17700200Y+4871040D02*
X-17636700Y+4871040D01*
X-17598600Y+4810080D02*
X-17598600Y+4871040D01*
X-17598600Y+4855800D02*
X-17585900Y+4871040D01*
X-17535100Y+4871040D01*
X-17522400Y+4855800D01*
X-17497000Y+4855800D02*
X-17484300Y+4871040D01*
X-17433500Y+4871040D01*
X-17420800Y+4855800D01*
X-17420800Y+4825320D01*
X-17433500Y+4810080D01*
X-17484300Y+4810080D01*
X-17497000Y+4825320D01*
X-17497000Y+4855800D01*
X-17357300Y+4901520D02*
X-17357300Y+4810080D01*
X-17255700Y+4901520D02*
X-17255700Y+4810080D01*
X-17192200Y+4840560D02*
X-17116000Y+4840560D01*
X-17116000Y+4855800D01*
X-17128700Y+4871040D01*
X-17179500Y+4871040D01*
X-17192200Y+4855800D01*
X-17192200Y+4825320D01*
X-17179500Y+4810080D01*
X-17128700Y+4810080D01*
X-17014400Y+4855800D02*
X-17027100Y+4871040D01*
X-17077900Y+4871040D01*
X-17090600Y+4855800D01*
X-17090600Y+4825320D01*
X-17077900Y+4810080D01*
X-17027100Y+4810080D01*
X-17014400Y+4825320D01*
X-17014400Y+4810080D02*
X-17014400Y+4901520D01*
X-16874700Y+4871040D02*
X-16823900Y+4871040D01*
X-16811200Y+4855800D01*
X-16811200Y+4810080D01*
X-16874700Y+4810080D01*
X-16887400Y+4825320D01*
X-16874700Y+4840560D01*
X-16811200Y+4840560D01*
X-16709600Y+4855800D02*
X-16722300Y+4871040D01*
X-16773100Y+4871040D01*
X-16785800Y+4855800D01*
X-16785800Y+4825320D01*
X-16773100Y+4810080D01*
X-16722300Y+4810080D01*
X-16709600Y+4825320D01*
X-16671500Y+4901520D02*
X-16671500Y+4825320D01*
X-16658800Y+4810080D01*
X-16620700Y+4810080D01*
X-16608000Y+4825320D01*
X-16684200Y+4871040D02*
X-16620700Y+4871040D01*
X-16544500Y+4871040D02*
X-16544500Y+4810080D01*
X-16544500Y+4901520D02*
X-16544500Y+4901520D01*
X-16481000Y+4871040D02*
X-16442900Y+4810080D01*
X-16404800Y+4871040D01*
X-16379400Y+4840560D02*
X-16303200Y+4840560D01*
X-16303200Y+4855800D01*
X-16315900Y+4871040D01*
X-16366700Y+4871040D01*
X-16379400Y+4855800D01*
X-16379400Y+4825320D01*
X-16366700Y+4810080D01*
X-16315900Y+4810080D01*
X-16265100Y+4855800D02*
X-16201600Y+4855800D01*
X-16138100Y+4901520D02*
X-16138100Y+4810080D01*
X-16074600Y+4855800D02*
X-16061900Y+4871040D01*
X-16011100Y+4871040D01*
X-15998400Y+4855800D01*
X-15998400Y+4825320D01*
X-16011100Y+4810080D01*
X-16061900Y+4810080D01*
X-16074600Y+4825320D01*
X-16074600Y+4855800D01*
X-15973000Y+4871040D02*
X-15973000Y+4825320D01*
X-15960300Y+4810080D01*
X-15934900Y+4840560D01*
X-15909500Y+4810080D01*
X-15896800Y+4825320D01*
X-15896800Y+4871040D01*
X-19242000Y+4246560D02*
X-19165800Y+4246560D01*
X-19165800Y+4261800D01*
X-19178500Y+4277040D01*
X-19229300Y+4277040D01*
X-19242000Y+4261800D01*
X-19242000Y+4231320D01*
X-19229300Y+4216080D01*
X-19178500Y+4216080D01*
X-19102300Y+4231320D02*
X-19089600Y+4231320D01*
X-19089600Y+4216080D01*
X-19102300Y+4216080D01*
X-19102300Y+4231320D01*
X-18962600Y+4261800D02*
X-18975300Y+4277040D01*
X-19026100Y+4277040D01*
X-19038800Y+4261800D01*
X-19038800Y+4246560D01*
X-19026100Y+4231320D01*
X-18975300Y+4231320D01*
X-18962600Y+4246560D01*
X-18962600Y+4277040D02*
X-18962600Y+4216080D01*
X-18975300Y+4200840D01*
X-19038800Y+4200840D01*
X-18899100Y+4231320D02*
X-18886400Y+4231320D01*
X-18886400Y+4216080D01*
X-18899100Y+4216080D01*
X-18899100Y+4231320D01*
X-18721300Y+4307520D02*
X-18721300Y+4277040D01*
X-18670500Y+4307520D02*
X-18670500Y+4277040D01*
X-18619700Y+4292280D02*
X-18607000Y+4307520D01*
X-18568900Y+4307520D01*
X-18556200Y+4292280D01*
X-18556200Y+4277040D01*
X-18568900Y+4261800D01*
X-18607000Y+4261800D01*
X-18619700Y+4246560D01*
X-18619700Y+4216080D01*
X-18556200Y+4216080D01*
X-18353000Y+4231320D02*
X-18365700Y+4216080D01*
X-18403800Y+4216080D01*
X-18429200Y+4246560D01*
X-18429200Y+4277040D01*
X-18403800Y+4307520D01*
X-18365700Y+4307520D01*
X-18353000Y+4292280D01*
X-18327600Y+4216080D02*
X-18327600Y+4307520D01*
X-18251400Y+4307520D02*
X-18251400Y+4216080D01*
X-18327600Y+4261800D02*
X-18251400Y+4261800D01*
X-18226000Y+4216080D02*
X-18226000Y+4277040D01*
X-18200600Y+4307520D01*
X-18175200Y+4307520D01*
X-18149800Y+4277040D01*
X-18149800Y+4216080D01*
X-18226000Y+4246560D02*
X-18149800Y+4246560D01*
X-18124400Y+4216080D02*
X-18124400Y+4307520D01*
X-18048200Y+4216080D01*
X-18048200Y+4307520D01*
X-18022800Y+4216080D02*
X-18022800Y+4307520D01*
X-17946600Y+4216080D01*
X-17946600Y+4307520D01*
X-17845000Y+4216080D02*
X-17921200Y+4216080D01*
X-17921200Y+4307520D01*
X-17845000Y+4307520D01*
X-17921200Y+4261800D02*
X-17870400Y+4261800D01*
X-17819600Y+4307520D02*
X-17819600Y+4216080D01*
X-17743400Y+4216080D01*
X-17540200Y+4307520D02*
X-17603700Y+4307520D01*
X-17603700Y+4277040D01*
X-17552900Y+4277040D01*
X-17540200Y+4261800D01*
X-17540200Y+4231320D01*
X-17552900Y+4216080D01*
X-17591000Y+4216080D01*
X-17603700Y+4231320D01*
X-17514800Y+4307520D02*
X-17514800Y+4261800D01*
X-17476700Y+4216080D01*
X-17438600Y+4261800D01*
X-17438600Y+4307520D01*
X-17286200Y+4277040D02*
X-17260800Y+4307520D01*
X-17260800Y+4216080D01*
X-17210000Y+4231320D02*
X-17210000Y+4292280D01*
X-17197300Y+4307520D01*
X-17146500Y+4307520D01*
X-17133800Y+4292280D01*
X-17133800Y+4231320D01*
X-17146500Y+4216080D01*
X-17197300Y+4216080D01*
X-17210000Y+4231320D01*
X-17210000Y+4216080D02*
X-17133800Y+4307520D01*
X-17108400Y+4216080D02*
X-17108400Y+4277040D01*
X-17083000Y+4307520D01*
X-17057600Y+4307520D01*
X-17032200Y+4277040D01*
X-17032200Y+4216080D01*
X-17108400Y+4246560D02*
X-17032200Y+4246560D01*
X-16905200Y+4216080D02*
X-16905200Y+4307520D01*
X-16841700Y+4307520D01*
X-16829000Y+4292280D01*
X-16829000Y+4277040D01*
X-16841700Y+4261800D01*
X-16905200Y+4261800D01*
X-16841700Y+4261800D02*
X-16829000Y+4246560D01*
X-16829000Y+4216080D01*
X-16727400Y+4216080D02*
X-16803600Y+4216080D01*
X-16803600Y+4307520D01*
X-16727400Y+4307520D01*
X-16803600Y+4261800D02*
X-16752800Y+4261800D01*
X-16702000Y+4307520D02*
X-16702000Y+4216080D01*
X-16625800Y+4216080D01*
X-16600400Y+4216080D02*
X-16600400Y+4277040D01*
X-16575000Y+4307520D01*
X-16549600Y+4307520D01*
X-16524200Y+4277040D01*
X-16524200Y+4216080D01*
X-16600400Y+4246560D02*
X-16524200Y+4246560D01*
X-16422600Y+4307520D02*
X-16498800Y+4216080D01*
X-16498800Y+4307520D02*
X-16460700Y+4261800D01*
X-16295600Y+4216080D02*
X-16295600Y+4307520D01*
X-16257500Y+4261800D01*
X-16219400Y+4307520D01*
X-16219400Y+4216080D01*
X-16194000Y+4277040D02*
X-16168600Y+4307520D01*
X-16143200Y+4307520D01*
X-16117800Y+4277040D01*
X-16117800Y+4246560D01*
X-16143200Y+4216080D01*
X-16168600Y+4216080D01*
X-16194000Y+4246560D01*
X-16194000Y+4277040D01*
X-16092400Y+4216080D02*
X-16092400Y+4307520D01*
X-16041600Y+4307520D01*
X-16016200Y+4277040D01*
X-16016200Y+4246560D01*
X-16041600Y+4216080D01*
X-16092400Y+4216080D01*
X-15990800Y+4307520D02*
X-15990800Y+4231320D01*
X-15978100Y+4216080D01*
X-15927300Y+4216080D01*
X-15914600Y+4231320D01*
X-15914600Y+4307520D01*
X-15889200Y+4307520D02*
X-15889200Y+4216080D01*
X-15813000Y+4216080D01*
X-15711400Y+4216080D02*
X-15787600Y+4216080D01*
X-15787600Y+4307520D01*
X-15711400Y+4307520D01*
X-15787600Y+4261800D02*
X-15736800Y+4261800D01*
X-15673300Y+4307520D02*
X-15673300Y+4277040D01*
X-15622500Y+4307520D02*
X-15622500Y+4277040D01*
X-19211000Y+4619080D02*
X-19211000Y+4680040D01*
X-19211000Y+4664800D02*
X-19198300Y+4680040D01*
X-19147500Y+4680040D01*
X-19134800Y+4664800D01*
X-19134800Y+4619080D01*
X-19109400Y+4664800D02*
X-19096700Y+4680040D01*
X-19045900Y+4680040D01*
X-19033200Y+4664800D01*
X-19033200Y+4634320D01*
X-19045900Y+4619080D01*
X-19096700Y+4619080D01*
X-19109400Y+4634320D01*
X-19109400Y+4664800D01*
X-19007800Y+4619080D02*
X-19007800Y+4680040D01*
X-19007800Y+4664800D02*
X-18995100Y+4680040D01*
X-18944300Y+4680040D01*
X-18931600Y+4664800D01*
X-18906200Y+4619080D02*
X-18906200Y+4680040D01*
X-18906200Y+4664800D02*
X-18893500Y+4680040D01*
X-18868100Y+4649560D01*
X-18842700Y+4680040D01*
X-18830000Y+4664800D01*
X-18830000Y+4619080D01*
X-18791900Y+4680040D02*
X-18741100Y+4680040D01*
X-18728400Y+4664800D01*
X-18728400Y+4619080D01*
X-18791900Y+4619080D01*
X-18804600Y+4634320D01*
X-18791900Y+4649560D01*
X-18728400Y+4649560D01*
X-18664900Y+4710520D02*
X-18664900Y+4619080D01*
X-18563300Y+4710520D02*
X-18563300Y+4619080D01*
X-18499800Y+4680040D02*
X-18499800Y+4649560D01*
X-18487100Y+4634320D01*
X-18436300Y+4634320D01*
X-18423600Y+4649560D01*
X-18423600Y+4680040D02*
X-18423600Y+4619080D01*
X-18436300Y+4603840D01*
X-18499800Y+4603840D01*
X-18385500Y+4664800D02*
X-18322000Y+4664800D01*
X-18296600Y+4664800D02*
X-18283900Y+4680040D01*
X-18233100Y+4680040D01*
X-18220400Y+4664800D01*
X-18220400Y+4634320D01*
X-18233100Y+4619080D01*
X-18283900Y+4619080D01*
X-18296600Y+4634320D01*
X-18296600Y+4664800D01*
X-18195000Y+4603840D02*
X-18195000Y+4680040D01*
X-18195000Y+4664800D02*
X-18182300Y+4680040D01*
X-18131500Y+4680040D01*
X-18118800Y+4664800D01*
X-18118800Y+4649560D01*
X-18131500Y+4634320D01*
X-18182300Y+4634320D01*
X-18195000Y+4649560D01*
X-18093400Y+4649560D02*
X-18017200Y+4649560D01*
X-18017200Y+4664800D01*
X-18029900Y+4680040D01*
X-18080700Y+4680040D01*
X-18093400Y+4664800D01*
X-18093400Y+4634320D01*
X-18080700Y+4619080D01*
X-18029900Y+4619080D01*
X-17991800Y+4619080D02*
X-17991800Y+4680040D01*
X-17991800Y+4664800D02*
X-17979100Y+4680040D01*
X-17928300Y+4680040D01*
X-17915600Y+4664800D01*
X-17915600Y+4619080D01*
X-17775900Y+4695280D02*
X-17763200Y+4710520D01*
X-17725100Y+4710520D01*
X-17712400Y+4695280D01*
X-17712400Y+4680040D01*
X-17725100Y+4664800D01*
X-17763200Y+4664800D01*
X-17775900Y+4649560D01*
X-17775900Y+4619080D01*
X-17712400Y+4619080D01*
X-17674300Y+4664800D02*
X-17610800Y+4664800D01*
X-17509200Y+4664800D02*
X-17521900Y+4680040D01*
X-17572700Y+4680040D01*
X-17585400Y+4664800D01*
X-17585400Y+4634320D01*
X-17572700Y+4619080D01*
X-17521900Y+4619080D01*
X-17509200Y+4634320D01*
X-17407600Y+4619080D02*
X-17407600Y+4664800D01*
X-17420300Y+4680040D01*
X-17471100Y+4680040D01*
X-17483800Y+4664800D01*
X-17483800Y+4710520D02*
X-17483800Y+4619080D01*
X-17369500Y+4680040D02*
X-17318700Y+4680040D01*
X-17306000Y+4664800D01*
X-17306000Y+4619080D01*
X-17369500Y+4619080D01*
X-17382200Y+4634320D01*
X-17369500Y+4649560D01*
X-17306000Y+4649560D01*
X-17280600Y+4619080D02*
X-17280600Y+4680040D01*
X-17280600Y+4664800D02*
X-17267900Y+4680040D01*
X-17217100Y+4680040D01*
X-17204400Y+4664800D01*
X-17204400Y+4619080D01*
X-17179000Y+4619080D02*
X-17179000Y+4680040D01*
X-17179000Y+4664800D02*
X-17166300Y+4680040D01*
X-17115500Y+4680040D01*
X-17102800Y+4664800D01*
X-17102800Y+4619080D01*
X-17077400Y+4649560D02*
X-17001200Y+4649560D01*
X-17001200Y+4664800D01*
X-17013900Y+4680040D01*
X-17064700Y+4680040D01*
X-17077400Y+4664800D01*
X-17077400Y+4634320D01*
X-17064700Y+4619080D01*
X-17013900Y+4619080D01*
X-16937700Y+4710520D02*
X-16937700Y+4619080D01*
X-16772600Y+4603840D02*
X-16772600Y+4680040D01*
X-16772600Y+4664800D02*
X-16759900Y+4680040D01*
X-16709100Y+4680040D01*
X-16696400Y+4664800D01*
X-16696400Y+4649560D01*
X-16709100Y+4634320D01*
X-16759900Y+4634320D01*
X-16772600Y+4649560D01*
X-16671000Y+4664800D02*
X-16658300Y+4680040D01*
X-16607500Y+4680040D01*
X-16594800Y+4664800D01*
X-16594800Y+4634320D01*
X-16607500Y+4619080D01*
X-16658300Y+4619080D01*
X-16671000Y+4634320D01*
X-16671000Y+4664800D01*
X-16569400Y+4680040D02*
X-16569400Y+4634320D01*
X-16556700Y+4619080D01*
X-16531300Y+4649560D01*
X-16505900Y+4619080D01*
X-16493200Y+4634320D01*
X-16493200Y+4680040D01*
X-16467800Y+4649560D02*
X-16391600Y+4649560D01*
X-16391600Y+4664800D01*
X-16404300Y+4680040D01*
X-16455100Y+4680040D01*
X-16467800Y+4664800D01*
X-16467800Y+4634320D01*
X-16455100Y+4619080D01*
X-16404300Y+4619080D01*
X-16366200Y+4619080D02*
X-16366200Y+4680040D01*
X-16366200Y+4664800D02*
X-16353500Y+4680040D01*
X-16302700Y+4680040D01*
X-16290000Y+4664800D01*
X-16163000Y+4619080D02*
X-16163000Y+4680040D01*
X-16163000Y+4664800D02*
X-16150300Y+4680040D01*
X-16099500Y+4680040D01*
X-16086800Y+4664800D01*
X-16061400Y+4649560D02*
X-15985200Y+4649560D01*
X-15985200Y+4664800D01*
X-15997900Y+4680040D01*
X-16048700Y+4680040D01*
X-16061400Y+4664800D01*
X-16061400Y+4634320D01*
X-16048700Y+4619080D01*
X-15997900Y+4619080D01*
X-15921700Y+4710520D02*
X-15921700Y+4619080D01*
X-15845500Y+4680040D02*
X-15794700Y+4680040D01*
X-15782000Y+4664800D01*
X-15782000Y+4619080D01*
X-15845500Y+4619080D01*
X-15858200Y+4634320D01*
X-15845500Y+4649560D01*
X-15782000Y+4649560D01*
X-15756600Y+4680040D02*
X-15756600Y+4649560D01*
X-15743900Y+4634320D01*
X-15693100Y+4634320D01*
X-15680400Y+4649560D01*
X-15680400Y+4680040D02*
X-15680400Y+4619080D01*
X-15693100Y+4603840D01*
X-15756600Y+4603840D01*
X-19148300Y+3993080D02*
X-19148300Y+4069280D01*
X-19135600Y+4084520D01*
X-19097500Y+4084520D01*
X-19084800Y+4069280D01*
X-19161000Y+4038800D02*
X-19110200Y+4038800D01*
X-19059400Y+4038800D02*
X-19046700Y+4054040D01*
X-18995900Y+4054040D01*
X-18983200Y+4038800D01*
X-18983200Y+4008320D01*
X-18995900Y+3993080D01*
X-19046700Y+3993080D01*
X-19059400Y+4008320D01*
X-19059400Y+4038800D01*
X-18957800Y+3993080D02*
X-18957800Y+4054040D01*
X-18957800Y+4038800D02*
X-18945100Y+4054040D01*
X-18894300Y+4054040D01*
X-18881600Y+4038800D01*
X-18754600Y+3993080D02*
X-18754600Y+4054040D01*
X-18729200Y+4084520D01*
X-18703800Y+4084520D01*
X-18678400Y+4054040D01*
X-18678400Y+3993080D01*
X-18754600Y+4023560D02*
X-18678400Y+4023560D01*
X-18653000Y+3993080D02*
X-18653000Y+4054040D01*
X-18653000Y+4038800D02*
X-18640300Y+4054040D01*
X-18589500Y+4054040D01*
X-18576800Y+4038800D01*
X-18475200Y+4038800D02*
X-18487900Y+4054040D01*
X-18538700Y+4054040D01*
X-18551400Y+4038800D01*
X-18551400Y+4008320D01*
X-18538700Y+3993080D01*
X-18487900Y+3993080D01*
X-18475200Y+4008320D01*
X-18475200Y+3993080D02*
X-18475200Y+4084520D01*
X-18449800Y+4054040D02*
X-18449800Y+4008320D01*
X-18437100Y+3993080D01*
X-18386300Y+3993080D01*
X-18373600Y+4008320D01*
X-18373600Y+3993080D02*
X-18373600Y+4054040D01*
X-18310100Y+4054040D02*
X-18310100Y+3993080D01*
X-18310100Y+4084520D02*
X-18310100Y+4084520D01*
X-18246600Y+3993080D02*
X-18246600Y+4054040D01*
X-18246600Y+4038800D02*
X-18233900Y+4054040D01*
X-18183100Y+4054040D01*
X-18170400Y+4038800D01*
X-18170400Y+3993080D01*
X-18145000Y+4038800D02*
X-18132300Y+4054040D01*
X-18081500Y+4054040D01*
X-18068800Y+4038800D01*
X-18068800Y+4008320D01*
X-18081500Y+3993080D01*
X-18132300Y+3993080D01*
X-18145000Y+4008320D01*
X-18145000Y+4038800D01*
X-17941800Y+4038800D02*
X-17929100Y+4054040D01*
X-17878300Y+4054040D01*
X-17865600Y+4038800D01*
X-17865600Y+4008320D01*
X-17878300Y+3993080D01*
X-17929100Y+3993080D01*
X-17941800Y+4008320D01*
X-17941800Y+3993080D02*
X-17941800Y+4084520D01*
X-17827500Y+4054040D02*
X-17776700Y+4054040D01*
X-17764000Y+4038800D01*
X-17764000Y+3993080D01*
X-17827500Y+3993080D01*
X-17840200Y+4008320D01*
X-17827500Y+4023560D01*
X-17764000Y+4023560D01*
X-17675100Y+4054040D02*
X-17725900Y+4054040D01*
X-17738600Y+4038800D01*
X-17725900Y+4023560D01*
X-17675100Y+4023560D01*
X-17662400Y+4008320D01*
X-17675100Y+3993080D01*
X-17738600Y+3993080D01*
X-17637000Y+4023560D02*
X-17560800Y+4023560D01*
X-17560800Y+4038800D01*
X-17573500Y+4054040D01*
X-17624300Y+4054040D01*
X-17637000Y+4038800D01*
X-17637000Y+4008320D01*
X-17624300Y+3993080D01*
X-17573500Y+3993080D01*
X-17459200Y+4038800D02*
X-17471900Y+4054040D01*
X-17522700Y+4054040D01*
X-17535400Y+4038800D01*
X-17535400Y+4008320D01*
X-17522700Y+3993080D01*
X-17471900Y+3993080D01*
X-17459200Y+4008320D01*
X-17459200Y+3993080D02*
X-17459200Y+4084520D01*
X-17332200Y+4038800D02*
X-17319500Y+4054040D01*
X-17268700Y+4054040D01*
X-17256000Y+4038800D01*
X-17256000Y+4008320D01*
X-17268700Y+3993080D01*
X-17319500Y+3993080D01*
X-17332200Y+4008320D01*
X-17332200Y+4038800D01*
X-17230600Y+3993080D02*
X-17230600Y+4054040D01*
X-17230600Y+4038800D02*
X-17217900Y+4054040D01*
X-17167100Y+4054040D01*
X-17154400Y+4038800D01*
X-17154400Y+3993080D01*
X-16963900Y+4054040D02*
X-17014700Y+4054040D01*
X-17027400Y+4038800D01*
X-17014700Y+4023560D01*
X-16963900Y+4023560D01*
X-16951200Y+4008320D01*
X-16963900Y+3993080D01*
X-17027400Y+3993080D01*
X-16925800Y+3993080D02*
X-16925800Y+4054040D01*
X-16925800Y+4038800D02*
X-16913100Y+4054040D01*
X-16862300Y+4054040D01*
X-16849600Y+4038800D01*
X-16748000Y+4038800D02*
X-16760700Y+4054040D01*
X-16811500Y+4054040D01*
X-16824200Y+4038800D01*
X-16824200Y+4008320D01*
X-16811500Y+3993080D01*
X-16760700Y+3993080D01*
X-16748000Y+4008320D01*
X-16748000Y+3993080D02*
X-16748000Y+4084520D01*
X-16709900Y+4038800D02*
X-16646400Y+4038800D01*
X-16544800Y+4084520D02*
X-16608300Y+4084520D01*
X-16608300Y+4054040D01*
X-16557500Y+4054040D01*
X-16544800Y+4038800D01*
X-16544800Y+4008320D01*
X-16557500Y+3993080D01*
X-16595600Y+3993080D01*
X-16608300Y+4008320D01*
X-16519400Y+4054040D02*
X-16481300Y+3993080D01*
X-16443200Y+4054040D01*
X-16341600Y+4038800D02*
X-16354300Y+4054040D01*
X-16405100Y+4054040D01*
X-16417800Y+4038800D01*
X-16417800Y+4008320D01*
X-16405100Y+3993080D01*
X-16354300Y+3993080D01*
X-16341600Y+4008320D01*
X-16341600Y+3993080D02*
X-16341600Y+4084520D01*
X-16240000Y+4038800D02*
X-16252700Y+4054040D01*
X-16303500Y+4054040D01*
X-16316200Y+4038800D01*
X-16316200Y+4008320D01*
X-16303500Y+3993080D01*
X-16252700Y+3993080D01*
X-16240000Y+4008320D01*
X-16201900Y+4038800D02*
X-16138400Y+4038800D01*
X-16049500Y+4054040D02*
X-16100300Y+4054040D01*
X-16113000Y+4038800D01*
X-16100300Y+4023560D01*
X-16049500Y+4023560D01*
X-16036800Y+4008320D01*
X-16049500Y+3993080D01*
X-16113000Y+3993080D01*
X-15973300Y+4084520D02*
X-15973300Y+3993080D01*
X-15897100Y+4038800D02*
X-15833600Y+4038800D01*
X-15732000Y+4038800D02*
X-15744700Y+4054040D01*
X-15795500Y+4054040D01*
X-15808200Y+4038800D01*
X-15808200Y+4008320D01*
X-15795500Y+3993080D01*
X-15744700Y+3993080D01*
X-15732000Y+4008320D01*
X-24014800Y+4520280D02*
X-24027500Y+4535520D01*
X-24065600Y+4535520D01*
X-24078300Y+4520280D01*
X-24078300Y+4459320D01*
X-24065600Y+4444080D01*
X-24027500Y+4444080D01*
X-24014800Y+4459320D01*
X-24014800Y+4474560D01*
X-24027500Y+4489800D01*
X-24078300Y+4489800D01*
X-23989400Y+4505040D02*
X-23951300Y+4444080D01*
X-23913200Y+4505040D01*
X-23786200Y+4489800D02*
X-23773500Y+4505040D01*
X-23722700Y+4505040D01*
X-23710000Y+4489800D01*
X-23710000Y+4459320D01*
X-23722700Y+4444080D01*
X-23773500Y+4444080D01*
X-23786200Y+4459320D01*
X-23786200Y+4444080D02*
X-23786200Y+4535520D01*
X-23671900Y+4505040D02*
X-23621100Y+4505040D01*
X-23608400Y+4489800D01*
X-23608400Y+4444080D01*
X-23671900Y+4444080D01*
X-23684600Y+4459320D01*
X-23671900Y+4474560D01*
X-23608400Y+4474560D01*
X-23570300Y+4535520D02*
X-23570300Y+4459320D01*
X-23557600Y+4444080D01*
X-23519500Y+4444080D01*
X-23506800Y+4459320D01*
X-23583000Y+4505040D02*
X-23519500Y+4505040D01*
X-23468700Y+4535520D02*
X-23468700Y+4459320D01*
X-23456000Y+4444080D01*
X-23417900Y+4444080D01*
X-23405200Y+4459320D01*
X-23481400Y+4505040D02*
X-23417900Y+4505040D01*
X-23379800Y+4474560D02*
X-23303600Y+4474560D01*
X-23303600Y+4489800D01*
X-23316300Y+4505040D01*
X-23367100Y+4505040D01*
X-23379800Y+4489800D01*
X-23379800Y+4459320D01*
X-23367100Y+4444080D01*
X-23316300Y+4444080D01*
X-23278200Y+4444080D02*
X-23278200Y+4505040D01*
X-23278200Y+4489800D02*
X-23265500Y+4505040D01*
X-23214700Y+4505040D01*
X-23202000Y+4489800D01*
X-23176600Y+4505040D02*
X-23176600Y+4474560D01*
X-23163900Y+4459320D01*
X-23113100Y+4459320D01*
X-23100400Y+4474560D01*
X-23100400Y+4505040D02*
X-23100400Y+4444080D01*
X-23113100Y+4428840D01*
X-23176600Y+4428840D01*
X-22973400Y+4489800D02*
X-22960700Y+4505040D01*
X-22909900Y+4505040D01*
X-22897200Y+4489800D01*
X-22897200Y+4459320D01*
X-22909900Y+4444080D01*
X-22960700Y+4444080D01*
X-22973400Y+4459320D01*
X-22973400Y+4444080D02*
X-22973400Y+4535520D01*
X-22859100Y+4505040D02*
X-22808300Y+4505040D01*
X-22795600Y+4489800D01*
X-22795600Y+4444080D01*
X-22859100Y+4444080D01*
X-22871800Y+4459320D01*
X-22859100Y+4474560D01*
X-22795600Y+4474560D01*
X-22770200Y+4505040D02*
X-22770200Y+4474560D01*
X-22757500Y+4459320D01*
X-22706700Y+4459320D01*
X-22694000Y+4474560D01*
X-22694000Y+4505040D02*
X-22694000Y+4444080D01*
X-22706700Y+4428840D01*
X-22770200Y+4428840D01*
X-22554300Y+4489800D02*
X-22490800Y+4489800D01*
X-22363800Y+4474560D02*
X-22287600Y+4474560D01*
X-22287600Y+4489800D01*
X-22300300Y+4505040D01*
X-22351100Y+4505040D01*
X-22363800Y+4489800D01*
X-22363800Y+4459320D01*
X-22351100Y+4444080D01*
X-22300300Y+4444080D01*
X-22224100Y+4459320D02*
X-22211400Y+4459320D01*
X-22211400Y+4444080D01*
X-22224100Y+4444080D01*
X-22224100Y+4459320D01*
X-22084400Y+4489800D02*
X-22097100Y+4505040D01*
X-22147900Y+4505040D01*
X-22160600Y+4489800D01*
X-22160600Y+4474560D01*
X-22147900Y+4459320D01*
X-22097100Y+4459320D01*
X-22084400Y+4474560D01*
X-22084400Y+4505040D02*
X-22084400Y+4444080D01*
X-22097100Y+4428840D01*
X-22160600Y+4428840D01*
X-22020900Y+4459320D02*
X-22008200Y+4459320D01*
X-22008200Y+4444080D01*
X-22020900Y+4444080D01*
X-22020900Y+4459320D01*
X-21855800Y+4505040D02*
X-21779600Y+4444080D01*
X-21855800Y+4444080D02*
X-21779600Y+4505040D01*
X-21678000Y+4474560D02*
X-21754200Y+4474560D01*
X-21703400Y+4535520D01*
X-21703400Y+4444080D01*
X-21551000Y+4444080D02*
X-21551000Y+4505040D01*
X-21525600Y+4535520D01*
X-21500200Y+4535520D01*
X-21474800Y+4505040D01*
X-21474800Y+4444080D01*
X-21551000Y+4474560D02*
X-21474800Y+4474560D01*
X-21449400Y+4444080D02*
X-21449400Y+4505040D01*
X-21424000Y+4535520D01*
X-21398600Y+4535520D01*
X-21373200Y+4505040D01*
X-21373200Y+4444080D01*
X-21449400Y+4474560D02*
X-21373200Y+4474560D01*
X-21347800Y+4444080D02*
X-21347800Y+4505040D01*
X-21322400Y+4535520D01*
X-21297000Y+4535520D01*
X-21271600Y+4505040D01*
X-21271600Y+4444080D01*
X-21347800Y+4474560D02*
X-21271600Y+4474560D01*
X-18737900Y+6796560D02*
X-18718850Y+6796560D01*
X-18718850Y+6766080D01*
X-18756950Y+6766080D01*
X-18776000Y+6796560D01*
X-18776000Y+6827040D01*
X-18756950Y+6857520D01*
X-18728375Y+6857520D01*
X-18718850Y+6842280D01*
X-18699800Y+6766080D02*
X-18699800Y+6857520D01*
X-18642650Y+6766080D01*
X-18642650Y+6857520D01*
X-18623600Y+6766080D02*
X-18623600Y+6857520D01*
X-18585500Y+6857520D01*
X-18566450Y+6827040D01*
X-18566450Y+6796560D01*
X-18585500Y+6766080D01*
X-18623600Y+6766080D01*
X-19660000Y+7250000D02*
X-25690000Y+7250000D01*
X-4265000Y+6322000D02*
X-3682000Y+6322000D01*
X-3682000Y+7586000D01*
X-4265000Y+7586000D01*
X-4265000Y+6322000D01*
X-14653000Y+4249560D02*
X-14576800Y+4249560D01*
X-14576800Y+4264800D01*
X-14589500Y+4280040D01*
X-14640300Y+4280040D01*
X-14653000Y+4264800D01*
X-14653000Y+4234320D01*
X-14640300Y+4219080D01*
X-14589500Y+4219080D01*
X-12530000Y+6302560D02*
X-12453800Y+6302560D01*
X-12453800Y+6317800D01*
X-12466500Y+6333040D01*
X-12517300Y+6333040D01*
X-12530000Y+6317800D01*
X-12530000Y+6287320D01*
X-12517300Y+6272080D01*
X-12466500Y+6272080D01*
X-12817000Y+6409000D02*
X-12817000Y+6282000D01*
X-12880500Y+5774000D02*
X-12753500Y+5774000D01*
X-12753500Y+6282000D01*
X-12880500Y+6282000D01*
X-12880500Y+5774000D01*
X-12817000Y+5774000D02*
X-12817000Y+5647000D01*
X-12934420Y+5831500D02*
X-13025860Y+5831500D01*
X-13025860Y+5910875D01*
X-13010620Y+5926750D01*
X-12995380Y+5926750D01*
X-12980140Y+5910875D01*
X-12980140Y+5831500D01*
X-12980140Y+5910875D02*
X-12964900Y+5926750D01*
X-12934420Y+5926750D01*
X-13010620Y+5974375D02*
X-13025860Y+5990250D01*
X-13025860Y+6037875D01*
X-13010620Y+6053750D01*
X-12995380Y+6053750D01*
X-12980140Y+6037875D01*
X-12980140Y+5990250D01*
X-12964900Y+5974375D01*
X-12934420Y+5974375D01*
X-12934420Y+6053750D01*
X-13010620Y+6101375D02*
X-13025860Y+6117250D01*
X-13025860Y+6164875D01*
X-13010620Y+6180750D01*
X-12995380Y+6180750D01*
X-12980140Y+6164875D01*
X-12964900Y+6180750D01*
X-12949660Y+6180750D01*
X-12934420Y+6164875D01*
X-12934420Y+6117250D01*
X-12949660Y+6101375D01*
X-12980140Y+6133125D02*
X-12980140Y+6164875D01*
D21*
X-12720000Y+150000D02*
X-12720000Y+940000D01*
X-12170000Y+940000D01*
X-17420000Y+940000D02*
X-17420000Y+150000D01*
X-12720000Y+150000D01*
M02*
